<svg xmlns="http://www.w3.org/2000/svg" xmlns:xlink="http://www.w3.org/1999/xlink" width="95" height="95" viewBox="0 0 95 95">
  <defs>
    <clipPath id="clip-path">
      <rect id="長方形_208" data-name="長方形 208" width="95" height="95" transform="translate(301 2091)" fill="#fff" stroke="#707070" stroke-width="1"/>
    </clipPath>
  </defs>
  <g id="マスクグループ_13" data-name="マスクグループ 13" transform="translate(-301 -2091)" clip-path="url(#clip-path)">
    <g id="グループ_302" data-name="グループ 302" transform="translate(-1196.818 1075.074)">
      <ellipse id="楕円形_30" data-name="楕円形 30" cx="5.388" cy="5.642" rx="5.388" ry="5.642" transform="translate(1526.281 1037.857)" fill="#006b9b" opacity="0.3"/>
      <path id="パス_13694" data-name="パス 13694" d="M1540.948,1101.587c-2.718,0-3.043-3.306-3.182-4.717-.756-7.732-1.593-17.856-1.62-18.465a.7.7,0,0,0-.684-.721h-.531a.684.684,0,0,0-.683.678c-.027.653-.865,10.778-1.621,18.508-.138,1.412-.463,4.718-3.182,4.718q-.11,0-.225-.007c-2.011-.125-2.784-1.57-2.669-4.988.325-5.839,1.319-23.134,1.361-23.842l-.831-13.431-11.128-19.034a2.732,2.732,0,0,1,.292-3.427l.08-.085a2.76,2.76,0,0,1,1.96-.833c.066,0,.132,0,.2.007a2.731,2.731,0,0,1,1.961,1.06l.043.058,9.73,16.768a19.076,19.076,0,0,1,2.667-.6l-.237-.237,2.5.062,2.582-.029-.221.22a20.4,20.4,0,0,1,2.661.583l9.064-15.627,1.127,1.822,2.115,3.614-9.17,15.679-.83,13.411v.038c.057.955,1.038,18.027,1.359,23.8.115,3.443-.657,4.888-2.667,5.013C1541.1,1101.585,1541.022,1101.587,1540.948,1101.587Z" transform="translate(-3.241 -1.323)" fill="#006b9b" opacity="0.3"/>
      <g id="グループ_301" data-name="グループ 301" transform="translate(1508.038 1032.9)" opacity="0.8">
        <path id="パス_13695" data-name="パス 13695" d="M1540.208,1050.7a4.52,4.52,0,1,0-4.258-4.512A4.393,4.393,0,0,0,1540.208,1050.7Z" transform="translate(-1520.188 -1036.722)" fill="none"/>
        <path id="パス_13696" data-name="パス 13696" d="M1534.535,1053.849l-.057-.017a17.936,17.936,0,0,0-4.552-.762l1.909,1.9a.2.2,0,0,1,0,.282l-1.689,1.689a.192.192,0,0,0-.017.26l1.293,1.649a.2.2,0,0,1,.04.164l-1.581,8.008a.2.2,0,0,1-.39,0l-1.587-8.008a.218.218,0,0,1,.039-.164l1.293-1.649a.191.191,0,0,0-.017-.26l-1.689-1.689a.209.209,0,0,1,0-.282l1.915-1.909a16.417,16.417,0,0,0-4.535.757l-.1.028a.862.862,0,0,1-.988-.4l-9.8-16.885a1.589,1.589,0,0,0-2.4-.147l-.09.1a1.59,1.59,0,0,0-.164,2.016.371.371,0,0,1,.04.062l11.159,19.088a.822.822,0,0,1,.113.378l.836,13.508a.343.343,0,0,1,0,.107c-.011.175-1.022,17.738-1.361,23.826-.124,3.716.881,3.778,1.61,3.823,1.107.068,1.9-.531,2.214-3.693.774-7.917,1.593-17.885,1.615-18.4a1.816,1.816,0,0,1,1.813-1.8h.531a1.816,1.816,0,0,1,1.813,1.8c.023.519.842,10.487,1.615,18.4.311,3.162,1.107,3.761,2.214,3.693.728-.045,1.734-.108,1.609-3.823-.339-6.088-1.35-23.651-1.361-23.826v-.107l.836-13.508a.819.819,0,0,1,.113-.378l8.872-15.169-1.768-3.021c-.045-.073-.09-.141-.135-.214l-8.223,14.175A.86.86,0,0,1,1534.535,1053.849Z" transform="translate(-1509.365 -1034.224)" fill="none"/>
        <path id="パス_13697" data-name="パス 13697" d="M1600.308,1050.706a4.52,4.52,0,1,0-4.259-4.512A4.4,4.4,0,0,0,1600.308,1050.706Z" transform="translate(-1546.347 -1036.722)" fill="none"/>
        <path id="パス_13698" data-name="パス 13698" d="M1574.136,1038.532a1.589,1.589,0,0,0-.164-2.016l-.09-.1a1.452,1.452,0,0,0-2.157,0l-.09.1a1.583,1.583,0,0,0-.158,2.016c.011.022.023.039.034.062l1.293,2.214,1.293-2.214A.379.379,0,0,1,1574.136,1038.532Z" transform="translate(-1535.525 -1034.223)" fill="none"/>
        <path id="パス_13699" data-name="パス 13699" d="M1598.777,1058.062a.9.9,0,0,1,.119-.378l11.153-19.088c.012-.023.028-.04.04-.062a1.575,1.575,0,0,0-.164-2.016l-.09-.1a1.583,1.583,0,0,0-2.395.147l-9.8,16.885a.856.856,0,0,1-.988.4l-.057-.017a17.793,17.793,0,0,0-4.71-.768l1.915,1.909a.208.208,0,0,1,0,.282l-1.694,1.689a.2.2,0,0,0-.011.26l1.293,1.649a.221.221,0,0,1,.04.164l-1.587,8.008a.2.2,0,0,1-.39,0l-1.581-8.008a.2.2,0,0,1,.04-.164l1.293-1.649a.191.191,0,0,0-.017-.26l-1.688-1.689a.2.2,0,0,1,0-.282l1.909-1.909a16.706,16.706,0,0,0-4.377.757l-.1.028a.853.853,0,0,1-.983-.4l-8.228-14.175c-.045.073-.09.141-.136.214l-1.768,3.016,8.872,15.174a.9.9,0,0,1,.118.378l.83,13.508a.351.351,0,0,1,0,.107c-.006.175-1.022,17.738-1.355,23.826-.13,3.716.875,3.778,1.609,3.823,1.1.068,1.9-.531,2.208-3.693.779-7.917,1.593-17.885,1.615-18.4a1.821,1.821,0,0,1,1.819-1.8h.525a1.816,1.816,0,0,1,1.813,1.8c.023.519.841,10.481,1.615,18.4.31,3.162,1.112,3.761,2.214,3.693.734-.045,1.734-.108,1.609-3.823-.339-6.088-1.35-23.651-1.361-23.826v-.107Z" transform="translate(-1537.538 -1034.224)" fill="none"/>
        <path id="パス_13700" data-name="パス 13700" d="M1538.776,1051.135a6.372,6.372,0,1,0-6.116-6.37A6.25,6.25,0,0,0,1538.776,1051.135Zm0-10.882a4.52,4.52,0,1,1-4.258,4.512A4.4,4.4,0,0,1,1538.776,1040.252Z" transform="translate(-1518.756 -1035.294)" fill="#080808"/>
        <path id="パス_13701" data-name="パス 13701" d="M1535.451,1056.359a.823.823,0,0,0-.113.379l-.836,13.508v.107c.011.175,1.022,17.738,1.361,23.826.124,3.716-.881,3.778-1.609,3.823-1.107.068-1.9-.531-2.214-3.693-.774-7.917-1.593-17.885-1.615-18.4a1.816,1.816,0,0,0-1.813-1.8h-.531a1.816,1.816,0,0,0-1.813,1.8c-.022.52-.841,10.487-1.615,18.4-.311,3.162-1.107,3.761-2.214,3.693-.729-.045-1.734-.107-1.609-3.823.339-6.088,1.35-23.651,1.361-23.826a.33.33,0,0,0,0-.107l-.836-13.508a.821.821,0,0,0-.113-.379l-11.159-19.088a.371.371,0,0,0-.04-.062,1.59,1.59,0,0,1,.164-2.016l.09-.1a1.589,1.589,0,0,1,2.4.147l9.8,16.885a.863.863,0,0,0,.988.4l.1-.028a16.419,16.419,0,0,1,4.535-.757l-1.914,1.909a.209.209,0,0,0,0,.282l1.688,1.689a.191.191,0,0,1,.017.26l-1.293,1.649a.218.218,0,0,0-.039.164l1.587,8.008a.2.2,0,0,0,.389,0l1.581-8.008a.2.2,0,0,0-.039-.164l-1.293-1.649a.191.191,0,0,1,.016-.26l1.689-1.689a.2.2,0,0,0,0-.282l-1.909-1.9a17.916,17.916,0,0,1,4.552.763l.057.017a.86.86,0,0,0,.988-.4l8.223-14.175a3.315,3.315,0,0,1,.5-3.964l.09-.09a3.331,3.331,0,0,1,2.31-1c-.1,0-.2.006-.3.011a3.3,3.3,0,0,0-2.44,1.355c-.017.022-.028.051-.046.073l-9.487,16.349a18.807,18.807,0,0,0-4.761-.672,17.707,17.707,0,0,0-4.636.666l-9.487-16.343c-.017-.023-.028-.051-.045-.073a3.314,3.314,0,0,0-5.049-.367l-.09.09a3.313,3.313,0,0,0-.361,4.179l11.04,18.879.819,13.254c-.062,1.062-1.034,17.874-1.361,23.786v.023c-.057,1.615-.187,5.4,3.219,5.608.1.006.186.011.277.011,3.242,0,3.614-3.8,3.755-5.252.757-7.737,1.626-18.161,1.626-18.557a.091.091,0,0,1,.09-.1h.531a.091.091,0,0,1,.09.1c0,.4.87,10.826,1.627,18.557.141,1.451.514,5.252,3.755,5.252.09,0,.181-.006.277-.011,3.405-.209,3.275-3.993,3.219-5.608v-.023c-.327-5.913-1.3-22.724-1.355-23.786l.819-13.254,8.273-14.157-.994-1.7Z" transform="translate(-1508.039 -1032.9)" fill="#080808"/>
        <path id="パス_13702" data-name="パス 13702" d="M1598.879,1051.131a6.372,6.372,0,1,0-6.114-6.368A6.252,6.252,0,0,0,1598.879,1051.131Zm0-10.88a4.52,4.52,0,1,1-4.259,4.512A4.4,4.4,0,0,1,1598.879,1040.252Z" transform="translate(-1544.918 -1035.293)" fill="#080808"/>
        <path id="パス_13703" data-name="パス 13703" d="M1608.178,1038.169a3.313,3.313,0,0,0-.356-4.179l-.091-.09a3.312,3.312,0,0,0-5.048.367c-.017.022-.034.051-.051.073l-9.487,16.349a18.8,18.8,0,0,0-4.755-.672,17.716,17.716,0,0,0-4.642.666l-9.487-16.343a.509.509,0,0,0-.045-.073,3.3,3.3,0,0,0-2.44-1.355c-.1-.006-.2-.011-.3-.011a3.331,3.331,0,0,0-2.31,1l-.09.09a3.316,3.316,0,0,0-.5,3.964c.045.073.091.141.136.215l1.767,3.021.994,1.7,8.279,14.157.819,13.254c-.062,1.062-1.028,17.874-1.361,23.786v.023c-.057,1.615-.187,5.4,3.224,5.608.09.006.181.011.271.011,3.242,0,3.614-3.8,3.755-5.252.762-7.737,1.626-18.161,1.626-18.557a.092.092,0,0,1,.1-.1h.525a.1.1,0,0,1,.1.1c0,.4.864,10.82,1.621,18.557.147,1.491.531,5.461,4.032,5.241,3.405-.209,3.275-3.993,3.219-5.608v-.023c-.328-5.913-1.293-22.724-1.355-23.786l.819-13.254Zm-12.215,56.01c.124,3.716-.875,3.778-1.609,3.823-1.1.068-1.9-.531-2.214-3.693-.774-7.923-1.592-17.885-1.615-18.4a1.816,1.816,0,0,0-1.813-1.8h-.525a1.821,1.821,0,0,0-1.818,1.8c-.023.52-.836,10.487-1.615,18.4-.311,3.162-1.107,3.761-2.208,3.693-.734-.045-1.739-.107-1.609-3.823.333-6.088,1.35-23.651,1.355-23.826a.337.337,0,0,0,0-.107l-.83-13.508a.9.9,0,0,0-.118-.379l-8.872-15.174-.994-1.7-1.293-2.214c-.011-.022-.023-.039-.034-.062a1.582,1.582,0,0,1,.158-2.016l.09-.1a1.613,1.613,0,0,1,1.079-.48c.056,0,.113,0,.175.006a1.585,1.585,0,0,1,1.146.621l1.576,2.711,8.228,14.175a.852.852,0,0,0,.982.4l.1-.028a16.7,16.7,0,0,1,4.377-.757l-1.909,1.909a.2.2,0,0,0,0,.282l1.688,1.689a.192.192,0,0,1,.017.26l-1.293,1.649a.2.2,0,0,0-.04.164l1.581,8.008a.2.2,0,0,0,.39,0l1.587-8.008a.218.218,0,0,0-.04-.164l-1.293-1.649a.2.2,0,0,1,.011-.26l1.694-1.689a.208.208,0,0,0,0-.282l-1.914-1.909a17.785,17.785,0,0,1,4.71.768l.056.017a.857.857,0,0,0,.988-.4l9.8-16.885a1.583,1.583,0,0,1,2.394-.147l.09.1a1.576,1.576,0,0,1,.164,2.016c-.012.023-.028.04-.04.062l-11.153,19.088a.9.9,0,0,0-.119.379l-.836,13.508v.107C1594.614,1070.528,1595.625,1088.091,1595.963,1094.178Z" transform="translate(-1534.198 -1032.9)" fill="#080808"/>
      </g>
    </g>
  </g>
</svg>
