<svg xmlns="http://www.w3.org/2000/svg" width="117.776" height="109.726" viewBox="0 0 117.776 109.726">
  <g id="グループ_366" data-name="グループ 366" transform="translate(-213.044 -285.919)">
    <path id="パス_13823" data-name="パス 13823" d="M225.434,355.051l53.029-40.546,55.286,40.7H316.267v47.376H243.373V356.143Z" transform="translate(-2.928 -6.931)" fill="#006b9b" opacity="0.3"/>
    <g id="グループ_365" data-name="グループ 365" transform="translate(213.568 286.419)" opacity="0.8">
      <path id="パス_13824" data-name="パス 13824" d="M317.486,302.975c9.035,2.212,10.59,3.768,12.8,12.8a1.388,1.388,0,0,0,2.7,0c2.212-9.034,3.767-10.59,12.8-12.8a1.388,1.388,0,0,0,0-2.7c-9.035-2.212-10.59-3.768-12.8-12.8a1.388,1.388,0,0,0-2.7,0c-2.212,9.034-3.768,10.59-12.8,12.8a1.388,1.388,0,0,0,0,2.7Zm14.151-10.162c1.716,4.849,3.964,7.1,8.814,8.814-4.85,1.717-7.1,3.964-8.814,8.814-1.716-4.85-3.965-7.1-8.815-8.814C327.672,299.911,329.921,297.663,331.636,292.812Z" transform="translate(-238.952 -286.419)" fill="#080808" stroke="#080808" stroke-miterlimit="10" stroke-width="1"/>
      <path id="パス_13825" data-name="パス 13825" d="M321.456,343l-53.14-39.147a1.389,1.389,0,0,0-1.65,0l-52.537,39a1.388,1.388,0,0,0,.815,2.5l15.244.133v45.046a1.388,1.388,0,0,0,2.776,0V344.122a1.388,1.388,0,0,0-1.375-1.388l-12.484-.109L267.5,306.7l48.914,36.034H303.082a1.389,1.389,0,0,0-1.388,1.388v46.421a1.388,1.388,0,0,0,2.776,0V345.509h16.163a1.388,1.388,0,0,0,.823-2.505Z" transform="translate(-213.568 -290.655)" fill="#080808" stroke="#080808" stroke-miterlimit="10" stroke-width="1"/>
      <path id="パス_13826" data-name="パス 13826" d="M297.01,355.306H261.659a1.328,1.328,0,0,0-1.328,1.328v23.95a1.328,1.328,0,0,0,1.328,1.328H297.01a1.328,1.328,0,0,0,1.328-1.328v-23.95A1.328,1.328,0,0,0,297.01,355.306Zm-34.024,2.655h14.961v21.3H262.986Zm32.7,21.3H280.722v-21.3h14.961Z" transform="translate(-225.108 -303.419)" fill="#080808" stroke="#080808" stroke-miterlimit="10" stroke-width="1"/>
    </g>
  </g>
</svg>
