<svg xmlns="http://www.w3.org/2000/svg" xmlns:xlink="http://www.w3.org/1999/xlink" width="95" height="95" viewBox="0 0 95 95">
  <defs>
    <clipPath id="clip-path">
      <rect id="長方形_205" data-name="長方形 205" width="95" height="95" transform="translate(301 1777)" fill="#fff" stroke="#707070" stroke-width="1"/>
    </clipPath>
  </defs>
  <g id="マスクグループ_10" data-name="マスクグループ 10" transform="translate(-301 -1777)" clip-path="url(#clip-path)">
    <g id="グループ_300" data-name="グループ 300" transform="translate(-1124.094 1665.04)">
      <circle id="楕円形_28" data-name="楕円形 28" cx="9.401" cy="9.401" r="9.401" transform="translate(1440.891 140.658)" fill="#006b9b" opacity="0.3"/>
      <circle id="楕円形_29" data-name="楕円形 29" cx="9.401" cy="9.401" r="9.401" transform="translate(1491.184 140.658)" fill="#006b9b" opacity="0.3"/>
      <g id="グループ_299" data-name="グループ 299" transform="translate(1435.203 137.83)" opacity="0.8">
        <path id="パス_13688" data-name="パス 13688" d="M1497.067,197.187a1.388,1.388,0,0,0-1.161-.612h-.01a1.377,1.377,0,0,0-1.152.618l-6,9.235a1.293,1.293,0,0,0-.053,1.32,1.385,1.385,0,0,0,1.219.717l12.192.047h.005a1.371,1.371,0,0,0,1.216-.712,1.291,1.291,0,0,0-.066-1.331Zm-6.025,9.317,4.873-7.5,5.035,7.543Z" transform="translate(-1460.1 -165.252)" fill="#080808"/>
        <path id="パス_13689" data-name="パス 13689" d="M1506.937,183.224a3.252,3.252,0,0,0-3.234-3.169h-65.069a3.268,3.268,0,1,0,0,6.536h57.511a.982.982,0,0,0,0-1.965h-57.511a1.3,1.3,0,1,1,0-2.606H1503.7a1.276,1.276,0,0,1,1.269,1.243v.068a1.269,1.269,0,0,1-1.27,1.3h-3.952a.982.982,0,1,0,0,1.965h3.952a3.235,3.235,0,0,0,3.234-3.3Z" transform="translate(-1435.28 -157.54)" fill="#080808"/>
        <path id="パス_13690" data-name="パス 13690" d="M1438.049,152.608a.982.982,0,0,0,.3-1.357,7.439,7.439,0,1,1,3.278,2.8.982.982,0,1,0-.788,1.8,9.4,9.4,0,1,0-4.145-3.538A.982.982,0,0,0,1438.049,152.608Z" transform="translate(-1435.203 -137.83)" fill="#080808"/>
        <path id="パス_13691" data-name="パス 13691" d="M1444.6,148.877a3.853,3.853,0,0,1,3.091-2.276.982.982,0,1,0-.219-1.953,5.825,5.825,0,0,0-4.672,3.44.983.983,0,0,0,1.8.789Z" transform="translate(-1438.709 -141.01)" fill="#080808"/>
        <path id="パス_13692" data-name="パス 13692" d="M1542.618,144.648a5.825,5.825,0,0,0-4.672,3.44.983.983,0,0,0,1.8.789,3.852,3.852,0,0,1,3.091-2.276.982.982,0,0,0-.219-1.953Z" transform="translate(-1483.124 -141.01)" fill="#080808"/>
        <path id="パス_13693" data-name="パス 13693" d="M1538.935,156.64a9.4,9.4,0,0,0,8.6-13.171.983.983,0,0,0-1.8.789,7.433,7.433,0,1,1-2.8-3.279.982.982,0,0,0,1.06-1.655,9.4,9.4,0,1,0-5.061,17.315Z" transform="translate(-1479.23 -137.833)" fill="#080808"/>
      </g>
    </g>
  </g>
</svg>
