<svg xmlns="http://www.w3.org/2000/svg" width="121.545" height="124.342" viewBox="0 0 121.545 124.342">
  <g id="グループ_268" data-name="グループ 268" transform="translate(-1583.534 -733.419)">
    <path id="パス_13628" data-name="パス 13628" d="M1653.792,740.74v53.613h49.295a44.255,44.255,0,0,1-2.267,21.586c-6.639,17.516-25.05,29.534-47.267,32.053l-.441-.035c-3.013.431-25.469,3.264-42.811-13.07-15.382-14.488-15.636-33.595-15.7-38.342-.073-5.513.484-24.811,15.925-40.177C1627.944,739.034,1650.467,740.472,1653.792,740.74Z" transform="translate(1.557 1.011)" fill="#006b9b" opacity="0.3"/>
    <g id="グループ_245" data-name="グループ 245" transform="translate(1583.534 733.419)" opacity="0.8">
      <path id="パス_13582" data-name="パス 13582" d="M1672.086,819.547a2.138,2.138,0,0,0-.371,4.26,8.793,8.793,0,1,1-9.524,7.995h0a2.138,2.138,0,1,0-4.26-.371h0a13.084,13.084,0,0,0,11.882,14.155c.386.034.767.051,1.141.051a13.069,13.069,0,0,0,1.127-26.089Z" transform="translate(-1573.067 -721.295)" fill="#080808"/>
      <path id="パス_13583" data-name="パス 13583" d="M1609.106,829.243a2.136,2.136,0,0,0-1.939,2.315,8.793,8.793,0,1,1-9.524-8,2.137,2.137,0,1,0-.372-4.259,13.069,13.069,0,0,0,1.128,26.089c.38,0,.761-.017,1.141-.05a13.085,13.085,0,0,0,11.884-14.156,2.136,2.136,0,0,0-2.313-1.943Z" transform="translate(-1583.281 -721.329)" fill="#080808"/>
      <path id="パス_13584" data-name="パス 13584" d="M1699.462,753.649h-9.018a17.076,17.076,0,0,0-17.056,17.056v20.534h-28.379V735.557a2.137,2.137,0,0,0-2.707-2.06l-28.862,7.972c-.03.009-.057.025-.087.037a2.032,2.032,0,0,0-.284.114c-.049.024-.1.049-.144.076a2.424,2.424,0,0,0-.237.167c-.047.038-.093.073-.137.114-.018.016-.04.029-.057.047l-20.86,20.99c-.024.024-.04.055-.063.08a2.018,2.018,0,0,0-.185.234c-.032.049-.064.1-.091.146a2.285,2.285,0,0,0-.121.255c-.022.058-.047.114-.064.173-.008.026-.022.049-.027.075l-7.378,28.086q-.058.729-.171,1.452a57.461,57.461,0,0,0,114.658,0,2.136,2.136,0,0,0-1.986-2.277c-.049,0-.1,0-.146,0h-18.4V770.7a12.8,12.8,0,0,1,12.777-12.777h9.018a2.138,2.138,0,0,0,0-4.276ZM1594.51,767.769l40.639,23.464h-46.806Zm46.225-29.407v47.177l-23.492-40.685Zm-27.179,8.653,23.224,40.225-40.156-23.184Zm27.307,95.785A53.324,53.324,0,0,1,1588,795.515h105.721a53.324,53.324,0,0,1-52.862,47.287Z" transform="translate(-1583.534 -733.419)" fill="#080808"/>
    </g>
  </g>
</svg>
