<svg xmlns="http://www.w3.org/2000/svg" width="103.623" height="133.359" viewBox="0 0 103.623 133.359">
  <g id="グループ_264" data-name="グループ 264" transform="translate(-1826.733 -954.611)">
    <circle id="楕円形_26" data-name="楕円形 26" cx="7.878" cy="7.878" r="7.878" transform="translate(1873.664 1000.438)" fill="#006b9b" opacity="0.3"/>
    <path id="パス_13622" data-name="パス 13622" d="M1892.336,1090.835c-4.074,0-4.541-4.814-4.74-6.87-1.091-11.141-2.232-25.048-2.273-25.88a.7.7,0,0,0-.669-.751h-.744a.676.676,0,0,0-.676.668c-.035.888-1.2,15.033-2.268,25.964-.2,2.058-.681,6.868-4.749,6.869-.109,0-.219,0-.331-.01-3.744-.249-4.123-3.822-4-7.285.445-7.952,1.808-31.793,1.9-33.39l-1.158-18.739-15.584-26.657a4.066,4.066,0,0,1,.484-5.119l.14-.139a4.093,4.093,0,0,1,5.765-.06,4.57,4.57,0,0,1,.378.424l.082.1,13.557,23.344a5.951,5.951,0,0,1,1.092-.119,18.629,18.629,0,0,1,5.64-.925h.162a18.659,18.659,0,0,1,5.662.925,6.014,6.014,0,0,1,1.1.119l13.542-23.333.072-.094a4.124,4.124,0,0,1,3.257-1.607,4.056,4.056,0,0,1,2.479.838,4.69,4.69,0,0,1,.442.391l.162.173a4.061,4.061,0,0,1,.387,5.183l-.024.035-15.493,26.517-1.159,18.747c.1,1.66,1.47,25.6,1.9,33.323.121,3.514-.259,7.1-4,7.344C1892.556,1090.832,1892.445,1090.835,1892.336,1090.835Z" transform="translate(-1.944 -2.865)" fill="#006b9b" opacity="0.3"/>
    <g id="グループ_246" data-name="グループ 246" transform="translate(1826.733 954.611)" opacity="0.8">
      <path id="パス_13585" data-name="パス 13585" d="M1921.2,972.494l-11.035-17.323a1.184,1.184,0,0,0-.934-.542c-6.625-.336-10.073,4.093-13.408,8.372-3.093,3.98-6.017,7.737-11.418,7.456a1.188,1.188,0,0,0-1.084.589,1.173,1.173,0,0,0,.028,1.233l.626.981,6.877,10.783,3.532,5.55,4.672,7.326-12.193,21.014a5.89,5.89,0,0,0-.7-.056,18.784,18.784,0,0,0-5.522-.916.69.69,0,0,0-.2,0,.757.757,0,0,0-.206,0,18.9,18.9,0,0,0-5.531.916,5.739,5.739,0,0,0-.692.056l-13.072-22.518a.635.635,0,0,0-.066-.1,4.551,4.551,0,0,0-6.344-1.018,5.136,5.136,0,0,0-.589.514l-.121.131a4.538,4.538,0,0,0-.5,5.737l15.165,25.938,1.121,18.211c-.084,1.458-1.411,24.555-1.869,32.712-.075,2.214-.252,7.419,4.429,7.709.121.009.252.009.374.009,4.448,0,4.962-5.214,5.158-7.214,1.047-10.624,2.233-24.957,2.233-25.5a.128.128,0,0,1,.131-.131h.719a.128.128,0,0,1,.131.131c0,.28.3,4,.729,8.97s.981,11.213,1.5,16.529c.2,2,.71,7.214,5.167,7.214.121,0,.243,0,.374-.009,4.681-.29,4.494-5.494,4.42-7.737-.448-8.12-1.775-31.217-1.859-32.684l1.121-18.2,12.259-20.977,1.429,2.214a1.181,1.181,0,1,0,1.99-1.271.009.009,0,0,0-.009-.009l-2.074-3.214,1.57-2.691a4.55,4.55,0,0,0-.5-5.737l-.121-.131a4.54,4.54,0,0,0-6.41-.093l-.037.037-2.99-4.681c5.251-.617,8.288-4.513,11.231-8.307,3.1-3.971,6.027-7.727,11.427-7.456a1.2,1.2,0,0,0,1.084-.589A1.176,1.176,0,0,0,1921.2,972.494Zm-19.267,24.163a2.185,2.185,0,0,1,3.055-.411,2.688,2.688,0,0,1,.243.215l.121.131a2.167,2.167,0,0,1,.224,2.775.516.516,0,0,0-.056.075l-15.324,26.228a1.143,1.143,0,0,0-.159.523l-1.149,18.566v.14c.019.243,1.4,24.4,1.869,32.722.178,5.12-1.205,5.2-2.214,5.27-1.514.093-2.616-.738-3.037-5.074-1.065-10.885-2.186-24.574-2.224-25.293a2.494,2.494,0,0,0-2.485-2.476h-.729a2.5,2.5,0,0,0-2.495,2.476c-.028.719-1.149,14.408-2.214,25.293-.43,4.336-1.523,5.167-3.046,5.074-1-.066-2.383-.15-2.205-5.251.467-8.344,1.85-32.507,1.869-32.75v-.14l-1.149-18.557a1.141,1.141,0,0,0-.159-.523l-15.333-26.228a.377.377,0,0,0-.047-.084,2.169,2.169,0,0,1,.224-2.775l.121-.121a2.183,2.183,0,0,1,3.083-.037,2.45,2.45,0,0,1,.206.234l13.474,23.2a1.166,1.166,0,0,0,1.355.542,3.979,3.979,0,0,1,1.149-.168,1.252,1.252,0,0,0,.374-.056,16.519,16.519,0,0,1,5.083-.85h.14a16.473,16.473,0,0,1,5.083.85,1.3,1.3,0,0,0,.374.056,4.042,4.042,0,0,1,1.159.168,1.167,1.167,0,0,0,1.355-.542Zm4.924-16.342c-2.981,3.831-5.8,7.456-10.82,7.475l-4.018-6.3-5.569-8.736c5.251-.617,8.288-4.522,11.24-8.307,2.981-3.831,5.8-7.447,10.82-7.475l9.587,15.034C1912.844,972.625,1909.807,976.53,1906.854,980.315Z" transform="translate(-1828.426 -954.611)" fill="#080808"/>
      <path id="パス_13586" data-name="パス 13586" d="M1881.372,1018.224a8.755,8.755,0,1,0-8.393-9.1c0,.119-.007.237-.007.355A8.588,8.588,0,0,0,1881.372,1018.224Zm0-14.95a6.21,6.21,0,1,1-5.842,6.557c-.006-.119-.01-.237-.01-.357A6.041,6.041,0,0,1,1881.372,1003.274Z" transform="translate(-1829.767 -957.637)" fill="#080808"/>
      <path id="パス_13587" data-name="パス 13587" d="M1846.626,1026.493a7.879,7.879,0,1,0-7.553-8.193c0,.107-.006.213-.006.32A7.729,7.729,0,0,0,1846.626,1026.493Zm0-13.455a5.589,5.589,0,1,1-5.258,5.9c-.007-.107-.009-.215-.009-.322a5.437,5.437,0,0,1,5.267-5.578Z" transform="translate(-1827.542 -958.294)" fill="#080808"/>
      <path id="パス_13588" data-name="パス 13588" d="M1864.554,1055.443l-7.262-20.073a11.274,11.274,0,0,0-2.687-4.235,6.547,6.547,0,0,0-1.76-1.279,17.1,17.1,0,0,0-6.487-1.308,1.449,1.449,0,0,0-.181,0h-.905a1.54,1.54,0,0,0-.187,0,17.106,17.106,0,0,0-6.488,1.308,6.548,6.548,0,0,0-1.76,1.279,11.3,11.3,0,0,0-2.687,4.235l-7.262,20.073a1.11,1.11,0,0,0-.033.107,4.086,4.086,0,0,0,3.688,5.059l.157.011a4.094,4.094,0,0,0,4.234-3.016l1.121-3.522c-.352,9.57-.934,25.022-1.153,28.988-.075,2.167-.231,6.677,3.983,6.941,2.99.179,4.672-2,4.986-6.513.634-9.02,1.332-22.483,1.332-22.921a.119.119,0,0,1,.117-.119h.805a.118.118,0,0,1,.117.119h0c0,.411.748,14.087,1.332,22.916.289,4.334,1.848,6.528,4.636,6.528.115,0,.232,0,.35-.011,4.214-.263,4.058-4.773,3.982-6.963-.22-3.951-.8-19.4-1.152-28.966l1.121,3.523a4.091,4.091,0,0,0,4.232,3.016l.161-.011a4.089,4.089,0,0,0,3.8-4.364,4.175,4.175,0,0,0-.109-.7A.907.907,0,0,0,1864.554,1055.443Zm-2.352,2.243a1.96,1.96,0,0,1-1.448.8l-.161.011a1.961,1.961,0,0,1-2.035-1.461.19.19,0,0,0-.015-.053l-3.487-10.98a1.063,1.063,0,0,0-2.076.361c.011.309,1.115,30.973,1.437,36.779.159,4.609-1.083,4.687-1.99,4.744-.723.045-2.419.15-2.731-4.534-.588-8.815-1.316-22.318-1.327-22.775a2.242,2.242,0,0,0-2.242-2.243h-.806a2.243,2.243,0,0,0-2.242,2.236c-.011.577-.684,13.654-1.327,22.782-.33,4.689-2.012,4.578-2.732,4.538-.907-.057-2.149-.134-1.991-4.721.324-5.829,1.428-36.493,1.438-36.8a1.063,1.063,0,0,0-2.076-.361l-3.487,10.98a.545.545,0,0,0-.015.053,1.961,1.961,0,0,1-2.037,1.461l-.157-.011a1.962,1.962,0,0,1-1.821-2.094,2.1,2.1,0,0,1,.041-.284l7.24-20.015a9.156,9.156,0,0,1,2.172-3.435,4.525,4.525,0,0,1,1.164-.871,15.186,15.186,0,0,1,5.718-1.112h1.032a15.18,15.18,0,0,1,5.717,1.112,4.52,4.52,0,0,1,1.164.871,9.141,9.141,0,0,1,2.172,3.435l7.241,20.015a1.962,1.962,0,0,1-.334,1.572Z" transform="translate(-1826.733 -959.463)" fill="#080808"/>
      <path id="パス_13589" data-name="パス 13589" d="M1916.835,1010.747a7.879,7.879,0,1,0,7.553,8.193c0-.107.007-.213.007-.32A7.73,7.73,0,0,0,1916.835,1010.747Zm0,13.455a5.589,5.589,0,1,1,5.258-5.9c.007.107.009.215.009.322a5.436,5.436,0,0,1-5.267,5.578Z" transform="translate(-1832.108 -958.294)" fill="#080808"/>
      <path id="パス_13590" data-name="パス 13590" d="M1934.84,1055.55a.87.87,0,0,0-.033-.107l-7.262-20.073a11.274,11.274,0,0,0-2.687-4.235,6.548,6.548,0,0,0-1.76-1.279,17.1,17.1,0,0,0-6.487-1.308,1.451,1.451,0,0,0-.181,0h-.905a1.462,1.462,0,0,0-.182,0,17.105,17.105,0,0,0-6.488,1.308,6.548,6.548,0,0,0-1.76,1.279,11.3,11.3,0,0,0-2.687,4.235l-7.262,20.073a1.046,1.046,0,0,0-.033.107,4.086,4.086,0,0,0,3.688,5.059l.157.011a4.094,4.094,0,0,0,4.234-3.016l1.121-3.522c-.352,9.57-.934,25.022-1.153,28.988-.075,2.167-.23,6.677,3.983,6.941,2.99.179,4.672-2,4.986-6.513.635-9.02,1.332-22.483,1.332-22.921a.119.119,0,0,1,.117-.119h.806a.118.118,0,0,1,.117.119h0c0,.411.747,14.087,1.332,22.916.289,4.334,1.848,6.528,4.636,6.528.115,0,.232,0,.35-.011,4.214-.263,4.058-4.773,3.982-6.963-.219-3.951-.8-19.4-1.152-28.966l1.121,3.523a4.09,4.09,0,0,0,4.232,3.016l.161-.011a4.089,4.089,0,0,0,3.8-4.365,4.154,4.154,0,0,0-.109-.694Zm-2.385,2.134a1.96,1.96,0,0,1-1.448.8l-.161.011a1.96,1.96,0,0,1-2.035-1.461.2.2,0,0,0-.015-.053l-3.487-10.98a1.063,1.063,0,0,0-2.077.361c.011.309,1.115,30.973,1.437,36.779.159,4.609-1.083,4.687-1.99,4.744-.723.045-2.419.151-2.731-4.534-.588-8.815-1.317-22.318-1.327-22.775a2.242,2.242,0,0,0-2.243-2.242h-.805a2.243,2.243,0,0,0-2.243,2.236c-.011.578-.685,13.654-1.327,22.782-.33,4.689-2.012,4.578-2.732,4.538-.907-.057-2.149-.135-1.991-4.721.324-5.829,1.427-36.493,1.438-36.8a1.063,1.063,0,0,0-2.076-.361l-3.487,10.98c-.006.018-.011.035-.015.053a1.961,1.961,0,0,1-2.037,1.461l-.157-.011a1.962,1.962,0,0,1-1.821-2.094,2.084,2.084,0,0,1,.041-.284l7.241-20.015a9.154,9.154,0,0,1,2.172-3.435,4.52,4.52,0,0,1,1.164-.871,15.179,15.179,0,0,1,5.717-1.112h1.032a15.171,15.171,0,0,1,5.717,1.112,4.52,4.52,0,0,1,1.164.871,9.142,9.142,0,0,1,2.172,3.435l7.24,20.015A1.96,1.96,0,0,1,1932.455,1057.684Z" transform="translate(-1831.344 -959.463)" fill="#080808"/>
    </g>
  </g>
</svg>
