<svg xmlns="http://www.w3.org/2000/svg" width="45.836" height="102.189" viewBox="0 0 45.836 102.189">
  <g id="グループ_276" data-name="グループ 276" transform="translate(-1575.015 -415.129)">
    <path id="パス_13635" data-name="パス 13635" d="M1597.587,532.582a3.968,3.968,0,0,1-4.093-3.6c-.156-3.442-.108-44.208.036-53.521l-3.148,9.446c-.078.233-.164.472-.249.706l-.122.337c-.125.342-.254.694-.368,1.051a4.059,4.059,0,0,1-1.939,2.525,3.175,3.175,0,0,1-1.446.332,4.655,4.655,0,0,1-1.5-.27c-2.123-.732-2.933-2.555-2.172-4.878.982-3.033,2.012-6.115,3.008-9.1,0,0,1.21-3.62,1.444-4.322.33-1,.667-1.99,1-2.983l.664-1.972c.981-2.92,2-5.94,2.937-8.922a5.352,5.352,0,0,1,4.044-3.839,30.544,30.544,0,0,1,3-.6l.933-.138,3.4,8.749,3.4-8.746.936.142c.961.146,1.938.345,2.9.591a5.421,5.421,0,0,1,4.095,3.794c2.641,8.09,5.489,16.68,8.961,27.031a5.938,5.938,0,0,1,.345,1.877,3.452,3.452,0,0,1-2.289,3.283,3.669,3.669,0,0,1-1.494.33h0a3.248,3.248,0,0,1-1.307-.273,4.457,4.457,0,0,1-2.3-2.754c-.879-2.554-1.737-5.17-2.568-7.7l-.517-1.576q-.357-1.107-.717-2.2c.125,8.977.2,48.4.078,53.009a4.052,4.052,0,0,1-4.271,4.141c-2.958-.034-4.043-2.33-4.089-4.286-.085-2.651-.176-8.381-.261-14.022l-.016-1.036c-.086-5.412-.176-11-.264-13.98h-1.056c-.115,2.439-.292,10.26-.427,16.13l-.05,2.1c-.1,4.13-.184,7.7-.239,9.212-.031.836-.062,1.684-.169,2.518a3.915,3.915,0,0,1-4.036,3.414Zm5.7-50.545a.06.06,0,0,0-.059.065.058.058,0,0,0,.059.059.062.062,0,1,0,0-.124Zm0-6.583a.065.065,0,0,0,0,.13.065.065,0,0,0,0-.13Zm0-6.577a.058.058,0,0,0-.059.059.062.062,0,1,0,.059-.059Z" transform="translate(-2.804 -15.264)" fill="#006b9b" opacity="0.3"/>
    <g id="グループ_275" data-name="グループ 275" transform="translate(1575.453 415.519)">
      <g id="グループ_273" data-name="グループ 273">
        <path id="パス_13636" data-name="パス 13636" d="M1616.151,478.017c-3.492-10.413-6.341-19.005-8.965-27.037a5.274,5.274,0,0,0-3.983-3.688,28.863,28.863,0,0,0-14.49.006,5.21,5.21,0,0,0-3.936,3.735c-1.028,3.268-2.145,6.571-3.221,9.763q-.692,2.057-1.383,4.119-.585,1.755-1.176,3.516c-1.081,3.238-2.2,6.6-3.28,9.9-.721,2.234.053,3.983,2.08,4.68a3.56,3.56,0,0,0,2.819-.047,3.873,3.873,0,0,0,1.861-2.435c.119-.366.26-.745.39-1.105.118-.325.242-.656.349-.993q1.374-4.1,2.736-8.191l.739-2.216c-.159,6.743-.219,50.953-.059,54.522a3.806,3.806,0,0,0,3.942,3.445h.089a3.733,3.733,0,0,0,3.865-3.274c.106-.833.136-1.684.171-2.518.065-1.755.171-6.394.284-11.3.154-6.648.325-14.1.437-16.281h1.354c.094,3.12.189,9.237.284,15.17.089,5.862.177,11.406.26,14.029.077,2.476,1.6,4.1,3.883,4.125h.065a3.9,3.9,0,0,0,4.107-3.989c.077-3.12.071-47.372-.094-54.014.349,1.052.691,2.11,1.034,3.162,1,3.043,2.027,6.193,3.085,9.272a4.31,4.31,0,0,0,2.216,2.665,3.237,3.237,0,0,0,2.677-.059C1616.322,482.077,1616.948,480.4,1616.151,478.017Zm-17.037-30.435-3.109,8-3.114-8.008A27.734,27.734,0,0,1,1599.113,447.582Zm14.756,34.465a2.238,2.238,0,0,1-1.844.053,3.315,3.315,0,0,1-1.661-2.057c-1.058-3.073-2.08-6.223-3.079-9.26q-.62-1.924-1.253-3.835a.513.513,0,0,0-.561-.349l-.81.112a.521.521,0,0,0-.437.561c.148,1.5.254,49.517.118,54.652a3,3,0,1,1-6-.142c-.083-2.612-.171-8.149-.26-14.012-.1-6.27-.2-12.747-.3-15.684a.511.511,0,0,0-.514-.5h-2.328a.519.519,0,0,0-.514.467c-.113,1.282-.3,9.532-.467,16.819-.118,4.905-.225,9.538-.29,11.3-.03.8-.059,1.625-.16,2.411a2.758,2.758,0,0,1-2.919,2.382,2.8,2.8,0,0,1-2.931-2.47c-.171-3.782-.1-53.293.083-55.184a.518.518,0,0,0-.425-.556l-.786-.136a.449.449,0,0,0-.089-.006.513.513,0,0,0-.485.349l-.981,2.949-2.73,8.191c-.106.319-.23.65-.343.963-.136.372-.278.756-.4,1.146a2.93,2.93,0,0,1-1.342,1.826,2.59,2.59,0,0,1-2.033,0c-1.885-.65-1.82-2.2-1.43-3.392,1.07-3.3,2.192-6.654,3.274-9.893.39-1.17.786-2.346,1.176-3.522.455-1.371.922-2.742,1.383-4.107,1.075-3.2,2.192-6.506,3.227-9.786a4.2,4.2,0,0,1,3.209-3.049,29.146,29.146,0,0,1,2.878-.579l3.682,9.473a.515.515,0,0,0,.958,0l3.676-9.467c.934.142,1.861.331,2.789.567a4.267,4.267,0,0,1,3.262,3.014c2.624,8.037,5.472,16.63,8.965,27.043a4.809,4.809,0,0,1,.284,1.5A2.294,2.294,0,0,1,1613.869,482.047Z" transform="translate(-1575.453 -428.139)" fill="#080808"/>
        <path id="パス_13637" data-name="パス 13637" d="M1599.745,430.321a7.655,7.655,0,0,0,5.354,2.209h.154A8.324,8.324,0,0,0,1613.1,424a8.772,8.772,0,0,0-2.568-6.2,7.685,7.685,0,0,0-5.418-2.283h-.08a7.981,7.981,0,0,0-7.616,6.261c-.037.034-.074.067-.111.1l.067.069a9.432,9.432,0,0,0-.232,2.179A8.776,8.776,0,0,0,1599.745,430.321Zm5.486,1.181a6.614,6.614,0,0,1-4.771-1.918,7.742,7.742,0,0,1-2.29-5.463,8.359,8.359,0,0,1,.177-1.794,7.265,7.265,0,0,1,4.657-1.669,7.674,7.674,0,0,1,3.322,1.2,8.322,8.322,0,0,0,3.753,1.293,3.773,3.773,0,0,0,1.872-.5,7.76,7.76,0,0,1,.123,1.354A7.294,7.294,0,0,1,1605.231,431.5Zm-.185-14.956h.068a6.667,6.667,0,0,1,4.7,1.987,7.62,7.62,0,0,1,1.88,3.074c-1.626,1.078-3.14.272-4.883-.657a8.506,8.506,0,0,0-3.8-1.318,8.278,8.278,0,0,0-4.145,1.083A6.844,6.844,0,0,1,1605.046,416.546Z" transform="translate(-1584.325 -415.519)" fill="#080808"/>
        <path id="パス_13638" data-name="パス 13638" d="M1611.068,472.811a1.244,1.244,0,1,1-1.247-1.241A1.243,1.243,0,0,1,1611.068,472.811Z" transform="translate(-1589.003 -438.446)"/>
        <path id="パス_13639" data-name="パス 13639" d="M1611.068,483.947a1.244,1.244,0,1,1-1.247-1.247A1.247,1.247,0,0,1,1611.068,483.947Z" transform="translate(-1589.003 -442.999)"/>
        <path id="パス_13640" data-name="パス 13640" d="M1611.068,495.087a1.244,1.244,0,1,1-1.247-1.247A1.242,1.242,0,0,1,1611.068,495.087Z" transform="translate(-1589.003 -447.555)"/>
      </g>
      <g id="グループ_274" data-name="グループ 274" opacity="0.8">
        <path id="パス_13641" data-name="パス 13641" d="M1616.151,478.017c-3.492-10.413-6.341-19.005-8.965-27.037a5.274,5.274,0,0,0-3.983-3.688,28.863,28.863,0,0,0-14.49.006,5.21,5.21,0,0,0-3.936,3.735c-1.028,3.268-2.145,6.571-3.221,9.763q-.692,2.057-1.383,4.119-.585,1.755-1.176,3.516c-1.081,3.238-2.2,6.6-3.28,9.9-.721,2.234.053,3.983,2.08,4.68a3.56,3.56,0,0,0,2.819-.047,3.873,3.873,0,0,0,1.861-2.435c.119-.366.26-.745.39-1.105.118-.325.242-.656.349-.993q1.374-4.1,2.736-8.191l.739-2.216c-.159,6.743-.219,50.953-.059,54.522a3.806,3.806,0,0,0,3.942,3.445h.089a3.733,3.733,0,0,0,3.865-3.274c.106-.833.136-1.684.171-2.518.065-1.755.171-6.394.284-11.3.154-6.648.325-14.1.437-16.281h1.354c.094,3.12.189,9.237.284,15.17.089,5.862.177,11.406.26,14.029.077,2.476,1.6,4.1,3.883,4.125h.065a3.9,3.9,0,0,0,4.107-3.989c.077-3.12.071-47.372-.094-54.014.349,1.052.691,2.11,1.034,3.162,1,3.043,2.027,6.193,3.085,9.272a4.31,4.31,0,0,0,2.216,2.665,3.237,3.237,0,0,0,2.677-.059C1616.322,482.077,1616.948,480.4,1616.151,478.017Zm-17.037-30.435-3.109,8-3.114-8.008A27.734,27.734,0,0,1,1599.113,447.582Zm14.756,34.465a2.238,2.238,0,0,1-1.844.053,3.315,3.315,0,0,1-1.661-2.057c-1.058-3.073-2.08-6.223-3.079-9.26q-.62-1.924-1.253-3.835a.513.513,0,0,0-.561-.349l-.81.112a.521.521,0,0,0-.437.561c.148,1.5.254,49.517.118,54.652a3,3,0,1,1-6-.142c-.083-2.612-.171-8.149-.26-14.012-.1-6.27-.2-12.747-.3-15.684a.511.511,0,0,0-.514-.5h-2.328a.519.519,0,0,0-.514.467c-.113,1.282-.3,9.532-.467,16.819-.118,4.905-.225,9.538-.29,11.3-.03.8-.059,1.625-.16,2.411a2.758,2.758,0,0,1-2.919,2.382,2.8,2.8,0,0,1-2.931-2.47c-.171-3.782-.1-53.293.083-55.184a.518.518,0,0,0-.425-.556l-.786-.136a.449.449,0,0,0-.089-.006.513.513,0,0,0-.485.349l-.981,2.949-2.73,8.191c-.106.319-.23.65-.343.963-.136.372-.278.756-.4,1.146a2.93,2.93,0,0,1-1.342,1.826,2.59,2.59,0,0,1-2.033,0c-1.885-.65-1.82-2.2-1.43-3.392,1.07-3.3,2.192-6.654,3.274-9.893.39-1.17.786-2.346,1.176-3.522.455-1.371.922-2.742,1.383-4.107,1.075-3.2,2.192-6.506,3.227-9.786a4.2,4.2,0,0,1,3.209-3.049,29.146,29.146,0,0,1,2.878-.579l3.682,9.473a.515.515,0,0,0,.958,0l3.676-9.467c.934.142,1.861.331,2.789.567a4.267,4.267,0,0,1,3.262,3.014c2.624,8.037,5.472,16.63,8.965,27.043a4.809,4.809,0,0,1,.284,1.5A2.294,2.294,0,0,1,1613.869,482.047Z" transform="translate(-1575.453 -428.139)" fill="none" stroke="#080808" stroke-linecap="round" stroke-linejoin="round" stroke-width="0.78"/>
        <path id="パス_13642" data-name="パス 13642" d="M1599.745,430.321a7.655,7.655,0,0,0,5.354,2.209h.154A8.324,8.324,0,0,0,1613.1,424a8.772,8.772,0,0,0-2.568-6.2,7.685,7.685,0,0,0-5.418-2.283h-.08a7.981,7.981,0,0,0-7.616,6.261c-.037.034-.074.067-.111.1l.067.069a9.432,9.432,0,0,0-.232,2.179A8.776,8.776,0,0,0,1599.745,430.321Zm5.486,1.181a6.614,6.614,0,0,1-4.771-1.918,7.742,7.742,0,0,1-2.29-5.463,8.359,8.359,0,0,1,.177-1.794,7.265,7.265,0,0,1,4.657-1.669,7.674,7.674,0,0,1,3.322,1.2,8.322,8.322,0,0,0,3.753,1.293,3.773,3.773,0,0,0,1.872-.5,7.76,7.76,0,0,1,.123,1.354A7.294,7.294,0,0,1,1605.231,431.5Zm-.185-14.956h.068a6.667,6.667,0,0,1,4.7,1.987,7.62,7.62,0,0,1,1.88,3.074c-1.626,1.078-3.14.272-4.883-.657a8.506,8.506,0,0,0-3.8-1.318,8.278,8.278,0,0,0-4.145,1.083A6.844,6.844,0,0,1,1605.046,416.546Z" transform="translate(-1584.325 -415.519)" fill="none" stroke="#080808" stroke-linecap="round" stroke-linejoin="round" stroke-width="0.78"/>
        <path id="パス_13643" data-name="パス 13643" d="M1611.068,472.811a1.244,1.244,0,1,1-1.247-1.241A1.243,1.243,0,0,1,1611.068,472.811Z" transform="translate(-1589.003 -438.446)" fill="none" stroke="#080808" stroke-linecap="round" stroke-linejoin="round" stroke-width="0.78"/>
        <path id="パス_13644" data-name="パス 13644" d="M1611.068,483.947a1.244,1.244,0,1,1-1.247-1.247A1.247,1.247,0,0,1,1611.068,483.947Z" transform="translate(-1589.003 -442.999)" fill="none" stroke="#080808" stroke-linecap="round" stroke-linejoin="round" stroke-width="0.78"/>
        <path id="パス_13645" data-name="パス 13645" d="M1611.068,495.087a1.244,1.244,0,1,1-1.247-1.247A1.242,1.242,0,0,1,1611.068,495.087Z" transform="translate(-1589.003 -447.555)" fill="none" stroke="#080808" stroke-linecap="round" stroke-linejoin="round" stroke-width="0.78"/>
      </g>
    </g>
    <circle id="楕円形_27" data-name="楕円形 27" cx="7.648" cy="7.648" r="7.648" transform="translate(1592.151 419.204)" fill="#006b9b" opacity="0.3"/>
  </g>
</svg>
