<svg xmlns="http://www.w3.org/2000/svg" xmlns:xlink="http://www.w3.org/1999/xlink" width="95" height="95" viewBox="0 0 95 95">
  <defs>
    <clipPath id="clip-path">
      <rect id="長方形_212" data-name="長方形 212" width="95" height="95" transform="translate(301 1882)" fill="#fff" stroke="#707070" stroke-width="1"/>
    </clipPath>
  </defs>
  <g id="グループ_16" data-name="グループ 16" transform="translate(-301 -1882)" clip-path="url(#clip-path)">
    <g id="グループ_333" data-name="グループ 333" transform="translate(-699.304 1198.922)">
      <path id="パス_13768" data-name="パス 13768" d="M1090.071,762.647v17.57a4.59,4.59,0,0,1-4.614,4.59l-34.183-.205a4.59,4.59,0,0,1-4.559-4.59V762.668a6.86,6.86,0,0,1,6.853-6.86l29.635-.021A6.864,6.864,0,0,1,1090.071,762.647Z" transform="translate(-15.735 -37.64)" fill="#006b9b" opacity="0.3"/>
      <g id="グループ_332" data-name="グループ 332" transform="translate(1019.405 690.459)" opacity="0.8">
        <path id="パス_13769" data-name="パス 13769" d="M1036.376,828.887a1.163,1.163,0,1,1,0-2.326,1.762,1.762,0,1,0-1.538-.9,1.163,1.163,0,0,1-2.025,1.145,4.089,4.089,0,1,1,3.563,2.079Z" transform="translate(-1026.827 -765.504)" fill="#231815"/>
        <path id="パス_13770" data-name="パス 13770" d="M1123.632,828.887a1.163,1.163,0,1,1,0-2.326,1.763,1.763,0,1,0-1.758-1.761,1.743,1.743,0,0,0,.348,1.051,1.163,1.163,0,0,1-1.865,1.391,4.087,4.087,0,1,1,3.274,1.645Z" transform="translate(-1077.104 -765.504)" fill="#231815"/>
        <path id="パス_13771" data-name="パス 13771" d="M1082.133,730.1a1.163,1.163,0,0,1-1.163-1.163v-2.287h-12.678v1.106h10.8a1.163,1.163,0,1,1,0,2.326h-11.964a1.163,1.163,0,0,1-1.163-1.163v-3.432a1.163,1.163,0,0,1,1.163-1.163h15a1.163,1.163,0,0,1,1.163,1.163v3.45A1.163,1.163,0,0,1,1082.133,730.1Z" transform="translate(-1046.232 -709.971)" fill="#231815"/>
        <g id="グループ_331" data-name="グループ 331" transform="translate(6.913 69.338)">
          <path id="パス_13772" data-name="パス 13772" d="M1036.88,865.145a1.163,1.163,0,0,1-.675-2.111l12.327-8.762a1.163,1.163,0,0,1,1.348,1.9l-12.327,8.763A1.158,1.158,0,0,1,1036.88,865.145Z" transform="translate(-1035.715 -854.056)" fill="#231815"/>
          <path id="パス_13773" data-name="パス 13773" d="M1116.02,865.145a1.158,1.158,0,0,1-.673-.215l-12.327-8.763a1.163,1.163,0,0,1,1.348-1.9l12.327,8.762a1.163,1.163,0,0,1-.675,2.111Z" transform="translate(-1074.212 -854.056)" fill="#231815"/>
        </g>
        <path id="パス_13774" data-name="パス 13774" d="M1078.315,797.057h-36.263a1.163,1.163,0,1,1,0-2.326h36.263a1.163,1.163,0,1,1,0,2.326Z" transform="translate(-1031.783 -750.537)" fill="#231815"/>
        <path id="パス_13775" data-name="パス 13775" d="M1046.345,775.812c-12.055,0-23.677-.071-24.28-.216a3.131,3.131,0,0,1-2.657-3l0-7.2a1.683,1.683,0,0,1,.037-.344,3.322,3.322,0,0,1-.03-.422V724.788a7.107,7.107,0,0,1,3.965-6.7,23.032,23.032,0,0,1,7.141-1.934,112.526,112.526,0,0,1,17.547-1.433,92.98,92.98,0,0,1,16.906,1.2c4.47.827,11.226,2.076,11.226,8.845l0,39.844a3.666,3.666,0,0,1-.031.448,1.526,1.526,0,0,1,.034.317v7.215a3.15,3.15,0,0,1-2.622,2.985C1072.976,775.729,1059.406,775.812,1046.345,775.812Zm-23.777-2.488c2.075.2,47.626.181,50.481-.022.334-.1.827-.32.827-.718v-7.107a1.771,1.771,0,0,1-.038-.175,1.171,1.171,0,0,1-.006-.325l.014-.112a2.3,2.3,0,0,0,.026-.261s0-39.841,0-39.844c0-4.478-4.041-5.581-9.323-6.558a90.9,90.9,0,0,0-16.482-1.16,110.165,110.165,0,0,0-17.182,1.4c-5.354.848-9.144,1.8-9.144,6.341v39.841a2,2,0,0,0,.024.219l.015.11a1.158,1.158,0,0,1-.008.354c-.01.058-.023.113-.037.168l0,7.117C1021.733,773.044,1022.285,773.249,1022.568,773.324Zm51.33-7.768h0Zm-9-8.265h-.032l-34.184-.205a5.768,5.768,0,0,1-5.715-5.753V733.989a8.034,8.034,0,0,1,8.015-8.023l29.636-.021h.007a8.035,8.035,0,0,1,8.024,8.022v17.571a5.754,5.754,0,0,1-5.751,5.753Zm-2.273-29.02h-.005l-29.635.021a5.7,5.7,0,0,0-5.691,5.7v17.344a3.436,3.436,0,0,0,3.4,3.427l34.182.205h.019a3.427,3.427,0,0,0,3.425-3.427v-17.57A5.707,5.707,0,0,0,1062.623,728.27Z" transform="translate(-1019.405 -704.436)" fill="#231815"/>
        <path id="パス_13776" data-name="パス 13776" d="M1080.227,699.868a1.163,1.163,0,0,1-.787-2.02l1.925-1.768-3.135-2.879-3.135,2.879,1.885,1.732a1.163,1.163,0,1,1-1.573,1.713l-2.818-2.588a1.163,1.163,0,0,1,0-1.713l4.854-4.458a1.164,1.164,0,0,1,1.574,0l4.854,4.458a1.164,1.164,0,0,1,0,1.713l-2.858,2.624A1.159,1.159,0,0,1,1080.227,699.868Z" transform="translate(-1049.831 -690.459)" fill="#231815"/>
      </g>
    </g>
  </g>
</svg>
