<svg xmlns="http://www.w3.org/2000/svg" xmlns:xlink="http://www.w3.org/1999/xlink" width="95" height="95" viewBox="0 0 95 95">
  <defs>
    <clipPath id="clip-path">
      <rect id="長方形_207" data-name="長方形 207" width="95" height="95" transform="translate(301 1986)" fill="#fff" stroke="#707070" stroke-width="1"/>
    </clipPath>
  </defs>
  <g id="マスクグループ_12" data-name="マスクグループ 12" transform="translate(-301 -1986)" clip-path="url(#clip-path)">
    <g id="グループ_298" data-name="グループ 298" transform="translate(-1481.322 1899.111)">
      <path id="パス_13683" data-name="パス 13683" d="M1821.164,170.144a1.871,1.871,0,0,1-1.067-.323,2.327,2.327,0,0,1-1.05-1.653,2.4,2.4,0,0,1,.645-1.887l7.177-8.311,3.014-8.024,5.672-17.3-5.775,2.272a2.743,2.743,0,0,1-1.634.124l-5.743-1.358-.023-.007c-1.466-.437-2.091-1.2-2.027-2.469l0-.072.016-.071a2.136,2.136,0,0,1,.907-1.424,2.106,2.106,0,0,1,1.112-.28,4.229,4.229,0,0,1,1.056.15l4.843,1.143a3.181,3.181,0,0,0,.687.075,3.137,3.137,0,0,0,.948-.146l6.051-1.92a4.034,4.034,0,0,1,1.2-.182,3.978,3.978,0,0,1,.851.092l.041.009,4.81,1.57a4.254,4.254,0,0,1,1.784,1.143l5.088,5.539,4.294-4.253a2.683,2.683,0,0,1,1.854-.968l.072,0a2.131,2.131,0,0,1,1.471.756l.05.053.041.061c.69,1.046.54,2.04-.474,3.128l-5.593,5.43a2.833,2.833,0,0,1-3.631.258l-.063-.046-4.2-4.413-.036.06-.1.088c-.359.871-3.39,8.364-4.069,10.62l-.022.076,8.354,2.387a2.735,2.735,0,0,1,1.929,3.229l-3.158,11.988a2.413,2.413,0,0,1-1.175,1.506,2.45,2.45,0,0,1-1.177.305,2.434,2.434,0,0,1-2.351-3.05l2.625-9.982-8.2-2.16-5.626,9.249-6.822,7.578A3.959,3.959,0,0,1,1821.164,170.144Z" transform="translate(-17.575 -18.158)" fill="#006b9b" opacity="0.3"/>
      <path id="パス_13684" data-name="パス 13684" d="M1872.142,115.338a4.259,4.259,0,0,1-2.491-.811,4.728,4.728,0,0,1-1.21-6.333,4.22,4.22,0,0,1,2.778-1.89,4.058,4.058,0,0,1,.78-.072,4.5,4.5,0,0,1,4.347,3.737,4.655,4.655,0,0,1-.644,3.4,4.207,4.207,0,0,1-3.56,1.965Z" transform="translate(-45.938 -5.197)" fill="#006b9b" opacity="0.3"/>
      <g id="グループ_297" data-name="グループ 297" transform="translate(1788.868 97.313)" opacity="0.8">
        <path id="パス_13685" data-name="パス 13685" d="M1870.362,149.023a1.229,1.229,0,0,0-1.043-.341l-11.225,1.822a1.033,1.033,0,0,0-.829.715,1.214,1.214,0,0,0,.344,1.23l2.534,2.529a.769.769,0,1,0,1.087-1.088l-2.014-2.01,9.987-1.621-1.022,10.19-3.8-3.755a.78.78,0,0,0-.551-.222.77.77,0,0,0-.544.237l-31.616,33.009L1817.9,175.956a.768.768,0,0,0-1.087,0l-27.724,27.724a.769.769,0,1,0,1.087,1.087l27.18-27.181,13.773,13.773a.745.745,0,0,0,.552.225.771.771,0,0,0,.547-.237l31.619-33.013,3.839,3.79a1.206,1.206,0,0,0,1.252.3,1.036,1.036,0,0,0,.672-.878l1.153-11.488A1.268,1.268,0,0,0,1870.362,149.023Z" transform="translate(-1788.868 -127.234)" fill="#080808"/>
        <path id="パス_13686" data-name="パス 13686" d="M1853.039,123.819c-.021-.029-.046-.058-.071-.088a2.835,2.835,0,0,0-2.041-1.035,3.356,3.356,0,0,0-2.421,1.173l-3.773,3.735-4.591-5a4.939,4.939,0,0,0-2.087-1.344l-4.8-1.565c-.021,0-.042-.013-.067-.017a4.685,4.685,0,0,0-2.458.1l-6.052,1.916a2.429,2.429,0,0,1-1.269.058l-4.837-1.144a3.4,3.4,0,0,0-2.7.221,2.83,2.83,0,0,0-1.235,1.937.893.893,0,0,0-.017.109c-.109,1.661.726,2.729,2.546,3.268.012,0,.029,0,.042.008l5.743,1.361a3.455,3.455,0,0,0,2.053-.154l4.378-1.719-5.2,15.88-2.968,7.884-7.087,8.205a3.084,3.084,0,0,0-.81,2.433,3.028,3.028,0,0,0,1.352,2.149,2.533,2.533,0,0,0,1.452.455,4.523,4.523,0,0,0,3.118-1.657l6.811-7.575a.555.555,0,0,0,.083-.113l5.355-8.794,7.008,1.845-2.446,9.3a3.137,3.137,0,0,0,2.087,3.79,3.269,3.269,0,0,0,.951.146,3.146,3.146,0,0,0,3.026-2.337l3.155-11.982a3.45,3.45,0,0,0-2.413-4.094L1835.235,139l3.5-9.14,3.481,3.656a.833.833,0,0,0,.092.079,3.529,3.529,0,0,0,4.608-.263l5.589-5.43C1853.778,126.544,1853.957,125.171,1853.039,123.819Zm-1.632,3.009-5.563,5.4a2,2,0,0,1-2.562.179l-4.207-4.42a.77.77,0,0,0-1.085-.025.8.8,0,0,0-.138.179.725.725,0,0,0-.221.3c-.142.342-3.381,8.314-4.1,10.709a.915.915,0,0,0-.059.146.77.77,0,0,0,.53.952l8.43,2.408a1.907,1.907,0,0,1,1.344,2.241l-3.151,11.961a1.6,1.6,0,0,1-3.089-.814L1840.176,146a.77.77,0,0,0-.551-.939l-10.818-2.851a.77.77,0,1,0-.388,1.49l1.511.4-5.075,8.343-6.77,7.521c-.555.622-1.719,1.523-2.558.956a1.486,1.486,0,0,1-.689-1.06,1.565,1.565,0,0,1,.434-1.227l7.191-8.326a.8.8,0,0,0,.138-.23l3.026-8.047,5.726-17.466a.77.77,0,0,0-.2-.8.761.761,0,0,0-.809-.154l-5.9,2.316a1.906,1.906,0,0,1-1.139.088l-5.718-1.352c-1.231-.367-1.469-.881-1.431-1.628a1.347,1.347,0,0,1,.53-.9,2.132,2.132,0,0,1,1.519-.033l4.862,1.148a3.993,3.993,0,0,0,2.079-.088l6.052-1.92a3.183,3.183,0,0,1,1.619-.071l4.771,1.557a3.413,3.413,0,0,1,1.431.918l5.129,5.584a.791.791,0,0,0,.551.25.728.728,0,0,0,.559-.225l4.341-4.3a2,2,0,0,1,1.3-.726,1.351,1.351,0,0,1,.9.5C1852.208,125.354,1852.259,125.914,1851.407,126.828Z" transform="translate(-1803.098 -110.277)" fill="#080808"/>
        <path id="パス_13687" data-name="パス 13687" d="M1872,101.623a5.164,5.164,0,0,0-5.947-4.224,4.92,4.92,0,0,0-3.234,2.2,5.415,5.415,0,0,0,1.386,7.287,4.95,4.95,0,0,0,2.9.943,4.926,4.926,0,0,0,4.153-2.287A5.342,5.342,0,0,0,1872,101.623Zm-2.037,3.084a3.379,3.379,0,0,1-4.862.927,3.892,3.892,0,0,1-.993-5.2,3.393,3.393,0,0,1,2.229-1.519,3.21,3.21,0,0,1,.626-.058,3.677,3.677,0,0,1,3.527,3.059A3.823,3.823,0,0,1,1869.961,104.707Z" transform="translate(-1831.459 -97.313)" fill="#080808"/>
      </g>
    </g>
  </g>
</svg>
