<svg xmlns="http://www.w3.org/2000/svg" width="71.326" height="95.068" viewBox="0 0 71.326 95.068">
  <g id="グループ_265" data-name="グループ 265" transform="translate(-1863.537 -813.325)">
    <path id="パス_13623" data-name="パス 13623" d="M1906.108,823.595c-2.12-1.122-9.427-4.879-14.255-1.966-7.718,4.657-4.959,23.862-4.428,27.561.013.088.031.206.054.365,1.183,7.851,4.186,11.549,4.9,12.39a21.324,21.324,0,0,0,9.623,6.384,21.716,21.716,0,0,0,7.046-3.3c7.249-5.19,8.909-13.432,9.693-17.33,1.128-5.6,2.906-14.429-2.568-19.964C1912.841,824.369,1908.332,823.738,1906.108,823.595Z" fill="#006b9b" opacity="0.3"/>
    <path id="パス_13624" data-name="パス 13624" d="M1869.377,908.393c-.451-2.153-3.129-16.036,5.865-27.35,1.291-1.624,8.213-10.33,17.376-10.831,1.407-.077,2,.087,9.377.2,6.943.1,7.852-.021,9.254.062,7.047.415,15.149,5.368,19.734,12.878,6.761,11.073,2.744,22.573,2.209,24.024Z" fill="#006b9b" opacity="0.3"/>
    <path id="パス_13609" data-name="パス 13609" d="M1882.838,850.664c2.413,8.478,9.171,13.675,14.331,13.675,5.873,0,12.171-6.076,14.338-13.7a5.28,5.28,0,0,0,3.715-2.119c1.981-2.634,1.254-5.889.645-7.594a3.989,3.989,0,0,0-2.4-2.417c.55-3.247,1.226-7.482,1.431-9.4a13.874,13.874,0,0,0-1.754-8.484,8.621,8.621,0,0,0-6.814-4.234,1.04,1.04,0,1,0-.258,2.064,6.561,6.561,0,0,1,5.271,3.21,11.81,11.81,0,0,1,1.488,7.223c-.2,1.9-.869,6.045-1.405,9.215h-.193a1.035,1.035,0,0,0-.16,2.05c-.193,1.1-.335,1.87-.375,2.036a1.04,1.04,0,0,0,2.014.52c.05-.194.2-.971.389-2.069a1.916,1.916,0,0,1,.81.989c.469,1.312,1.047,3.79-.348,5.645a3.239,3.239,0,0,1-2.791,1.316,1.039,1.039,0,0,0-1.079.791c-1.944,7.954-8.013,12.878-12.521,12.878-4.6,0-10.763-5.293-12.591-13.171a1.039,1.039,0,0,0-1.744-.5,3.221,3.221,0,0,1-2.283-1.309c-1.395-1.855-.817-4.333-.348-5.645a1.9,1.9,0,0,1,1-1.091c.236,1.18.412,2.026.431,2.115a1.04,1.04,0,0,0,1.016.827,1.085,1.085,0,0,0,.213-.022,1.039,1.039,0,0,0,.806-1.229h0c-.012-.057-1.19-5.713-1.627-8.663a19.417,19.417,0,0,1,.281-8.245c1.753-5.445,5.378-8.89,10.206-9.7,2.142-.361,6.131-.592,8.749,1.9a1.04,1.04,0,0,0,1.465-1.477l-.032-.03c-2.427-2.3-6.167-3.172-10.526-2.44-5.552.931-9.869,4.982-11.842,11.113-1.025,3.183-.665,7.123-.358,9.186.188,1.275.5,3,.809,4.59a4.045,4.045,0,0,0-2.551,2.47c-.609,1.705-1.336,4.96.645,7.594A5.272,5.272,0,0,0,1882.838,850.664Z" fill="#080808" opacity="0.8"/>
    <path id="パス_13610" data-name="パス 13610" d="M1930.431,896.989c.031-7.951.068-17.846-5.378-23.476-3.457-3.51-7.541-5.312-11.492-7.055-1.86-.821-3.783-1.669-5.638-2.691a1.04,1.04,0,0,0-1.411.414,1.024,1.024,0,0,0-.089.22l-1.9,6.893a.981.981,0,0,0-.253.111c-1.461.919-4.247,1.49-7.272,1.49a15.917,15.917,0,0,1-7.007-1.335,1,1,0,0,0-.182-.076l-2.017-7.342a1.039,1.039,0,0,0-1.28-.724,1,1,0,0,0-.22.089c-1.8.994-3.7,1.851-5.528,2.681-4.1,1.854-8.329,3.772-11.837,7.333-5.439,5.623-5.4,15.518-5.371,23.469.006,1.512.011,2.941-.019,4.269a1.04,1.04,0,0,0,1.013,1.064h.027a1.04,1.04,0,0,0,1.039-1.016c.032-1.357.026-2.8.02-4.326-.029-7.574-.065-17,4.78-22.008,3.23-3.279,7.1-5.034,11.206-6.891,1.485-.672,3.011-1.363,4.514-2.137l6.052,22.024a1.04,1.04,0,1,0,2.019-.5c0-.017-.009-.034-.014-.05l-3.692-13.393a20.928,20.928,0,0,0,6.489.945,20.244,20.244,0,0,0,6.8-1.051l-3.622,13.149a1.04,1.04,0,0,0,2.005.552l5.9-21.422c1.557.8,3.12,1.487,4.643,2.159,3.946,1.74,7.672,3.385,10.843,6.6,4.852,5.014,4.816,14.441,4.787,22.015-.006,1.527-.011,2.969.02,4.326a1.039,1.039,0,0,0,1.039,1.016h.025a1.04,1.04,0,0,0,1.015-1.064C1930.416,899.925,1930.422,898.5,1930.431,896.989Z" fill="#080808" opacity="0.8"/>
    <path id="パス_13611" data-name="パス 13611" d="M1885.357,829.43a1.006,1.006,0,0,0-1,1,1.022,1.022,0,0,0,1,1c6.329.717,13.745-.784,18.389-5.438a11.7,11.7,0,0,0,4.971,4.9c1.13.617,2.141-1.109,1.01-1.727a8.939,8.939,0,0,1-4.66-5.312,1.007,1.007,0,0,0-1.671-.441C1899.181,828.621,1891.728,830.153,1885.357,829.43Z" fill="#080808" opacity="0.8"/>
    <path id="パス_13612" data-name="パス 13612" d="M1893.32,826.39c1.131-.615.123-2.341-1.01-1.727a11.312,11.312,0,0,1-7.407,1.1,1.026,1.026,0,0,0-1.23.7,1.009,1.009,0,0,0,.7,1.23A13.5,13.5,0,0,0,1893.32,826.39Z" fill="#080808" opacity="0.8"/>
    <path id="パス_13613" data-name="パス 13613" d="M1904.043,849.265c-.1.051-.2.106-.3.158a2.394,2.394,0,0,1-.349.17.872.872,0,0,1-.8-.188c-.2-.134-.387-.276-.577-.419-.306-.228-.621-.464-.971-.679a3.4,3.4,0,0,0-3.845.1,3.434,3.434,0,0,0-4.017,0c-.312.205-.6.427-.878.641l-.176.136c-.841.644-1.191.477-1.562.191a1.04,1.04,0,0,0-1.6,1.205,5.129,5.129,0,0,0,3.523,3.484c1.564.363,3.3.54,4.714-.585a4.16,4.16,0,0,0,2.665.88,8.7,8.7,0,0,0,2.266-.358,5.193,5.193,0,0,0,3.332-3.417,1.04,1.04,0,0,0-1.427-1.323ZM1901.586,852c-1.879.517-2.809.352-3.551-.634a1.038,1.038,0,0,0-.831-.414h-.005a1.04,1.04,0,0,0-.831.422c-.686.929-1.544,1.1-3.405.668a2.194,2.194,0,0,1-.941-.466,4.343,4.343,0,0,0,1.378-.739l.182-.14c.258-.2.5-.388.749-.55a1.407,1.407,0,0,1,1.848.08c.072.055.141.115.216.179l.134.114a1.039,1.039,0,0,0,1.315.019l.17-.137c.1-.08.2-.163.3-.236a1.34,1.34,0,0,1,1.645-.089c.271.167.536.366.819.576.213.159.428.318.648.469a3.425,3.425,0,0,0,.966.467A2.179,2.179,0,0,1,1901.586,852Z" fill="#080808" opacity="0.8"/>
  </g>
</svg>
