<svg xmlns="http://www.w3.org/2000/svg" width="219.978" height="356.116" viewBox="0 0 219.978 356.116">
  <g id="グループ_244" data-name="グループ 244" transform="translate(-1243.322 -194.898)" opacity="0.151">
    <g id="グループ_243" data-name="グループ 243" transform="translate(1243.322 194.898)">
      <path id="パス_13580" data-name="パス 13580" d="M1371.159,194.9h7.47c3.214,4.258,5.772,9.173,14.113,8.3,3.209,3.432,8.1,5.178,12.451,7.472,2.94,1.452,2.041-.554,4.98-.831-.938,5.751-1.375,12.023,1.661,15.773,3.07,1.355,8.684.168,10.79,2.49-1.754,9.17.253,17.655-1.659,25.731,1.15,1.894,5.778.31,8.3.833,1.153,1.06.508,3.919,1.659,4.979,2.876-1.276,1.806-6.5,5.813-6.639,3.474,2.61,3.869,8.3,9.131,9.131,4.505,5.479-2.142,11.622-1.661,16.6.532,5.528,5.593,7.428,9.131,11.621,1.259,6.072-.176,10.472-.831,16.6,1.877,5.04,7.148,6.689,8.3,12.451-2.421,3.943-7.494,5.237-10.792,8.3.182,3.14,2.61,4.033,3.32,6.643-2.528,8.263-2.289,19.292-9.131,23.242,3.474,5.641.568,13.469-1.659,18.262,1.694,3.838,4.816,6.251,9.131,7.472.819,4.333.234,7.363-.831,11.62,1.832,5.641,9.964,4.978,12.452,9.961v7.471c-2.1,9.425-7.283,21.148-3.322,31.544-2.267,2.993-5.2,5.309-7.472,8.3-1.644,7.616.474,12.65,0,18.261a29.782,29.782,0,0,1-7.469,16.6c-1.446,1.551-4.478,1.671-5.813,3.322-3.571,4.416-2.566,9.215-3.318,16.6-4.726,1.917-8.13,5.151-14.113,5.811-3.486,3.429-5.905,7.929-14.111,6.641-6.715,7-17.492,3.9-27.393,1.659-1.887-2.816-3.828-5.58-7.471-6.639-3.626-1.134-1.767,3.214-4.982,2.49-2.342.13-2.081-2.348-3.32-3.32-3.529,3.205-10.241,1.257-9.131-4.98a15.13,15.13,0,0,0-8.3,6.641c1.763,4.324,7.4,4.778,12.452,5.809-1.018,4.519-7.368,3.7-6.642,9.962-2.537-.6-3.025.848-4.979.831-.334,3.93,1.481,5.712.828,9.96-4.366,5.042-14.229,4.587-19.09,9.132h-5.813c-3.414-5.119.45-8.486,3.32-11.621-.22-3.377-5.423-1.773-7.47-3.322-.739-3.03,1.465-4.419,0-5.809-4.516-.919-4.377,2.819-8.3,2.489-1.354-5.445-5.659-7.434-10.792-4.981-1.562-3.695-1.865-8.65-1.659-14.111-6.582.059-8.2,5.079-13.282,6.641-3.429-1.827-4.378-6.137-8.3-7.471.375-5.886.58-7.036-1.661-10.791,1.423-4.112,4.192-6.877,3.32-13.281-6.678-1.711-6.979-8.006-8.3-13.281-2.2-.433-5.011,1.595-7.472-1.661-.677-3.17,1.768-3.214,3.32-4.149-.265-1.951-2.568-1.859-3.32-3.322-.387-1.77,1.185-1.58,2.489-1.661-3.147-2.936-2.354-9.818-6.638-11.619,1.738-2.415,5.006-3.3,7.47-4.982-3.541-11.991,4.918-22.2,3.32-32.376-.4-2.61,1.184-3.243,1.661-4.978-2.814-4.02-3.088-6.7-4.15-14.113-.519-3.611-3.156-6.722-3.322-9.131a45.875,45.875,0,0,1,1.659-9.961c1.882-6.235,6.607-12.221,7.472-18.264-1.921-.509-4.1,5.84-9.131,4.982-2.129-5.34-4.276-10.665-6.641-15.772-6.546-2.306-8.673-9.038-14.111-12.451v-5.812c2.813-3.828,8.937-4.344,9.962-9.961,2.537.6,2.441-1.432,4.979-.83,1.653-2.775-.56-9.416,3.322-9.961,3.278-2.248,5.7,2.259,10.79.83-1.15,7.872,7.055,5.412,11.621,4.15-.081-3.4-.161-6.8.83-9.131,1.1-2.218,5.552-1.091,7.472-2.489,1-4.044-3.839-2.25-2.489-6.642.606-8.248,4.2-13.506,7.47-19.093-.176-4.324.425-7.874,3.32-9.13,3.961,4.06,7.147,8.9,11.621,12.451,3.1-.779,4.612-3.136,9.131-2.491,1.127-6.9,6.767-9.284,9.131-14.943,5.2-.767,7.857,1,11.623,1.661,2.4-3.6,5.416-4.948,9.96-2.489,2.605-4.314.435-13.4,3.32-17.434,5.96.748,12.717,3.967,18.262,2.493,5.289-11.683-6.36-20.349-4.979-30.716-2.227-2.382-4.3-2.879-4.983-5.809C1361.5,201.245,1370.025,199.67,1371.159,194.9Zm-.831,79.689c1.181,5.887-2.372,7.037-3.318,10.792,3.015,3.737,1.863,12.783-4.152,12.452-.589-3.078,1.418-3.564.828-6.642-1.81.442-5.367,2.01-5.809-.829-1.517-4.109,4-8.764.83-9.131-7.1.654-3.655,11.842-9.962,13.281-4.4.527-3.069-4.678-5.811-5.812-7.748,4.427-10.43,13.92-9.131,27.394,4.507,8.775,9.432,17.132,9.962,29.883-6.488.708-7.462,6.928-16.6,4.982-2.1,2.6-1.189,8.218-2.49,11.621-1.637,1.261-7.753,1.064-10.79,3.32-3.34,2.479-3.707,9.585-6.642,14.942-3.817,6.968-13.027,9.762-13.282,15.773-.236,5.554,6.58,8.789,6.642,14.113-.568,1.646-4.944-.52-4.149,2.489,2.864,16.92-11.242,22.483-14.944,30.713-1.758,3.91-.921,8.7-2.49,13.283-.728,2.124-3.966,3.433-2.489,6.642,1.713,2.158,3.695,4.051,7.469,4.149,1.124,2.474,1.652,5.542,4.152,6.641.818-6.7,2.752-12.133,0-18.263,4.295-5.664,9.164-10.758,12.451-17.432-3.077-5.954-1.738-16.4,3.32-19.092,1.989.5,3.787,1.194,6.642.83,2.523-2.179,1.2-8.2,5.811-8.3,3.095-.88,1.314,3.113,4.148,2.491,3.265-.336,3.548-3.649,6.642-4.149,2.9.7,4.421,2.773,8.3,2.489,1.9-3.8.024-8.129,0-12.452,1.373-4.715,7.568-4.606,9.96-8.3-3.408-1.3-8.617-.791-10.79-3.323,2.007-3.46,8.386-5.32,12.451-4.148,3.474-1.784,5.465-5.05,9.131-6.643,14.814,3.227,18.236-2.161,25.733-8.3,4.53-3.711,9.3-5.145,12.451-8.3,8.972-8.972,8.939-24.547,13.282-34.865-3.405-6.555-14.338-5.585-20.752-9.131-.437-10.63-7.41-14.726-9.131-24.072.833-1.657,3.67-1.31,3.32-4.15-3.886-3.861.038-15.535-4.982-18.262C1375.8,273.978,1374.154,275.371,1370.328,274.587Z" transform="translate(-1243.322 -194.898)" fill="#006b9b" fill-rule="evenodd"/>
      <path id="パス_13581" data-name="パス 13581" d="M1346.118,283.967c.214,2.706-.988,3.993-3.324,4.149a4.659,4.659,0,0,1-.828-3.322A5.4,5.4,0,0,1,1346.118,283.967Z" transform="translate(-1222.431 -176.051)" fill="#006b9b" fill-rule="evenodd"/>
    </g>
  </g>
</svg>
