<svg xmlns="http://www.w3.org/2000/svg" width="166.586" height="116.106" viewBox="0 0 166.586 116.106">
  <g id="グループ_263" data-name="グループ 263" transform="translate(-1654.271 -868.183)">
    <path id="パス_13621" data-name="パス 13621" d="M1665.8,984.289c19.417-12.237,30.15-25.4,36.426-35.516,5.437-8.76,18.03-32.136,30.656-35.388a39.517,39.517,0,0,1,7.563-1.06,41.353,41.353,0,0,1,15.107,2.875c11.814,4.844,20.533,23.864,26.8,34,6.37,10.3,17.525,23.254,38.5,34.438Z" fill="#006b9b" opacity="0.3"/>
    <g id="グループ_253" data-name="グループ 253" opacity="0.8">
      <path id="パス_13602" data-name="パス 13602" d="M1810.891,978.676c-1.944-.986-3.85-2.052-5.667-3.169a1.511,1.511,0,0,0-1.583,2.575h0c1.887,1.16,3.866,2.267,5.882,3.29a1.513,1.513,0,1,0,1.368-2.7Z" fill="#080808"/>
      <path id="パス_13603" data-name="パス 13603" d="M1800.9,972.646c-14.525-10.35-22.964-24.057-30.41-36.152-8.207-13.331-15.294-24.844-28.209-29.367-3.427-1.2-15.862-1.09-19.839.521-11.91,4.826-18.92,15.9-27.037,28.731-9.262,14.637-19.76,31.226-40.343,42.313a1.511,1.511,0,1,0,1.433,2.661h0c21.281-11.463,32-28.408,41.464-43.358,7.838-12.387,14.608-23.084,25.618-27.546a27.96,27.96,0,0,1,7.563-1.06,1.509,1.509,0,0,0,.463.427c2.684,1.585,4.121,3.19,4.27,4.769.307,3.246-4.482,7.466-9.552,11.934-7.766,6.842-17.43,15.357-17.253,26.878.136,8.855,5.97,17.936,17.835,27.762a1.511,1.511,0,1,0,1.928-2.328c-11.144-9.228-16.62-17.563-16.741-25.48-.155-10.127,8.549-17.8,16.229-24.563a61.677,61.677,0,0,0,8.29-8.2c-1.223,4.346-4.834,9-8.117,13.238a55.229,55.229,0,0,0-6.2,9.09,12,12,0,0,0-1.115,10.664c2.068,5.428,8.214,10.49,18.788,15.477,8.746,4.124,18.9,7.447,27.058,10.116,2.481.812,4.825,1.579,6.827,2.271a1.512,1.512,0,1,0,.988-2.857h0c-2.026-.7-4.381-1.472-6.875-2.288-8.079-2.644-18.133-5.934-26.708-9.978-9.7-4.573-15.5-9.222-17.253-13.819a9.014,9.014,0,0,1,.936-8.124c.021-.037.041-.075.059-.113a52.992,52.992,0,0,1,5.885-8.588c4.746-6.12,10.125-13.056,9.044-19.755a11.955,11.955,0,0,0-3.535-6.554,20.311,20.311,0,0,1,4.891.6c11.9,4.169,18.728,15.258,26.633,28.1,7.6,12.338,16.205,26.324,31.23,37.029a1.512,1.512,0,0,0,1.754-2.462Z" fill="#080808"/>
      <path id="パス_13604" data-name="パス 13604" d="M1732.212,904.523a1.512,1.512,0,0,0,1.512-1.512h0V872.348a1.512,1.512,0,1,0-3.023-.077c0,.026,0,.051,0,.077v30.664A1.512,1.512,0,0,0,1732.212,904.523Z" fill="#080808"/>
      <path id="パス_13605" data-name="パス 13605" d="M1751.151,873.91c4.854-2.66,8.066-4.142,11.514-.719v12.925c-4.559-2.717-9.153-.2-12.967,1.891-4.841,2.653-7.981,4.112-11.4.832a1.512,1.512,0,0,0-2.094,2.181,8.755,8.755,0,0,0,6.235,2.712c3.1,0,6.1-1.642,8.709-3.073,5.038-2.761,8.309-4.253,11.909-.307a1.511,1.511,0,0,0,2.628-1.019V872.585a1.51,1.51,0,0,0-.4-1.019c-5.385-5.9-11.046-2.8-15.6-.307-5.037,2.761-8.308,4.253-11.909.307a1.511,1.511,0,0,0-2.233,2.037C1740.941,879.506,1746.6,876.4,1751.151,873.91Z" fill="#080808"/>
    </g>
  </g>
</svg>
