<svg xmlns="http://www.w3.org/2000/svg" xmlns:xlink="http://www.w3.org/1999/xlink" width="95" height="95" viewBox="0 0 95 95">
  <defs>
    <clipPath id="clip-path">
      <rect id="長方形_206" data-name="長方形 206" width="95" height="95" transform="translate(301 1882)" fill="#fff" stroke="#707070" stroke-width="1"/>
    </clipPath>
  </defs>
  <g id="マスクグループ_11" data-name="マスクグループ 11" transform="translate(-301 -1882)" clip-path="url(#clip-path)">
    <g id="グループ_296" data-name="グループ 296" transform="translate(-1273.057 1710.13)">
      <g id="グループ_295" data-name="グループ 295" transform="translate(1580.431 190.469)" opacity="0.8">
        <g id="グループ_283" data-name="グループ 283" transform="translate(19.604 12.44)">
          <g id="グループ_282" data-name="グループ 282">
            <g id="グループ_281" data-name="グループ 281">
              <path id="パス_13659" data-name="パス 13659" d="M1638.087,226.71h0l-16.666,16.666a3.625,3.625,0,0,0-.963,2.133,2.87,2.87,0,0,0,2.869,2.87,4.7,4.7,0,0,0,1.987-.87l-.368.368-.739.739a3.628,3.628,0,0,0-.964,2.135,2.869,2.869,0,0,0,4.894,2.032h0l1.723-1.79a3.624,3.624,0,0,0-.965,2.133,2.87,2.87,0,0,0,4.894,2.034v0l1.312-1.381a3.634,3.634,0,0,0-.962,2.134,2.87,2.87,0,0,0,4.894,2.033h0l27.392-27.391-13.574-13.93-4.643,4.645h-10.635" transform="translate(-1619.706 -215.554)" fill="#fff"/>
              <path id="パス_13660" data-name="パス 13660" d="M1636.305,258.531a3.627,3.627,0,0,1-3.6-3.179,5.413,5.413,0,0,0-7.3-1.981,3.627,3.627,0,0,1-3.622-3.622,3.523,3.523,0,0,1,.452-1.641,3.627,3.627,0,0,1-3.236-3.6,4.294,4.294,0,0,1,1.171-2.653l16.678-16.678,1.064,1.064-16.667,16.666a2.82,2.82,0,0,0-.742,1.6,2.119,2.119,0,0,0,2.116,2.117,3.918,3.918,0,0,0,1.545-.726l.974,1.141-1.108,1.108a2.824,2.824,0,0,0-.743,1.6,2.119,2.119,0,0,0,2.117,2.117,2.1,2.1,0,0,0,1.493-.617l1.71-1.778h0v0l1.086,1.042a2.828,2.828,0,0,0-.756,1.613,2.12,2.12,0,0,0,2.119,2.117,2.1,2.1,0,0,0,1.462-.586l1.325-1.394,0,0,1.09,1.038h0a2.838,2.838,0,0,0-.755,1.615,2.117,2.117,0,0,0,3.573,1.537l26.9-26.9-12.523-12.851-4.325,4.326h-10.946v-1.5h10.323l4.962-4.964,14.625,15.007-26.633,26.633h.009l-1.294,1.286A3.6,3.6,0,0,1,1636.305,258.531Z" transform="translate(-1619.002 -214.552)" fill="#080808"/>
            </g>
          </g>
        </g>
        <g id="グループ_284" data-name="グループ 284" transform="translate(48.139)">
          <path id="パス_13661" data-name="パス 13661" d="M1686.569,191.926l-10.709,11.012a.558.558,0,0,0,0,.79l18.068,18.068a.56.56,0,0,0,.789,0l5.125-5.4-16.822-16.821" transform="translate(-1674.944 -191.174)" fill="#fff"/>
          <path id="パス_13662" data-name="パス 13662" d="M1693.619,222.007a1.306,1.306,0,0,1-.927-.382l-18.068-18.068a1.312,1.312,0,0,1,0-1.853l10.7-11.005a.753.753,0,0,1,1.079,1.05l-10.58,10.88,17.791,17.791,4.473-4.711-16.3-16.3a.752.752,0,0,1,1.064-1.064l16.821,16.822.014,1.05-5.141,5.415A1.3,1.3,0,0,1,1693.619,222.007Z" transform="translate(-1674.241 -190.469)" fill="#080808"/>
        </g>
        <g id="グループ_285" data-name="グループ 285" transform="translate(5.815 13.898)">
          <path id="パス_13663" data-name="パス 13663" d="M1619.847,224.147h-7.222l-4.644-4.645-13.573,13.93,27.276,27.277h0a2.87,2.87,0,0,0,4.9-2.033,3.63,3.63,0,0,0-.964-2.135l2.582,2.651h0a2.87,2.87,0,0,0,4.894-2.033,3.622,3.622,0,0,0-.964-2.133l1.723,1.791h0a2.868,2.868,0,0,0,4.893-2.033,3.63,3.63,0,0,0-.964-2.134l-.739-.739-.369-.369a4.716,4.716,0,0,0,1.988.869,2.869,2.869,0,0,0,2.87-2.869,3.629,3.629,0,0,0-.963-2.134l-17.326-17.325,1.929-1.848Z" transform="translate(-1593.324 -218.403)" fill="#fff"/>
          <path id="パス_13664" data-name="パス 13664" d="M1641.285,248.513a4.373,4.373,0,0,0-1.19-2.68l-16.767-16.767,2.007-1.925-6.242-4.794h-7.163l-4.97-4.972-14.652,15.036,27.08,27.082h0l.737.735a3.643,3.643,0,0,0,6.145-1.88l.367.364a7.286,7.286,0,0,1,8.223-1.315,3.646,3.646,0,0,0,3.643-3.641,3.53,3.53,0,0,0-.446-1.624A3.662,3.662,0,0,0,1641.285,248.513Zm-3.642,2.1a3.853,3.853,0,0,1-1.534-.722l-.161-.117-.978,1.147,1.233,1.233a2.9,2.9,0,0,1,.752,1.6,2.1,2.1,0,0,1-3.55,1.513l-1.885-1.96-.959.92-.152.149.146.155a2.894,2.894,0,0,1,.749,1.6,2.1,2.1,0,0,1-3.543,1.52L1625,254.821l-1.108,1.072.145.154a2.913,2.913,0,0,1,.75,1.6,2.1,2.1,0,0,1-3.536,1.525L1594.479,232.4l12.494-12.824,4.318,4.318h7.278l4.4,3.379-1.848,1.772,17.867,17.868a2.91,2.91,0,0,1,.752,1.6A2.1,2.1,0,0,1,1637.643,250.609Z" transform="translate(-1592.308 -217.374)" fill="#080808"/>
        </g>
        <g id="グループ_286" data-name="グループ 286" transform="translate(30.801 44.739)">
          <path id="パス_13665" data-name="パス 13665" d="M1650.86,287.806a.551.551,0,0,1-.393-.164l-9.21-9.209a.558.558,0,1,1,.789-.789l9.21,9.211a.558.558,0,0,1-.4.951Z" transform="translate(-1640.879 -277.273)" fill="#231815"/>
          <path id="パス_13666" data-name="パス 13666" d="M1650.659,287.826a.765.765,0,0,1-.546-.228l-9.209-9.209a.775.775,0,0,1,0-1.093.794.794,0,0,1,1.093,0l9.21,9.212a.773.773,0,0,1-.547,1.318ZM1641.45,277.5a.342.342,0,0,0-.242.584l9.21,9.209a.338.338,0,0,0,.241.1.333.333,0,0,0,.242-.1.339.339,0,0,0,0-.482l-9.21-9.212A.34.34,0,0,0,1641.45,277.5Z" transform="translate(-1640.678 -277.079)" fill="#080808"/>
        </g>
        <g id="グループ_287" data-name="グループ 287" transform="translate(38.864 36.745)">
          <path id="パス_13667" data-name="パス 13667" d="M1668.3,274.161a.557.557,0,0,1-.395-.163l-11.042-11.042a.557.557,0,0,1,.787-.789L1668.7,273.21a.557.557,0,0,1-.394.951Z" transform="translate(-1656.487 -261.797)" fill="#231815"/>
          <path id="パス_13668" data-name="パス 13668" d="M1668.1,274.183a.77.77,0,0,1-.547-.226l-11.043-11.042a.774.774,0,0,1,0-1.093.788.788,0,0,1,1.092,0l11.043,11.041a.773.773,0,0,1-.546,1.319Zm-11.043-12.158a.344.344,0,0,0-.242.586l11.042,11.042a.352.352,0,0,0,.486,0,.342.342,0,0,0,0-.483L1657.3,262.127A.338.338,0,0,0,1657.058,262.025Z" transform="translate(-1656.286 -261.603)" fill="#080808"/>
        </g>
        <g id="グループ_288" data-name="グループ 288" transform="translate(36.288 42.267)">
          <path id="パス_13669" data-name="パス 13669" d="M1661.476,283.01a.554.554,0,0,1-.394-.163l-9.2-9.2a.557.557,0,0,1,.787-.789l9.2,9.2a.557.557,0,0,1-.395.952Z" transform="translate(-1651.501 -272.487)" fill="#231815"/>
          <path id="パス_13670" data-name="パス 13670" d="M1661.275,283.031a.772.772,0,0,1-.547-.227l-9.2-9.2a.771.771,0,0,1,0-1.093.791.791,0,0,1,1.091,0l9.2,9.2a.776.776,0,0,1,0,1.092A.768.768,0,0,1,1661.275,283.031Zm-9.2-10.316a.342.342,0,0,0-.242.585l9.2,9.2a.352.352,0,0,0,.484,0,.345.345,0,0,0,0-.484l-9.2-9.2A.339.339,0,0,0,1652.073,272.715Z" transform="translate(-1651.3 -272.293)" fill="#080808"/>
        </g>
        <g id="グループ_292" data-name="グループ 292" transform="translate(17.979 40.767)">
          <g id="グループ_291" data-name="グループ 291">
            <g id="グループ_290" data-name="グループ 290" transform="translate(0.557 0.559)">
              <g id="グループ_289" data-name="グループ 289">
                <path id="パス_13671" data-name="パス 13671" d="M1629.473,278.393a2.868,2.868,0,0,0-2.286-2.5,2.835,2.835,0,0,0-2.763,1.255s-1.89,1.845-1.97,2.877a2.638,2.638,0,0,0,4.342,2.215S1629.424,279.676,1629.473,278.393Z" transform="translate(-1619.599 -273.069)" fill="#fff"/>
                <path id="パス_13672" data-name="パス 13672" d="M1642.023,291.086a3.734,3.734,0,0,0-2.427,2.562,2.473,2.473,0,0,0,2.223,2.637,2.407,2.407,0,0,0,2.31-1.1,3.776,3.776,0,0,0,.757-1.219C1645.349,292.589,1643.449,290.783,1642.023,291.086Z" transform="translate(-1627.89 -280.421)" fill="#fff"/>
                <path id="パス_13673" data-name="パス 13673" d="M1636.649,287.609a2.559,2.559,0,0,0,.454-1.293,2.712,2.712,0,0,0-.832-2.158,2.833,2.833,0,0,0-1.724-.7,3.415,3.415,0,0,0-2.382,1.347,4.682,4.682,0,0,0-1.29,2.149,2.64,2.64,0,0,0,2.427,2.836,2.831,2.831,0,0,0,1.915-.623A10.335,10.335,0,0,0,1636.649,287.609Z" transform="translate(-1623.67 -276.748)" fill="#fff"/>
                <path id="パス_13674" data-name="パス 13674" d="M1622.573,272.928a2.6,2.6,0,0,0-2.9-2.443,3.848,3.848,0,0,0-2.731,2.6,2.639,2.639,0,0,0,2.429,2.835C1620.578,276.017,1622.514,274.1,1622.573,272.928Z" transform="translate(-1616.934 -270.47)" fill="#fff"/>
              </g>
            </g>
            <path id="パス_13675" data-name="パス 13675" d="M1633.487,281.5a3.456,3.456,0,0,0-2.612-1.48,2.214,2.214,0,0,0-.445.045c-.039.009-.073.02-.111.029a2.886,2.886,0,0,0,.085-.554,3.245,3.245,0,0,0-1.022-2.6,3.384,3.384,0,0,0-2.116-.839,3.153,3.153,0,0,0-.677.1,2.508,2.508,0,0,0,.257-.91,3.413,3.413,0,0,0-2.732-3.064,2.99,2.99,0,0,0-.6-.062,2.775,2.775,0,0,0-.911.155,2.7,2.7,0,0,0-.772-1.879,3.423,3.423,0,0,0-2.425-1.054,3.007,3.007,0,0,0-.32.018c-1.242.139-3.12,1.774-3.223,3.115a3.195,3.195,0,0,0,2.941,3.435c.041,0,.085.007.128.007h0c.025,0,.049,0,.074,0a2.5,2.5,0,0,0-.3.906,3.2,3.2,0,0,0,2.941,3.436c.083.007.166.009.251.009h0a3.171,3.171,0,0,0,1.163-.223.185.185,0,0,0,0,.024,3.2,3.2,0,0,0,2.94,3.437c.078.006.156.008.233.008h0a3.143,3.143,0,0,0,1.329-.307,3.02,3.02,0,0,0,2.693,3.114,2.794,2.794,0,0,0,.435.035,3.072,3.072,0,0,0,2.394-1.33l.052-.064a4.093,4.093,0,0,0,.8-1.329A2.431,2.431,0,0,0,1633.487,281.5Zm-14.551-6.655-.043,0a2.082,2.082,0,0,1-1.914-2.238,3.424,3.424,0,0,1,2.237-2.093,1.861,1.861,0,0,1,.195-.01,2.311,2.311,0,0,1,1.617.707,1.575,1.575,0,0,1,.468,1.165A3.738,3.738,0,0,1,1618.936,274.848Zm2.8,4.34a2.086,2.086,0,0,1-1.916-2.238,6.791,6.791,0,0,1,1.8-2.521l.036-.038a2.506,2.506,0,0,1,1.854-1.108,1.9,1.9,0,0,1,.372.038c.861.178,1.874,1.078,1.841,1.929-.028.727-1.471,2.455-2.495,3.459A2.066,2.066,0,0,1,1621.739,279.188Zm4.35,3.246a2.083,2.083,0,0,1-1.914-2.238c.022-.273.238-.809,1.148-1.82a2.841,2.841,0,0,1,1.993-1.162h.028a2.38,2.38,0,0,1,1.3.564,2.179,2.179,0,0,1,.642,1.712,2,2,0,0,1-.35,1,9.729,9.729,0,0,1-1.307,1.432A2.256,2.256,0,0,1,1626.089,282.434Zm6.793.888a3.054,3.054,0,0,1-.611.981l-.053.065a1.838,1.838,0,0,1-1.792.892,1.911,1.911,0,0,1-1.749-2.083c0-.445.478-.957.836-1.3a2.129,2.129,0,0,1,1.148-.717,1.02,1.02,0,0,1,.214-.022,2.349,2.349,0,0,1,1.708,1.019A1.349,1.349,0,0,1,1632.881,283.322Z" transform="translate(-1615.856 -269.389)" fill="#080808"/>
          </g>
        </g>
        <g id="グループ_293" data-name="グループ 293" transform="translate(23.908 17.404)">
          <path id="パス_13676" data-name="パス 13676" d="M1643.9,225.617h-7.025a4.51,4.51,0,0,0-2.349,1.058l-5.16,5.163c-1.687,1.687.725,3.022,2.506,3.022,2.388,0,4.246-1.857,5.838-3.8h4.786" transform="translate(-1628.037 -224.865)" fill="#fff"/>
          <path id="パス_13677" data-name="パス 13677" d="M1631.163,234.909c-1.4,0-3.168-.676-3.686-1.927a2.093,2.093,0,0,1,.648-2.38c.929-.927,5.161-5.162,5.161-5.162l.042-.039a5.12,5.12,0,0,1,2.839-1.24h7.025v1.5h-7.025a3.674,3.674,0,0,0-1.839.86c-.329.329-4.25,4.252-5.139,5.14-.444.444-.352.666-.322.739a2.8,2.8,0,0,0,2.3,1c2.083,0,3.756-1.7,5.256-3.528l.226-.276h5.142v1.5h-4.432C1635.744,233.031,1633.756,234.909,1631.163,234.909Z" transform="translate(-1627.333 -224.161)" fill="#080808"/>
        </g>
        <path id="パス_13678" data-name="パス 13678" d="M1661.512,240.629a.776.776,0,0,0-.88-.646,11.537,11.537,0,0,1-1.725.13,11.356,11.356,0,0,1-8.547-3.913h3.712a.772.772,0,1,0,0-1.545h-8.728a.772.772,0,0,0,0,1.545h3.109a.765.765,0,0,0,.118.241,12.869,12.869,0,0,0,12.295,5.069A.776.776,0,0,0,1661.512,240.629Z" transform="translate(-1611.759 -211.83)" fill="#080808"/>
        <g id="グループ_294" data-name="グループ 294" transform="translate(0 1.247)">
          <path id="パス_13679" data-name="パス 13679" d="M1595.5,194.34l10.709,11.012a.557.557,0,0,1,0,.789l-18.068,18.068a.56.56,0,0,1-.789,0l-5.2-6.038,16.63-15.873" transform="translate(-1581.585 -193.587)" fill="#fff"/>
          <path id="パス_13680" data-name="パス 13680" d="M1587.217,224.42a1.3,1.3,0,0,1-.924-.381l-.04-.043-5.2-6.038.051-1.036,16.63-15.873a.752.752,0,0,1,1.039,1.088l-16.113,15.38,4.571,5.307,17.783-17.783-10.58-10.881a.752.752,0,1,1,1.079-1.049l10.708,11.012a1.311,1.311,0,0,1-.007,1.846l-18.068,18.068A1.3,1.3,0,0,1,1587.217,224.42Z" transform="translate(-1581.051 -192.883)" fill="#080808"/>
        </g>
      </g>
      <path id="パス_13681" data-name="パス 13681" d="M1694.629,195.595l-9.839,10.441,19.227,19.1,10.1-10.1Z" transform="translate(-50.771 -2.478)" fill="#006b9b" opacity="0.3"/>
      <path id="パス_13682" data-name="パス 13682" d="M1599.255,197.79l10.875,10.875-19.008,19.008-11.355-11.355Z" transform="translate(0 -3.539)" fill="#006b9b" opacity="0.3"/>
    </g>
  </g>
</svg>
