<svg xmlns="http://www.w3.org/2000/svg" xmlns:xlink="http://www.w3.org/1999/xlink" width="95" height="95" viewBox="0 0 95 95">
  <defs>
    <clipPath id="clip-path">
      <rect id="長方形_204" data-name="長方形 204" width="95" height="95" transform="translate(301 1672)" fill="#fff" stroke="#707070" stroke-width="1"/>
    </clipPath>
  </defs>
  <g id="マスクグループ_9" data-name="マスクグループ 9" transform="translate(-301 -1672)" clip-path="url(#clip-path)">
    <g id="グループ_278" data-name="グループ 278" transform="translate(-1498.896 1134.104)">
      <path id="パス_13646" data-name="パス 13646" d="M1900.288,610.06A1.83,1.83,0,0,1,1898.7,612a8.913,8.913,0,0,1-1.008.166c-.219.027-.466.058-.73.1a1.557,1.557,0,0,0-1.326,1.541v1.46c0,1.411,0,2.821,0,4.232,0,3.52,0,7.157.009,10.735a1.9,1.9,0,0,1-1.061,1.894,2.161,2.161,0,0,1-.99.336c-.188,0-.752,0-1.993-1.5a1.534,1.534,0,0,0-.421-.359V613.723a.781.781,0,0,0-1.563,0V630.6a1.523,1.523,0,0,0-.4.336c-.067.077-.134.157-.2.233-.134.162-.26.309-.385.448-.663.721-1.093.807-1.361.807a2.629,2.629,0,0,1-1.3-.48c-.645-.4-.855-.981-.869-2.4-.023-2.831-.023-5.719-.018-8.509,0-1.138,0-2.28,0-3.417V613.83a1.559,1.559,0,0,0-1.339-1.545,6.287,6.287,0,0,1-2.759-.842c-.228-.18-.475-.448-.5-1.326-.1-4.138-.1-8.549,0-13.1.018-.972.354-1.653,1.917-1.836.363-.045.761-.049,1.182-.058a12.279,12.279,0,0,0,1.733-.108,2.371,2.371,0,0,1,.278-.022.658.658,0,0,1,.148.013,1.7,1.7,0,0,1,.3.641c.6,1.854,1.267,3.677,1.984,5.6q.443,1.2.909,2.472a1.562,1.562,0,0,0,2.938,0c.291-.811.578-1.6.851-2.365.77-2.141,1.5-4.165,2.261-6.144a.6.6,0,0,1,.09-.139c.434-.027.855-.041,1.254-.041a15.739,15.739,0,0,1,2.324.162,1.873,1.873,0,0,1,1.223.591,2.141,2.141,0,0,1,.412,1.392C1900.314,601.322,1900.314,605.657,1900.288,610.06Z" transform="translate(-40.574 -21.223)" fill="#006b9b" opacity="0.3"/>
      <path id="パス_13647" data-name="パス 13647" d="M1902.315,571.124a4.381,4.381,0,0,1-1.124,2.982,3.733,3.733,0,0,1-2.759,1.2h-.018a3.8,3.8,0,0,1-2.741-1.245,4.181,4.181,0,0,1-1.169-2.862,4.385,4.385,0,0,1,1.2-2.987,3.87,3.87,0,0,1,2.79-1.3h.031A4.1,4.1,0,0,1,1902.315,571.124Z" transform="translate(-48.356 -5.718)" fill="#006b9b" opacity="0.3"/>
      <g id="グループ_277" data-name="グループ 277" transform="translate(1806.93 556.555)" opacity="0.8">
        <path id="パス_13648" data-name="パス 13648" d="M1894.589,589.015a3.269,3.269,0,0,0-2.969-3.52,17.234,17.234,0,0,0-2.548-.175c-.564,0-1.128.022-1.688.058-.4.031-.931.654-1.111,1.115-1.048,2.709-2.006,5.45-3.126,8.54-1.052-2.893-2.047-5.428-2.875-8.021-.363-1.129-.878-1.733-1.93-1.733a3.484,3.484,0,0,0-.506.04c-.94.139-1.921.045-2.871.157-2.06.237-3.251,1.33-3.3,3.354-.094,4.389-.1,8.786,0,13.175.054,2.275,1.339,3.2,4.59,3.672v3.789c0,3.981-.018,7.963.018,11.939.009,1.438.188,2.83,1.608,3.708a4.044,4.044,0,0,0,2.123.712,3.4,3.4,0,0,0,2.512-1.312c.21-.228.412-.475.622-.721,1.16,1.411,2.136,2.073,3.193,2.073a3.6,3.6,0,0,0,1.747-.528,3.449,3.449,0,0,0,1.863-3.265c-.018-4.989,0-9.973,0-14.962v-1.46c.725-.108,1.321-.148,1.89-.291a3.371,3.371,0,0,0,2.759-3.444Q1894.629,595.462,1894.589,589.015Zm-1.558,12.893a1.83,1.83,0,0,1-1.585,1.939,8.907,8.907,0,0,1-1.008.166c-.219.027-.466.058-.73.1a1.557,1.557,0,0,0-1.326,1.541v1.46c0,1.411,0,2.821,0,4.232,0,3.52,0,7.156.009,10.735a1.9,1.9,0,0,1-1.062,1.894,2.161,2.161,0,0,1-.99.336c-.188,0-.752,0-1.993-1.5a1.529,1.529,0,0,0-.421-.358V605.571a.781.781,0,0,0-1.563,0v16.874a1.507,1.507,0,0,0-.4.336c-.067.076-.134.157-.2.233-.134.161-.26.309-.385.448-.663.721-1.093.806-1.361.806a2.628,2.628,0,0,1-1.3-.479c-.645-.4-.855-.981-.869-2.4-.022-2.83-.022-5.719-.018-8.509,0-1.137,0-2.279,0-3.417v-3.789a1.559,1.559,0,0,0-1.339-1.545,6.286,6.286,0,0,1-2.759-.842c-.229-.179-.475-.448-.5-1.326-.1-4.138-.1-8.549,0-13.1.018-.972.354-1.653,1.917-1.836.363-.045.761-.049,1.182-.058a12.275,12.275,0,0,0,1.733-.107,2.307,2.307,0,0,1,.278-.022.629.629,0,0,1,.148.013,1.7,1.7,0,0,1,.3.641c.6,1.854,1.267,3.677,1.984,5.6q.443,1.2.909,2.472a1.563,1.563,0,0,0,2.365.748,1.545,1.545,0,0,0,.573-.748c.291-.811.578-1.6.851-2.365.77-2.141,1.5-4.165,2.261-6.144a.585.585,0,0,1,.089-.139c.434-.027.855-.04,1.254-.04a15.739,15.739,0,0,1,2.324.161,1.877,1.877,0,0,1,1.223.591,2.144,2.144,0,0,1,.412,1.393C1893.057,593.171,1893.057,597.506,1893.03,601.908Z" transform="translate(-1842.636 -572.416)" fill="#080808"/>
        <path id="パス_13649" data-name="パス 13649" d="M1891.4,557.19h-.045a5.8,5.8,0,0,0-5.446,5.862,5.642,5.642,0,0,0,5.365,5.656h.022a5.49,5.49,0,0,0,5.338-5.741A5.621,5.621,0,0,0,1891.4,557.19Zm2.655,8.76a3.731,3.731,0,0,1-2.759,1.2h-.018a3.8,3.8,0,0,1-2.741-1.245,4.181,4.181,0,0,1-1.169-2.862,4.385,4.385,0,0,1,1.2-2.987,3.87,3.87,0,0,1,2.79-1.3h.031a4.1,4.1,0,0,1,3.793,4.214A4.381,4.381,0,0,1,1894.056,565.95Z" transform="translate(-1850.54 -556.906)" fill="#080808"/>
        <path id="パス_13650" data-name="パス 13650" d="M1959.25,589.012a3.271,3.271,0,0,0-2.97-3.519,17.55,17.55,0,0,0-2.548-.175c-.564,0-1.127.022-1.686.061-.4.027-.934.65-1.113,1.113-1.046,2.708-2.005,5.449-3.126,8.542-1.05-2.894-2.047-5.43-2.875-8.021-.362-1.13-.875-1.736-1.93-1.736a3.449,3.449,0,0,0-.5.04c-.944.141-1.921.046-2.871.156-2.061.241-3.253,1.333-3.3,3.356-.1,4.389-.106,8.785,0,13.174.054,2.278,1.34,3.2,4.593,3.672v3.79c0,3.98-.019,7.962.015,11.94.012,1.435.191,2.831,1.608,3.709a4.08,4.08,0,0,0,2.124.711,3.4,3.4,0,0,0,2.513-1.313c.212-.231.41-.475.619-.72,1.163,1.41,2.141,2.072,3.194,2.072a3.612,3.612,0,0,0,1.75-.531,3.443,3.443,0,0,0,1.862-3.264c-.017-4.987,0-9.974,0-14.961v-1.459c.724-.11,1.319-.147,1.888-.292a3.376,3.376,0,0,0,2.76-3.446Q1959.29,595.461,1959.25,589.012ZM1957.69,601.9a1.83,1.83,0,0,1-1.583,1.942,8.738,8.738,0,0,1-1.01.163c-.219.027-.465.059-.728.1a1.561,1.561,0,0,0-1.327,1.543v1.459q0,2.117,0,4.234c0,3.517-.005,7.154.006,10.732a1.9,1.9,0,0,1-1.061,1.895,2.179,2.179,0,0,1-.99.334c-.185,0-.749,0-1.989-1.5a1.56,1.56,0,0,0-.425-.357c0-.006,0-.013,0-.019V605.57a.78.78,0,1,0-1.561,0v16.855c0,.006,0,.012,0,.018a1.548,1.548,0,0,0-.405.335c-.068.078-.134.157-.2.236-.134.159-.26.309-.385.445-.662.722-1.094.806-1.363.806a2.644,2.644,0,0,1-1.3-.477c-.646-.4-.858-.982-.869-2.4-.024-2.833-.021-5.719-.017-8.51q0-1.709,0-3.418v-3.79a1.56,1.56,0,0,0-1.339-1.545,6.255,6.255,0,0,1-2.756-.842c-.23-.18-.477-.446-.5-1.323-.1-4.141-.1-8.549,0-13.1.021-.972.355-1.656,1.917-1.839.365-.042.762-.049,1.183-.055a12.828,12.828,0,0,0,1.737-.108,1.942,1.942,0,0,1,.275-.023.586.586,0,0,1,.148.014,1.734,1.734,0,0,1,.3.637c.594,1.858,1.269,3.677,1.983,5.6.3.8.6,1.624.911,2.475a1.56,1.56,0,0,0,1.467,1.029h0a1.561,1.561,0,0,0,1.467-1.029c.294-.811.578-1.6.853-2.366.769-2.141,1.5-4.164,2.26-6.142a.733.733,0,0,1,.091-.143c.433-.025.854-.037,1.253-.037a16.031,16.031,0,0,1,2.323.159,1.887,1.887,0,0,1,1.225.59,2.161,2.161,0,0,1,.41,1.394C1957.716,593.169,1957.716,597.5,1957.69,601.9Z" transform="translate(-1878.339 -572.414)" fill="#080808"/>
        <path id="パス_13651" data-name="パス 13651" d="M1960.992,562.91c-1.994-2.024-4.156-4.221-6.257-6.355-1.936,1.937-4.068,4.075-6.09,6.1l6.326,6.331C1956.911,567.029,1959.03,564.89,1960.992,562.91Zm-10.141-.257,1.766-1.769,2.109-2.113.34.344,3.732,3.791-3.831,3.866Z" transform="translate(-1885.18 -556.555)" fill="#080808"/>
        <path id="パス_13652" data-name="パス 13652" d="M1831.364,557.909h-13.349c2.247,3.89,4.389,7.6,6.675,11.563C1826.957,565.547,1829.114,561.808,1831.364,557.909Zm-10.646,1.56h7.944l-3.972,6.882-1.264-2.19Z" transform="translate(-1813.05 -557.303)" fill="#080808"/>
        <path id="パス_13653" data-name="パス 13653" d="M1826.955,585.493a17.563,17.563,0,0,0-2.548-.175c-.563,0-1.127.022-1.686.061-.4.027-.934.65-1.113,1.113-1.046,2.708-2.005,5.449-3.126,8.542-1.05-2.894-2.047-5.43-2.875-8.021-.362-1.13-.875-1.736-1.93-1.736a3.441,3.441,0,0,0-.5.04c-.943.141-1.921.046-2.872.156-2.061.241-3.253,1.333-3.3,3.356-.1,4.389-.106,8.785,0,13.174.054,2.278,1.34,3.2,4.592,3.672v3.79c0,3.98-.018,7.962.015,11.94.012,1.435.192,2.831,1.609,3.709a4.08,4.08,0,0,0,2.124.711,3.4,3.4,0,0,0,2.513-1.313c.212-.231.41-.475.619-.72,1.162,1.41,2.141,2.072,3.193,2.072a3.609,3.609,0,0,0,1.75-.531,3.442,3.442,0,0,0,1.862-3.264c-.017-4.987,0-9.974,0-14.961v-1.459c.725-.11,1.319-.147,1.888-.292a3.377,3.377,0,0,0,2.761-3.446q.038-6.453,0-12.9A3.272,3.272,0,0,0,1826.955,585.493Zm1.41,16.412a1.83,1.83,0,0,1-1.583,1.942,8.729,8.729,0,0,1-1.01.163c-.218.027-.465.059-.728.1a1.561,1.561,0,0,0-1.327,1.543v1.459q0,2.117,0,4.234c0,3.517-.006,7.154.006,10.732a1.9,1.9,0,0,1-1.06,1.895,2.182,2.182,0,0,1-.991.334c-.185,0-.749,0-1.989-1.5a1.557,1.557,0,0,0-.425-.357c0-.006,0-.013,0-.019V605.57a.78.78,0,1,0-1.561,0v16.855c0,.006,0,.012,0,.018a1.553,1.553,0,0,0-.406.335l-.2.236c-.134.159-.261.309-.386.445-.661.722-1.094.806-1.362.806a2.643,2.643,0,0,1-1.3-.477c-.646-.4-.858-.982-.87-2.4-.024-2.833-.021-5.719-.017-8.51q0-1.709,0-3.418v-3.79a1.56,1.56,0,0,0-1.339-1.545,6.255,6.255,0,0,1-2.756-.842c-.23-.18-.477-.446-.5-1.323-.1-4.141-.1-8.549,0-13.1.021-.972.355-1.656,1.916-1.839.365-.042.762-.049,1.183-.055a12.817,12.817,0,0,0,1.737-.108,1.942,1.942,0,0,1,.276-.023.592.592,0,0,1,.148.014,1.739,1.739,0,0,1,.3.637c.594,1.858,1.269,3.677,1.983,5.6.3.8.6,1.624.911,2.475a1.56,1.56,0,0,0,1.467,1.029h0a1.56,1.56,0,0,0,1.467-1.029c.294-.811.578-1.6.853-2.366.769-2.141,1.5-4.164,2.26-6.142a.761.761,0,0,1,.091-.143c.434-.025.854-.037,1.253-.037a16.04,16.04,0,0,1,2.323.159,1.885,1.885,0,0,1,1.224.59,2.161,2.161,0,0,1,.41,1.394C1828.391,593.169,1828.391,597.5,1828.365,601.9Z" transform="translate(-1806.93 -572.414)" fill="#080808"/>
      </g>
    </g>
  </g>
</svg>
