<svg xmlns="http://www.w3.org/2000/svg" width="124.007" height="121" viewBox="0 0 124.007 121">
  <g id="グループ_364" data-name="グループ 364" transform="translate(-455.109 -95.382)">
    <rect id="長方形_222" data-name="長方形 222" width="65.109" height="74.715" transform="translate(514.008 141.667)" fill="#006b9b" opacity="0.3"/>
    <g id="グループ_363" data-name="グループ 363" transform="translate(455.109 95.382)" opacity="0.8">
      <g id="グループ_350" data-name="グループ 350" transform="translate(18.551 13.89)">
        <path id="パス_13797" data-name="パス 13797" d="M506.867,119.752h-2.491a.565.565,0,0,0-.513.329l-3.463,7.556c-.944,2.013-1.807,4.025-2.793,6.2H497.4c-.986-2.177-1.848-4.189-2.751-6.2l-3.423-7.553a.565.565,0,0,0-.514-.332h-2.658a.565.565,0,0,0-.5.821l6.64,13.062a.565.565,0,0,1-.5.82h-4.962a.565.565,0,0,0-.564.565v1.005a.565.565,0,0,0,.564.565h6.263a.564.564,0,0,1,.564.565v1.868a.565.565,0,0,1-.564.565h-6.263a.565.565,0,0,0-.564.565V141.2a.565.565,0,0,0,.564.565h6.263a.565.565,0,0,1,.564.565v6.139a.565.565,0,0,0,.565.565h2.607a.565.565,0,0,0,.565-.565V142.33a.565.565,0,0,1,.565-.565H506.2a.565.565,0,0,0,.565-.565v-1.047a.565.565,0,0,0-.565-.565h-6.345a.565.565,0,0,1-.565-.565v-1.868a.565.565,0,0,1,.565-.565H506.2a.565.565,0,0,0,.565-.565V135.02a.565.565,0,0,0-.565-.565h-5.04a.565.565,0,0,1-.5-.823l6.711-13.057A.565.565,0,0,0,506.867,119.752Z" transform="translate(-487.198 -119.461)" fill="#080808"/>
        <path id="パス_13798" data-name="パス 13798" d="M498.517,149.117h-2.607a.856.856,0,0,1-.855-.856v-6.139a.274.274,0,0,0-.274-.274h-6.263a.856.856,0,0,1-.855-.856v-1.047a.857.857,0,0,1,.855-.856h6.263a.274.274,0,0,0,.274-.273v-1.868a.274.274,0,0,0-.274-.274h-6.263a.857.857,0,0,1-.855-.856v-1.005a.856.856,0,0,1,.855-.856h4.963a.274.274,0,0,0,.244-.4l-6.64-13.062a.856.856,0,0,1,.763-1.243H490.5a.859.859,0,0,1,.78.5l3.423,7.554c.406.9.8,1.808,1.208,2.727.446,1.013.9,2.045,1.381,3.115.316-.7.62-1.387.919-2.06.579-1.3,1.126-2.536,1.712-3.785l3.462-7.553a.859.859,0,0,1,.778-.5h2.491a.856.856,0,0,1,.762,1.247l-6.711,13.057a.274.274,0,0,0,.244.4h5.04a.857.857,0,0,1,.856.856v1.005a.857.857,0,0,1-.856.856h-6.345a.274.274,0,0,0-.274.274v1.868a.274.274,0,0,0,.274.273h6.345a.857.857,0,0,1,.856.856v1.047a.857.857,0,0,1-.856.856h-6.345a.274.274,0,0,0-.274.274v6.139A.857.857,0,0,1,498.517,149.117Zm-10-9.446a.274.274,0,0,0-.274.274v1.047a.274.274,0,0,0,.274.274h6.263a.857.857,0,0,1,.856.856v6.139a.274.274,0,0,0,.273.274h2.607a.274.274,0,0,0,.274-.274v-6.139a.857.857,0,0,1,.856-.856h6.345a.274.274,0,0,0,.274-.274v-1.047a.274.274,0,0,0-.274-.274h-6.345a.857.857,0,0,1-.856-.855v-1.868a.857.857,0,0,1,.856-.856h6.345a.274.274,0,0,0,.274-.274v-1.005a.274.274,0,0,0-.274-.274h-5.04a.856.856,0,0,1-.762-1.247l6.711-13.057a.274.274,0,0,0-.244-.4h-2.491a.275.275,0,0,0-.249.16l-3.463,7.556c-.585,1.246-1.131,2.475-1.708,3.776-.351.79-.708,1.6-1.083,2.424l-.078.171h-.58l-.077-.171c-.544-1.2-1.05-2.351-1.546-3.48-.4-.918-.8-1.82-1.206-2.723l-3.422-7.553a.275.275,0,0,0-.25-.161h-2.658a.274.274,0,0,0-.244.4l6.64,13.062a.856.856,0,0,1-.763,1.243h-4.963a.274.274,0,0,0-.274.274v1.005a.274.274,0,0,0,.274.274h6.263a.857.857,0,0,1,.856.856v1.868a.857.857,0,0,1-.856.855Z" transform="translate(-486.989 -119.252)" fill="#080808"/>
      </g>
      <g id="グループ_351" data-name="グループ 351">
        <path id="パス_13799" data-name="パス 13799" d="M510.211,118.7a1.188,1.188,0,0,0,.869-1.439,28.129,28.129,0,1,0-19.9,33.918,1.189,1.189,0,0,0-.626-2.293,25.77,25.77,0,1,1,18.214-31.055A1.188,1.188,0,0,0,510.211,118.7Z" transform="translate(-455.319 -95.591)" fill="#080808"/>
        <path id="パス_13800" data-name="パス 13800" d="M483.545,152.253a28.435,28.435,0,1,1,27.609-35.27,1.482,1.482,0,0,1-1.082,1.791h0a1.484,1.484,0,0,1-1.79-1.082,25.46,25.46,0,1,0-18.009,30.7,1.48,1.48,0,0,1,.78,2.855A28.474,28.474,0,0,1,483.545,152.253Zm0-56.289A27.854,27.854,0,1,0,490.9,150.69a.9.9,0,1,0-.472-1.732,26.061,26.061,0,1,1,18.42-31.405.9.9,0,1,0,1.743-.43A27.79,27.79,0,0,0,483.545,95.964Z" transform="translate(-455.109 -95.382)" fill="#080808"/>
      </g>
      <g id="グループ_352" data-name="グループ 352" transform="translate(48.889 34.504)">
        <path id="パス_13801" data-name="パス 13801" d="M607.114,155.179h-66.3a1.189,1.189,0,0,0-1.189,1.188v74.988a1.189,1.189,0,0,0,2.378,0v-73.8h63.92v73.8a1.189,1.189,0,0,0,2.378,0V156.367A1.189,1.189,0,0,0,607.114,155.179Z" transform="translate(-539.337 -154.888)" fill="#080808"/>
        <path id="パス_13802" data-name="パス 13802" d="M606.905,232.626a1.482,1.482,0,0,1-1.48-1.48V157.638H542.087v73.508a1.48,1.48,0,1,1-2.959,0V156.158a1.481,1.481,0,0,1,1.48-1.479h66.3a1.481,1.481,0,0,1,1.48,1.479v74.988A1.482,1.482,0,0,1,606.905,232.626Zm-65.4-75.57h64.5v74.09a.9.9,0,0,0,1.8,0V156.158a.9.9,0,0,0-.9-.9h-66.3a.9.9,0,0,0-.9.9v74.988a.9.9,0,1,0,1.8,0Z" transform="translate(-539.128 -154.679)" fill="#080808"/>
      </g>
      <g id="グループ_353" data-name="グループ 353" transform="translate(75.291 95.93)">
        <path id="パス_13803" data-name="パス 13803" d="M599.684,260.743H586.191A1.189,1.189,0,0,0,585,261.931v13.562a1.189,1.189,0,0,0,2.378,0V263.12h11.115v12.373a1.189,1.189,0,0,0,2.378,0V261.931A1.189,1.189,0,0,0,599.684,260.743Z" transform="translate(-584.71 -260.452)" fill="#080808"/>
        <path id="パス_13804" data-name="パス 13804" d="M599.474,276.764a1.482,1.482,0,0,1-1.48-1.48V263.2H587.461v12.082a1.48,1.48,0,0,1-2.96,0V261.722a1.482,1.482,0,0,1,1.48-1.479h13.493a1.481,1.481,0,0,1,1.48,1.479v13.562A1.482,1.482,0,0,1,599.474,276.764ZM586.879,262.62h11.7v12.664a.9.9,0,1,0,1.8,0V261.722a.9.9,0,0,0-.9-.9H585.981a.9.9,0,0,0-.9.9v13.562a.9.9,0,0,0,1.8,0Z" transform="translate(-584.501 -260.243)" fill="#080808"/>
      </g>
      <g id="グループ_354" data-name="グループ 354" transform="translate(60.412 45.812)">
        <path id="パス_13805" data-name="パス 13805" d="M567.565,174.613H560.62a1.189,1.189,0,0,0-1.189,1.189v6.944a1.189,1.189,0,0,0,1.189,1.188h6.944a1.189,1.189,0,0,0,1.189-1.188V175.8A1.189,1.189,0,0,0,567.565,174.613Zm-1.189,6.944h-4.566V176.99h4.566Z" transform="translate(-559.14 -174.322)" fill="#080808"/>
        <path id="パス_13806" data-name="パス 13806" d="M567.356,184.016h-6.944a1.481,1.481,0,0,1-1.48-1.479v-6.944a1.482,1.482,0,0,1,1.48-1.48h6.944a1.482,1.482,0,0,1,1.48,1.48v6.944A1.481,1.481,0,0,1,567.356,184.016Zm-6.944-9.321a.9.9,0,0,0-.9.9v6.944a.9.9,0,0,0,.9.9h6.944a.9.9,0,0,0,.9-.9v-6.944a.9.9,0,0,0-.9-.9Zm6.046,6.944h-5.148V176.49h5.148Zm-4.566-.582h3.984v-3.985h-3.984Z" transform="translate(-558.931 -174.113)" fill="#080808"/>
      </g>
      <g id="グループ_355" data-name="グループ 355" transform="translate(78.566 45.812)">
        <path id="パス_13807" data-name="パス 13807" d="M591.818,183.934h6.944a1.188,1.188,0,0,0,1.189-1.188V175.8a1.189,1.189,0,0,0-1.189-1.189h-6.944a1.189,1.189,0,0,0-1.189,1.189v6.944A1.189,1.189,0,0,0,591.818,183.934Zm1.189-6.944h4.567v4.567h-4.567Z" transform="translate(-590.338 -174.322)" fill="#080808"/>
        <path id="パス_13808" data-name="パス 13808" d="M598.553,184.016h-6.944a1.481,1.481,0,0,1-1.48-1.479v-6.944a1.482,1.482,0,0,1,1.48-1.48h6.944a1.482,1.482,0,0,1,1.48,1.48v6.944A1.481,1.481,0,0,1,598.553,184.016Zm-6.944-9.321a.9.9,0,0,0-.9.9v6.944a.9.9,0,0,0,.9.9h6.944a.9.9,0,0,0,.9-.9v-6.944a.9.9,0,0,0-.9-.9Zm6.046,6.944h-5.148V176.49h5.148Zm-4.567-.582h3.985v-3.985h-3.985Z" transform="translate(-590.129 -174.113)" fill="#080808"/>
      </g>
      <g id="グループ_356" data-name="グループ 356" transform="translate(96.718 45.812)">
        <path id="パス_13809" data-name="パス 13809" d="M629.958,174.613h-6.944a1.189,1.189,0,0,0-1.189,1.189v6.944a1.189,1.189,0,0,0,1.189,1.188h6.944a1.189,1.189,0,0,0,1.189-1.188V175.8A1.189,1.189,0,0,0,629.958,174.613Zm-1.189,6.944H624.2V176.99h4.567Z" transform="translate(-621.534 -174.322)" fill="#080808"/>
        <path id="パス_13810" data-name="パス 13810" d="M629.749,184.016H622.8a1.481,1.481,0,0,1-1.48-1.479v-6.944a1.482,1.482,0,0,1,1.48-1.48h6.944a1.481,1.481,0,0,1,1.48,1.48v6.944A1.481,1.481,0,0,1,629.749,184.016Zm-6.944-9.321a.9.9,0,0,0-.9.9v6.944a.9.9,0,0,0,.9.9h6.944a.9.9,0,0,0,.9-.9v-6.944a.9.9,0,0,0-.9-.9Zm6.046,6.944H623.7V176.49h5.148Zm-4.567-.582h3.985v-3.985h-3.985Z" transform="translate(-621.325 -174.113)" fill="#080808"/>
      </g>
      <g id="グループ_357" data-name="グループ 357" transform="translate(60.412 61.136)">
        <path id="パス_13811" data-name="パス 13811" d="M567.565,200.948H560.62a1.189,1.189,0,0,0-1.189,1.188v6.944a1.189,1.189,0,0,0,1.189,1.189h6.944a1.189,1.189,0,0,0,1.189-1.189v-6.944A1.189,1.189,0,0,0,567.565,200.948Zm-1.189,6.944h-4.566v-4.567h4.566Z" transform="translate(-559.14 -200.657)" fill="#080808"/>
        <path id="パス_13812" data-name="パス 13812" d="M567.356,210.351h-6.944a1.481,1.481,0,0,1-1.48-1.48v-6.944a1.481,1.481,0,0,1,1.48-1.479h6.944a1.481,1.481,0,0,1,1.48,1.479v6.944A1.481,1.481,0,0,1,567.356,210.351Zm-6.944-9.321a.9.9,0,0,0-.9.9v6.944a.9.9,0,0,0,.9.9h6.944a.9.9,0,0,0,.9-.9v-6.944a.9.9,0,0,0-.9-.9Zm6.046,6.944h-5.148v-5.149h5.148Zm-4.566-.582h3.984v-3.985h-3.984Z" transform="translate(-558.931 -200.448)" fill="#080808"/>
      </g>
      <g id="グループ_358" data-name="グループ 358" transform="translate(78.566 61.136)">
        <path id="パス_13813" data-name="パス 13813" d="M590.629,209.08a1.189,1.189,0,0,0,1.189,1.189h6.944a1.189,1.189,0,0,0,1.189-1.189v-6.944a1.188,1.188,0,0,0-1.189-1.188h-6.944a1.189,1.189,0,0,0-1.189,1.188Zm2.378-5.755h4.567v4.567h-4.567Z" transform="translate(-590.338 -200.657)" fill="#080808"/>
        <path id="パス_13814" data-name="パス 13814" d="M598.553,210.351h-6.944a1.481,1.481,0,0,1-1.48-1.48v-6.944a1.481,1.481,0,0,1,1.48-1.479h6.944a1.481,1.481,0,0,1,1.48,1.479v6.944A1.481,1.481,0,0,1,598.553,210.351Zm-6.944-9.321a.9.9,0,0,0-.9.9v6.944a.9.9,0,0,0,.9.9h6.944a.9.9,0,0,0,.9-.9v-6.944a.9.9,0,0,0-.9-.9Zm6.046,6.944h-5.148v-5.149h5.148Zm-4.567-.582h3.985v-3.985h-3.985Z" transform="translate(-590.129 -200.448)" fill="#080808"/>
      </g>
      <g id="グループ_359" data-name="グループ 359" transform="translate(96.718 61.136)">
        <path id="パス_13815" data-name="パス 13815" d="M629.958,200.948h-6.944a1.189,1.189,0,0,0-1.189,1.188v6.944a1.189,1.189,0,0,0,1.189,1.189h6.944a1.189,1.189,0,0,0,1.189-1.189v-6.944A1.189,1.189,0,0,0,629.958,200.948Zm-1.189,6.944H624.2v-4.567h4.567Z" transform="translate(-621.534 -200.657)" fill="#080808"/>
        <path id="パス_13816" data-name="パス 13816" d="M629.749,210.351H622.8a1.481,1.481,0,0,1-1.48-1.48v-6.944a1.481,1.481,0,0,1,1.48-1.479h6.944a1.481,1.481,0,0,1,1.48,1.479v6.944A1.481,1.481,0,0,1,629.749,210.351ZM622.8,201.03a.9.9,0,0,0-.9.9v6.944a.9.9,0,0,0,.9.9h6.944a.9.9,0,0,0,.9-.9v-6.944a.9.9,0,0,0-.9-.9Zm6.046,6.944H623.7v-5.149h5.148Zm-4.567-.582h3.985v-3.985h-3.985Z" transform="translate(-621.325 -200.448)" fill="#080808"/>
      </g>
      <g id="グループ_360" data-name="グループ 360" transform="translate(60.412 76.46)">
        <path id="パス_13817" data-name="パス 13817" d="M567.565,227.283H560.62a1.189,1.189,0,0,0-1.189,1.189v6.944a1.189,1.189,0,0,0,1.189,1.188h6.944a1.189,1.189,0,0,0,1.189-1.188v-6.944A1.189,1.189,0,0,0,567.565,227.283Zm-1.189,6.944h-4.566V229.66h4.566Z" transform="translate(-559.14 -226.992)" fill="#080808"/>
        <path id="パス_13818" data-name="パス 13818" d="M567.356,236.686h-6.944a1.481,1.481,0,0,1-1.48-1.479v-6.944a1.481,1.481,0,0,1,1.48-1.48h6.944a1.481,1.481,0,0,1,1.48,1.48v6.944A1.481,1.481,0,0,1,567.356,236.686Zm-6.944-9.321a.9.9,0,0,0-.9.9v6.944a.9.9,0,0,0,.9.9h6.944a.9.9,0,0,0,.9-.9v-6.944a.9.9,0,0,0-.9-.9Zm6.046,6.944h-5.148V229.16h5.148Zm-4.566-.582h3.984v-3.985h-3.984Z" transform="translate(-558.931 -226.783)" fill="#080808"/>
      </g>
      <g id="グループ_361" data-name="グループ 361" transform="translate(78.566 76.46)">
        <path id="パス_13819" data-name="パス 13819" d="M590.629,235.416a1.189,1.189,0,0,0,1.189,1.188h6.944a1.188,1.188,0,0,0,1.189-1.188v-6.944a1.189,1.189,0,0,0-1.189-1.189h-6.944a1.189,1.189,0,0,0-1.189,1.189Zm2.378-5.756h4.567v4.567h-4.567Z" transform="translate(-590.338 -226.992)" fill="#080808"/>
        <path id="パス_13820" data-name="パス 13820" d="M598.553,236.686h-6.944a1.481,1.481,0,0,1-1.48-1.479v-6.944a1.481,1.481,0,0,1,1.48-1.48h6.944a1.481,1.481,0,0,1,1.48,1.48v6.944A1.481,1.481,0,0,1,598.553,236.686Zm-6.944-9.321a.9.9,0,0,0-.9.9v6.944a.9.9,0,0,0,.9.9h6.944a.9.9,0,0,0,.9-.9v-6.944a.9.9,0,0,0-.9-.9Zm6.046,6.944h-5.148V229.16h5.148Zm-4.567-.582h3.985v-3.985h-3.985Z" transform="translate(-590.129 -226.783)" fill="#080808"/>
      </g>
      <g id="グループ_362" data-name="グループ 362" transform="translate(96.718 76.46)">
        <path id="パス_13821" data-name="パス 13821" d="M629.958,227.283h-6.944a1.189,1.189,0,0,0-1.189,1.189v6.944a1.189,1.189,0,0,0,1.189,1.188h6.944a1.189,1.189,0,0,0,1.189-1.188v-6.944A1.189,1.189,0,0,0,629.958,227.283Zm-1.189,6.944H624.2V229.66h4.567Z" transform="translate(-621.534 -226.992)" fill="#080808"/>
        <path id="パス_13822" data-name="パス 13822" d="M629.749,236.686H622.8a1.481,1.481,0,0,1-1.48-1.479v-6.944a1.481,1.481,0,0,1,1.48-1.48h6.944a1.481,1.481,0,0,1,1.48,1.48v6.944A1.481,1.481,0,0,1,629.749,236.686Zm-6.944-9.321a.9.9,0,0,0-.9.9v6.944a.9.9,0,0,0,.9.9h6.944a.9.9,0,0,0,.9-.9v-6.944a.9.9,0,0,0-.9-.9Zm6.046,6.944H623.7V229.16h5.148Zm-4.567-.582h3.985v-3.985h-3.985Z" transform="translate(-621.325 -226.783)" fill="#080808"/>
      </g>
    </g>
  </g>
</svg>
