<svg xmlns="http://www.w3.org/2000/svg" width="335.875" height="364.987" viewBox="0 0 335.875 364.987">
  <g id="グループ_256" data-name="グループ 256" transform="translate(-367.976 -80)" opacity="0.15">
    <path id="パス_13614" data-name="パス 13614" d="M367.976,111.658V418.871H447.31V111.658Zm55.142,202.825H392.691v-30.4h30.427Zm0-61.747H392.691V222.362h30.427Zm0-61.723H392.691V160.588h30.427Z" transform="translate(0 26.116)" fill="#006b9b"/>
    <path id="パス_13615" data-name="パス 13615" d="M493.85,80H418.967V444.961h41.9V375.842h65.96v69.119h41.9V80ZM476.056,340.6h-30.4V310.174h30.4Zm0-61.747h-30.4v-30.4h30.4Zm0-61.723h-30.4V186.7h30.4Zm0-61.194h-30.4V125.508h30.4ZM542.042,340.6h-30.4V310.174h30.4Zm0-61.747h-30.4v-30.4h30.4Zm0-61.723h-30.4V186.7h30.4Zm0-61.194h-30.4V125.508h30.4Z" transform="translate(42.064 0)" fill="#006b9b"/>
    <path id="パス_13616" data-name="パス 13616" d="M508.552,111.658V418.871h79.333V111.658Zm24.191,172.425h30.427v30.4H532.743Zm0-61.721h30.427v30.374H532.743Zm0-61.774h30.427v30.425H532.743Z" transform="translate(115.966 26.116)" fill="#006b9b"/>
  </g>
</svg>
