<svg xmlns="http://www.w3.org/2000/svg" width="73.19" height="92.293" viewBox="0 0 73.19 92.293">
  <g id="グループ_266" data-name="グループ 266" transform="translate(-1946.769 -814.026)">
    <path id="パス_13625" data-name="パス 13625" d="M1991.2,821.521c-2.12-1.122-9.427-4.88-14.255-1.966-7.717,4.657-4.959,23.862-4.427,27.561.012.087.03.206.054.365,1.182,7.851,4.186,11.549,4.9,12.389a21.315,21.315,0,0,0,9.623,6.385,21.735,21.735,0,0,0,7.046-3.3c7.248-5.19,8.908-13.432,9.693-17.33,1.128-5.6,2.905-14.429-2.568-19.964C1997.937,822.295,1993.429,821.664,1991.2,821.521Z" fill="#006b9b" opacity="0.3"/>
    <path id="パス_13626" data-name="パス 13626" d="M1954.473,906.319c-.451-2.153-3.128-16.036,5.866-27.35,1.291-1.624,8.212-10.33,17.376-10.831,1.406-.077,2,.087,9.377.2,6.942.1,7.851-.021,9.254.062,7.046.415,15.148,5.368,19.734,12.878,6.76,11.073,2.744,22.573,2.209,24.024Z" fill="#006b9b" opacity="0.3"/>
    <g id="グループ_254" data-name="グループ 254" opacity="0.8">
      <path id="パス_13606" data-name="パス 13606" d="M1966.374,850.587c2.445,8.606,9.3,13.882,14.537,13.882,5.958,0,12.349-6.168,14.545-13.9a5.343,5.343,0,0,0,3.77-2.146c2.006-2.667,1.269-5.966.653-7.7a4.032,4.032,0,0,0-2.339-2.411c.316-1.624.645-3.4.841-4.7.117-.785.207-1.887.267-3.277a14.586,14.586,0,0,0-3.837-10.9c-3.18-3.382-8.047-5.3-13.707-5.407-.253-.005-.51,0-.764,0a18.927,18.927,0,0,0-3.651.437c-9.5,2.092-14.692,8.383-13.886,16.825.013.14.027.277.043.412.237,2,.643,4.559,1.016,6.7a4.017,4.017,0,0,0-2.149,2.318c-.617,1.729-1.354,5.028.653,7.7A5.336,5.336,0,0,0,1966.374,850.587Zm-2.7-9.162a1.869,1.869,0,0,1,.581-.833c.208,1.115.371,1.9.43,2.085a1.024,1.024,0,0,0,.982.715,1.04,1.04,0,0,0,1-1.33c-.138-.5-1.27-6.46-1.76-10.605-.014-.117-.027-.237-.038-.362-.706-7.406,3.763-12.727,12.262-14.6a16.762,16.762,0,0,1,3.249-.389c.227-.005.453-.006.68,0,5.093.095,9.436,1.782,12.228,4.752a12.551,12.551,0,0,1,3.275,9.385c-.057,1.316-.14,2.346-.246,3.058-.187,1.249-.507,2.973-.818,4.567a2.475,2.475,0,0,0-.319,0,1.038,1.038,0,0,0-.091,2.067c-.257,1.269-.448,2.172-.452,2.2a1.041,1.041,0,0,0,2.037.43c.019-.089.2-.937.438-2.123a1.939,1.939,0,0,1,.8.99c.477,1.335,1.064,3.857-.356,5.745a3.3,3.3,0,0,1-2.846,1.342,1.044,1.044,0,0,0-1.08.792c-1.975,8.082-8.143,13.084-12.725,13.084-4.68,0-10.939-5.377-12.8-13.381a1.041,1.041,0,0,0-1.749-.5,3.292,3.292,0,0,1-2.327-1.345c-1.421-1.888-.833-4.409-.356-5.744Z" fill="#080808"/>
      <path id="パス_13607" data-name="パス 13607" d="M1967.484,837.137h.025c9.416-.22,14.962-2.034,18.627-6.192,2.168,2.979,5.132,5.075,7.981,5.585a1.041,1.041,0,0,0,.4-2.044l-.029-.005c-2.654-.476-5.482-2.712-7.381-5.836a1.04,1.04,0,0,0-1.728-.075c-3.215,4.384-8.406,6.263-17.915,6.484a1.041,1.041,0,1,0,.024,2.082h0Z" fill="#080808"/>
      <path id="パス_13608" data-name="パス 13608" d="M2014.66,897.623c.031-8.068.069-18.11-5.456-23.822-3.507-3.56-7.652-5.39-11.661-7.159-1.889-.833-3.842-1.7-5.726-2.734a1.041,1.041,0,0,0-1.414.409,1.013,1.013,0,0,0-.092.226l-5.133,18.634-1.585-9.407a.857.857,0,0,0-.031-.112l1.171-2.719.985.65a1.041,1.041,0,0,0,1.17-1.722l-.024-.016-5.513-3.636a1.039,1.039,0,0,0-1.1-.028l-5.533,3.246a1.041,1.041,0,1,0,1.017,1.816l.037-.021.929-.545,1.5,3.223-1.592,9.447-5.24-19.072a1.041,1.041,0,0,0-1.28-.728,1.052,1.052,0,0,0-.226.092c-1.831,1.008-3.754,1.88-5.614,2.722-4.155,1.881-8.453,3.827-12.012,7.441-5.518,5.7-5.479,15.746-5.448,23.814.006,1.535.011,2.985-.02,4.335a1.04,1.04,0,0,0,1.014,1.065h.027a1.042,1.042,0,0,0,1.04-1.017c.032-1.377.027-2.842.02-4.392-.029-7.691-.066-17.263,4.857-22.352,3.281-3.331,7.216-5.112,11.381-7,1.512-.684,3.066-1.388,4.6-2.177l6.1,22.2a1.1,1.1,0,0,0,2.11-.159l2.292-13.6h1.4l2.263,13.437a1.038,1.038,0,0,0,2.027.438l6.074-22.053c1.585.811,3.179,1.514,4.73,2.2,4.006,1.768,7.79,3.438,11.012,6.708,4.929,5.1,4.893,14.668,4.863,22.36-.006,1.549-.011,3.013.02,4.39a1.042,1.042,0,0,0,1.04,1.017h.025a1.042,1.042,0,0,0,1.016-1.065C2014.648,900.608,2014.654,899.16,2014.66,897.623Zm-33.913-29.312,2.221,1.465-1.149,2.668h-2l-1.311-2.819Z" fill="#080808"/>
    </g>
  </g>
</svg>
