<svg xmlns="http://www.w3.org/2000/svg" xmlns:xlink="http://www.w3.org/1999/xlink" width="95" height="95" viewBox="0 0 95 95">
  <defs>
    <clipPath id="clip-path">
      <rect id="長方形_210" data-name="長方形 210" width="95" height="95" transform="translate(301 1672)" fill="#fff" stroke="#707070" stroke-width="1"/>
    </clipPath>
  </defs>
  <g id="グループ_14" data-name="グループ 14" transform="translate(-301 -1672)" clip-path="url(#clip-path)">
    <g id="グループ_346" data-name="グループ 346" transform="translate(-548.589 1586.281)">
      <path id="パス_13788" data-name="パス 13788" d="M945.125,161.649l-3.67.007-8.834-15.236-10.109-17.444-.954,1.659-7.153,12.441-1.661-2.867-13.728-23.683-.955,1.659L885.37,140.258,873,161.777l-4.9.009a1.1,1.1,0,0,0,0,2.208l42.32-.076,16.047-.027h0l1.849,0,14.415-.025v0l2.393,0a1.1,1.1,0,1,0,0-2.208Z" transform="translate(-6.653 -11.078)" fill="#006b9b" opacity="0.3"/>
      <g id="グループ_345" data-name="グループ 345" transform="translate(854.601 95.882)" opacity="0.8">
        <path id="パス_13789" data-name="パス 13789" d="M857.015,145.977a2.418,2.418,0,0,1,0-4.835l4.136-.007L886.793,96.54a1.314,1.314,0,0,1,1.136-.658h0a1.312,1.312,0,0,1,1.136.655l14.249,24.581,6.973-12.127a1.313,1.313,0,0,1,1.137-.658h0a1.314,1.314,0,0,1,1.137.655l18.562,32.024,2.911-.006h.006a2.417,2.417,0,0,1,0,4.835l-2.322,0-.069,0-16.2.027-.064,0-58.367.1Zm77.028-2.344Zm-46.108-43.81L863.051,143.1a1.3,1.3,0,0,1-.175.238l52.444-.092.065,0,14.025-.023a1.338,1.338,0,0,1-.176-.238l-17.8-30.712L904.459,124.4a1.312,1.312,0,0,1-1.136.658h0a1.314,1.314,0,0,1-1.136-.655Zm46.1,42.5h0Z" transform="translate(-854.601 -95.882)" fill="#080808"/>
        <path id="パス_13790" data-name="パス 13790" d="M891.716,212.02a1.1,1.1,0,0,0-1.106-1.1l-19.792.034a1.1,1.1,0,1,0,0,2.208l19.792-.034a1.1,1.1,0,0,0,1.1-1.106Z" transform="translate(-862.712 -157.611)" fill="#080808"/>
        <path id="パス_13791" data-name="パス 13791" d="M933.548,224.984a1.1,1.1,0,0,0,0-2.208L920.5,222.8a1.1,1.1,0,0,0,0,2.208l13.041-.023Z" transform="translate(-889.373 -163.974)" fill="#080808"/>
        <path id="パス_13792" data-name="パス 13792" d="M977.712,212.854a1.1,1.1,0,0,0-1.106-1.1l-23.014.041a1.1,1.1,0,1,0,0,2.208l23.014-.041a1.1,1.1,0,0,0,1.1-1.106Z" transform="translate(-907.129 -158.059)" fill="#080808"/>
        <path id="パス_13793" data-name="パス 13793" d="M967.219,240.489l11.507-.02a1.1,1.1,0,1,0,0-2.208l-11.507.02a1.1,1.1,0,1,0,0,2.208Z" transform="translate(-914.439 -172.284)" fill="#080808"/>
        <path id="パス_13794" data-name="パス 13794" d="M912.108,237.807a1.1,1.1,0,0,0-1.106-1.1l-19.945.036a1.1,1.1,0,0,0,0,2.208l19.945-.036a1.1,1.1,0,0,0,1.1-1.106Z" transform="translate(-873.572 -171.449)" fill="#080808"/>
        <path id="パス_13795" data-name="パス 13795" d="M974.77,252.125l-36.671.065a1.1,1.1,0,1,0,0,2.208l36.671-.065a1.1,1.1,0,1,0,0-2.208Z" transform="translate(-898.815 -179.723)" fill="#080808"/>
        <path id="パス_13796" data-name="パス 13796" d="M1005.405,224.964l-15.037.027a1.1,1.1,0,0,0,0,2.208l15.037-.027a1.1,1.1,0,0,0,0-2.208Z" transform="translate(-926.863 -165.148)" fill="#080808"/>
      </g>
    </g>
  </g>
</svg>
