<svg xmlns="http://www.w3.org/2000/svg" width="96" height="107" viewBox="0 0 96 107">
  <g id="グループ_267" data-name="グループ 267" transform="translate(-1709.395 -748.067)">
    <path id="パス_13627" data-name="パス 13627" d="M1773.091,756.495c-20.888-7.01-44.344,3.411-53.4,24.207-.266.791-.518,1.906.018,2.487.706.765,2.351.147,4.9-.5,3.819-.967,5.729-1.451,6.912-1.22,4.21.821,3.549,7.175,7.941,8.947,4.271,1.723,7.243-3.337,11.791-1.725,4.506,1.6,3.657,7.292,8.169,8.871,4.425,1.548,7.2-3.245,11.545-1.662,4.427,1.615,3.5,7.318,7.913,8.936,4.465,1.637,7.469-3.45,11.763-1.736,4.556,1.819,5.079,9.1,7.914,8.937a3.188,3.188,0,0,0,2.177-1.68C1807.317,787.711,1794.785,763.775,1773.091,756.495Z" fill="#006b9b" opacity="0.3"/>
    <g id="グループ_259" data-name="グループ 259" transform="translate(1709.395 748.067)" opacity="0.8">
      <path id="パス_13617" data-name="パス 13617" d="M1804.234,833.071h-61.054l14.373-39.386A8.473,8.473,0,0,0,1763,792.4c1.593-.814,2.966-1.516,4.953-.794s2.583,2.142,3.285,3.8c.8,1.877,1.692,4,4.634,5.071s5,.011,6.82-.92c1.593-.818,2.973-1.525,4.952-.8s2.582,2.143,3.285,3.8c.8,1.877,1.692,4.006,4.635,5.072a1.165,1.165,0,0,0,.4.072,1.179,1.179,0,0,0,1.1-.77,1.1,1.1,0,0,0,.063-.321,1.171,1.171,0,0,0,.616-.649,43.245,43.245,0,0,0-25.4-55.227,1.034,1.034,0,0,0-.121-.058c-.028-.01-.058-.018-.086-.029l-.012-.006c-.025-.009-.051-.014-.076-.024h-.014l-.045-.018c-.021-.007-.041-.018-.062-.026h-.013l-.081-.032a1.018,1.018,0,0,0-.163-.044,43.363,43.363,0,0,0-55.024,26.019,1.146,1.146,0,0,1-.679.973,1.169,1.169,0,0,0,.7,1.5c2.943,1.073,5.014.018,6.841-.911,1.6-.818,2.98-1.523,4.977-.794s2.6,2.149,3.3,3.8c.8,1.88,1.7,4.011,4.651,5.082s5.008.016,6.834-.913c1.593-.816,2.97-1.519,4.966-.8s2.588,2.143,3.285,3.8c.714,1.688,1.519,3.574,3.805,4.717l-14.631,40.108h-30.117a1.167,1.167,0,1,0-.007,2.335h29.27l-2.6,7.116a1.172,1.172,0,0,0,1.095,1.569,1.179,1.179,0,0,0,1.1-.769l2.886-7.914h61.91a1.167,1.167,0,1,0,0-2.335Zm-31.941-79.784c9.284,4.812,10.949,24.279,3.562,44.61a6.287,6.287,0,0,1-2.467-3.411c-.8-1.877-1.692-4-4.634-5.071s-5.008-.02-6.83.915a7.042,7.042,0,0,1-3.546,1.092Zm6.443,3.186a40.862,40.862,0,0,1,16.839,48.59c-1.364-.782-1.9-2.018-2.5-3.429-.8-1.877-1.692-4-4.634-5.071s-5-.016-6.82.919a7.11,7.11,0,0,1-3.524,1.092c6.1-16.889,6.013-33.3.632-42.1Zm-25.765.73c-6.734,6.231-12.612,15.594-16.56,26.376a6.263,6.263,0,0,1-2.472-3.409c-.8-1.88-1.7-4.013-4.652-5.082s-5.013-.02-6.841.911a7.146,7.146,0,0,1-3.5,1.092,41.089,41.089,0,0,1,44.093-26.29,29,29,0,0,0-10.068,6.4Zm17.12-4.715-13.957,38.248a6.28,6.28,0,0,1-2.458-3.4c-.8-1.88-1.692-4.011-4.641-5.08s-5.012-.016-6.834.915a7.064,7.064,0,0,1-3.54,1.092c7.442-20.245,21.229-34.029,31.428-31.775Z" transform="translate(-1709.395 -748.067)" fill="#080808"/>
      <path id="パス_13618" data-name="パス 13618" d="M1786.271,852.156a1.8,1.8,0,1,0,1.8,1.81v-.01A1.8,1.8,0,0,0,1786.271,852.156Z" transform="translate(-1709.759 -748.766)" fill="#080808"/>
      <path id="パス_13619" data-name="パス 13619" d="M1778.016,847.906a1.8,1.8,0,1,0,1.8,1.8h0A1.8,1.8,0,0,0,1778.016,847.906Z" transform="translate(-1709.719 -748.766)" fill="#080808"/>
      <path id="パス_13620" data-name="パス 13620" d="M1762.957,851.382a1.8,1.8,0,1,0,.005,0Z" transform="translate(-1709.646 -748.766)" fill="#080808"/>
    </g>
  </g>
</svg>
