<svg xmlns="http://www.w3.org/2000/svg" width="46.045" height="102.19" viewBox="0 0 46.045 102.19">
  <g id="グループ_272" data-name="グループ 272" transform="translate(-1656.808 -414.52)">
    <path id="パス_13629" data-name="パス 13629" d="M1679.77,533.24a3.361,3.361,0,0,1-3.573-3.51c-.109-2.315-.282-9.107-.451-15.864-.1-3.93-.2-7.68-.253-9.266H1669.3l.28-1.4c.944-4.718,3.11-15.653,4.471-22.736l-.075.192c-1.342,3.441-2.511,6.539-2.608,6.841a4.119,4.119,0,0,1-1.981,2.567,3.285,3.285,0,0,1-1.481.337,4.728,4.728,0,0,1-1.516-.273c-2.171-.747-3-2.608-2.22-4.977,1.437-4.433,6.922-20.586,9.142-25.649.962-2.2,2.182-3.341,4.08-3.828a29.962,29.962,0,0,1,7.378-.937,29.446,29.446,0,0,1,7.313.931,5.518,5.518,0,0,1,4.157,3.854c1.572,4.807,3.171,9.121,4.716,13.292l.022.06c1.4,3.777,2.847,7.683,4.284,11.96,1.056,3.148-.5,4.6-1.992,5.256a3.761,3.761,0,0,1-1.527.337,3.308,3.308,0,0,1-1.327-.276,4.558,4.558,0,0,1-2.346-2.8c-.632-1.85-1.7-4.729-2.779-7.495.819,4.635,2.142,11.96,3.96,21.923l.514,2.821h-5.9c-.063,3.761-.406,20.95-.5,24.5-.069,2.735-1.308,4.123-3.684,4.123h-.065c-1.642-.023-3.605-.773-3.719-4.22-.079-2.512-.158-6.726-.241-11.188l-.031-1.628c-.083-4.311-.17-8.756-.255-11.591h-.969c-.111,2.182-.318,8.523-.512,14.626-.227,6.995-.339,10.329-.381,10.691a3.42,3.42,0,0,1-3.648,3.324Z" transform="translate(-2.754 -16.531)" fill="#006b9b" opacity="0.3"/>
    <path id="パス_13630" data-name="パス 13630" d="M1693.65,440.645a8.11,8.11,0,0,1-3.115-.728,6.667,6.667,0,0,1-2.249.412,5.489,5.489,0,0,1-2.8-.756,1.669,1.669,0,0,1-.8-1.127,1.637,1.637,0,0,1,.318-1.347c.576-.743.693-2.4.769-4.347a25.924,25.924,0,0,1-.092-3.144v-.785c0-2.221,1.44-7.985,8.014-7.985,5.1,0,8.036,3.269,8.06,8.972v.015a22.525,22.525,0,0,1-.069,2.749c.055,1.774.12,3.764.753,4.594a1.728,1.728,0,0,1,.313,1.292,1.7,1.7,0,0,1-.819,1.17,5.474,5.474,0,0,1-2.767.734,6.652,6.652,0,0,1-2.3-.433,8.793,8.793,0,0,1-3.2.712Z" transform="translate(-11.375 -2.461)" fill="#006b9b" opacity="0.3"/>
    <g id="グループ_271" data-name="グループ 271" transform="translate(1657.247 414.91)">
      <g id="グループ_269" data-name="グループ 269">
        <path id="パス_13631" data-name="パス 13631" d="M1698.073,478.718c-1.439-4.3-2.89-8.219-4.3-12.015-1.55-4.194-3.159-8.529-4.721-13.308a5.248,5.248,0,0,0-3.96-3.662,29.042,29.042,0,0,0-14.548,0c-1.808.462-2.972,1.556-3.9,3.674-2.322,5.3-7.914,21.871-9.131,25.627-.719,2.205.047,3.931,2.047,4.621a3.51,3.51,0,0,0,2.784-.047,3.853,3.853,0,0,0,1.837-2.4c.146-.462,2.276-6.043,3.767-9.763-1.492,7.926-5.078,25.913-5.118,26.136a.451.451,0,0,0,.088.374.464.464,0,0,0,.345.164h5.581c.052,1.363.146,5.189.257,9.535.164,6.317.345,13.483.456,15.858a3.1,3.1,0,0,0,3.293,3.241.534.534,0,0,0,.1.006,3.151,3.151,0,0,0,3.357-3.071c.047-.374.176-4.3.38-10.681.2-6.084.415-12.916.526-14.887h1.5c.094,3.03.187,8.049.281,12.916.094,4.7.175,9.137.257,11.752.082,2.6,1.234,3.925,3.428,3.954h.07c2.2,0,3.346-1.293,3.416-3.849.1-3.861.456-21.672.5-24.773h5.305a.451.451,0,0,0,.339-.164.432.432,0,0,0,.1-.363c-.041-.234-3.451-18.83-4.791-26.563,1.164,2.86,2.813,7.195,3.785,10.02a4.251,4.251,0,0,0,2.193,2.638,3.185,3.185,0,0,0,2.632-.053,3.227,3.227,0,0,0,2.17-3.089A5.815,5.815,0,0,0,1698.073,478.718Zm-2.2,4.095a2.33,2.33,0,0,1-1.913.059,3.417,3.417,0,0,1-1.708-2.112c-.719-2.106-1.924-5.329-3.059-8.213-2.059-5.241-2.17-5.224-2.6-5.159a.447.447,0,0,0-.38.485c.158,1.609,4.5,25.364,5.229,29.347h-5.206a.449.449,0,0,0-.45.45c.006.386-.392,20.748-.509,25.194-.053,2.088-.807,2.983-2.515,2.983h-.065c-1.7-.023-2.48-.977-2.55-3.089-.082-2.609-.164-7.049-.251-11.746-.1-5.107-.2-10.383-.3-13.36a.45.45,0,0,0-.445-.433H1676.8a.45.45,0,0,0-.445.409c-.1,1.187-.345,8.71-.556,15.349-.164,5.036-.333,10.242-.374,10.593a2.282,2.282,0,0,1-2.556,2.287,2.221,2.221,0,0,1-2.421-2.392c-.111-2.363-.293-9.523-.45-15.841-.129-4.954-.24-9.236-.281-9.985a.448.448,0,0,0-.444-.421h-5.463c.8-4.007,5.522-27.756,5.668-29.306a.436.436,0,0,0-.369-.48c-.468-.082-.526-.094-3.141,6.587-1.252,3.211-2.51,6.528-2.632,6.908a3,3,0,0,1-1.386,1.878,2.675,2.675,0,0,1-2.1.006c-1.954-.673-1.889-2.275-1.486-3.5,1.439-4.44,6.914-20.555,9.1-25.545.825-1.884,1.749-2.767,3.3-3.165a28.185,28.185,0,0,1,14.109-.006,4.373,4.373,0,0,1,3.334,3.083c1.568,4.791,3.176,9.137,4.732,13.337,1.4,3.791,2.855,7.7,4.293,11.986C1697.879,480.935,1697.458,482.11,1695.873,482.812Z" transform="translate(-1657.247 -428.979)" fill="#080808"/>
        <path id="パス_13632" data-name="パス 13632" d="M1695.294,431.131c-.69-.907-.755-2.966-.813-4.785a21,21,0,0,0,.076-2.691c-.006-2.644-.778-8.745-7.786-8.745-6.347,0-7.733,5.557-7.733,7.7v.567a29.786,29.786,0,0,0,.088,3.352c-.064,1.632-.146,3.644-.837,4.539a1.4,1.4,0,0,0-.257,1.111,1.415,1.415,0,0,0,.667.942,5.538,5.538,0,0,0,4.914.287,8.166,8.166,0,0,0,3.112.749h.018a8.649,8.649,0,0,0,3.2-.737,5.548,5.548,0,0,0,4.931-.24,1.429,1.429,0,0,0,.673-.942A1.371,1.371,0,0,0,1695.294,431.131Zm-.866,1.275a4.717,4.717,0,0,1-4.328.123.475.475,0,0,0-.369.012,8,8,0,0,1-2.989.725h-.018a7.22,7.22,0,0,1-2.866-.731.459.459,0,0,0-.392-.023,5.61,5.61,0,0,1-2.106.439,4.337,4.337,0,0,1-2.211-.6.511.511,0,0,1-.24-.345.468.468,0,0,1,.088-.392c.807-1.041.936-2.849,1.024-5.1a.613.613,0,0,0-.006-.1,28.823,28.823,0,0,1-.088-3.229v-.573c0-.07.082-6.815,6.844-6.815,6,0,6.891,4.937,6.891,7.873a.158.158,0,0,0,.006.053,21.868,21.868,0,0,1-.071,2.527.189.189,0,0,0-.006.082v.035c.064,2.047.129,4.165.994,5.3a.527.527,0,0,1,.088.4A.509.509,0,0,1,1694.428,432.406Z" transform="translate(-1665.863 -414.91)" fill="#080808"/>
      </g>
      <g id="グループ_270" data-name="グループ 270" opacity="0.8">
        <path id="パス_13633" data-name="パス 13633" d="M1698.073,478.718c-1.439-4.3-2.89-8.219-4.3-12.015-1.55-4.194-3.159-8.529-4.721-13.308a5.248,5.248,0,0,0-3.96-3.662,29.042,29.042,0,0,0-14.548,0c-1.808.462-2.972,1.556-3.9,3.674-2.322,5.3-7.914,21.871-9.131,25.627-.719,2.205.047,3.931,2.047,4.621a3.51,3.51,0,0,0,2.784-.047,3.853,3.853,0,0,0,1.837-2.4c.146-.462,2.276-6.043,3.767-9.763-1.492,7.926-5.078,25.913-5.118,26.136a.451.451,0,0,0,.088.374.464.464,0,0,0,.345.164h5.581c.052,1.363.146,5.189.257,9.535.164,6.317.345,13.483.456,15.858a3.1,3.1,0,0,0,3.293,3.241.534.534,0,0,0,.1.006,3.151,3.151,0,0,0,3.357-3.071c.047-.374.176-4.3.38-10.681.2-6.084.415-12.916.526-14.887h1.5c.094,3.03.187,8.049.281,12.916.094,4.7.175,9.137.257,11.752.082,2.6,1.234,3.925,3.428,3.954h.07c2.2,0,3.346-1.293,3.416-3.849.1-3.861.456-21.672.5-24.773h5.305a.451.451,0,0,0,.339-.164.432.432,0,0,0,.1-.363c-.041-.234-3.451-18.83-4.791-26.563,1.164,2.86,2.813,7.195,3.785,10.02a4.251,4.251,0,0,0,2.193,2.638,3.185,3.185,0,0,0,2.632-.053,3.227,3.227,0,0,0,2.17-3.089A5.815,5.815,0,0,0,1698.073,478.718Zm-2.2,4.095a2.33,2.33,0,0,1-1.913.059,3.417,3.417,0,0,1-1.708-2.112c-.719-2.106-1.924-5.329-3.059-8.213-2.059-5.241-2.17-5.224-2.6-5.159a.447.447,0,0,0-.38.485c.158,1.609,4.5,25.364,5.229,29.347h-5.206a.449.449,0,0,0-.45.45c.006.386-.392,20.748-.509,25.194-.053,2.088-.807,2.983-2.515,2.983h-.065c-1.7-.023-2.48-.977-2.55-3.089-.082-2.609-.164-7.049-.251-11.746-.1-5.107-.2-10.383-.3-13.36a.45.45,0,0,0-.445-.433H1676.8a.45.45,0,0,0-.445.409c-.1,1.187-.345,8.71-.556,15.349-.164,5.036-.333,10.242-.374,10.593a2.282,2.282,0,0,1-2.556,2.287,2.221,2.221,0,0,1-2.421-2.392c-.111-2.363-.293-9.523-.45-15.841-.129-4.954-.24-9.236-.281-9.985a.448.448,0,0,0-.444-.421h-5.463c.8-4.007,5.522-27.756,5.668-29.306a.436.436,0,0,0-.369-.48c-.468-.082-.526-.094-3.141,6.587-1.252,3.211-2.51,6.528-2.632,6.908a3,3,0,0,1-1.386,1.878,2.675,2.675,0,0,1-2.1.006c-1.954-.673-1.889-2.275-1.486-3.5,1.439-4.44,6.914-20.555,9.1-25.545.825-1.884,1.749-2.767,3.3-3.165a28.185,28.185,0,0,1,14.109-.006,4.373,4.373,0,0,1,3.334,3.083c1.568,4.791,3.176,9.137,4.732,13.337,1.4,3.791,2.855,7.7,4.293,11.986C1697.879,480.935,1697.458,482.11,1695.873,482.812Z" transform="translate(-1657.247 -428.979)" fill="none" stroke="#080808" stroke-linecap="round" stroke-linejoin="round" stroke-width="0.78"/>
        <path id="パス_13634" data-name="パス 13634" d="M1695.294,431.131c-.69-.907-.755-2.966-.813-4.785a21,21,0,0,0,.076-2.691c-.006-2.644-.778-8.745-7.786-8.745-6.347,0-7.733,5.557-7.733,7.7v.567a29.786,29.786,0,0,0,.088,3.352c-.064,1.632-.146,3.644-.837,4.539a1.4,1.4,0,0,0-.257,1.111,1.415,1.415,0,0,0,.667.942,5.538,5.538,0,0,0,4.914.287,8.166,8.166,0,0,0,3.112.749h.018a8.649,8.649,0,0,0,3.2-.737,5.548,5.548,0,0,0,4.931-.24,1.429,1.429,0,0,0,.673-.942A1.371,1.371,0,0,0,1695.294,431.131Zm-.866,1.275a4.717,4.717,0,0,1-4.328.123.475.475,0,0,0-.369.012,8,8,0,0,1-2.989.725h-.018a7.22,7.22,0,0,1-2.866-.731.459.459,0,0,0-.392-.023,5.61,5.61,0,0,1-2.106.439,4.337,4.337,0,0,1-2.211-.6.511.511,0,0,1-.24-.345.468.468,0,0,1,.088-.392c.807-1.041.936-2.849,1.024-5.1a.613.613,0,0,0-.006-.1,28.823,28.823,0,0,1-.088-3.229v-.573c0-.07.082-6.815,6.844-6.815,6,0,6.891,4.937,6.891,7.873a.158.158,0,0,0,.006.053,21.868,21.868,0,0,1-.071,2.527.189.189,0,0,0-.006.082v.035c.064,2.047.129,4.165.994,5.3a.527.527,0,0,1,.088.4A.509.509,0,0,1,1694.428,432.406Z" transform="translate(-1665.863 -414.91)" fill="none" stroke="#080808" stroke-linecap="round" stroke-linejoin="round" stroke-width="0.78"/>
      </g>
    </g>
  </g>
</svg>
