<svg xmlns="http://www.w3.org/2000/svg" width="141.007" height="100.471" viewBox="0 0 141.007 100.471">
  <g id="グループ_262" data-name="グループ 262" transform="translate(-1442.359 -869.344)">
    <path id="長方形_203" data-name="長方形 203" d="M14.305,0h18.8A14.305,14.305,0,0,1,47.412,14.305V31.755a0,0,0,0,1,0,0H0a0,0,0,0,1,0,0V14.305A14.305,14.305,0,0,1,14.305,0Z" transform="translate(1495.946 923.411)" fill="#006b9b" opacity="0.3"/>
    <circle id="楕円形_25" data-name="楕円形 25" cx="14.674" cy="14.674" r="14.674" transform="translate(1504.978 888.131)" fill="#006b9b" opacity="0.3"/>
    <g id="グループ_235" data-name="グループ 235" opacity="0.8">
      <path id="パス_13574" data-name="パス 13574" d="M1513.9,915.84a14.373,14.373,0,0,0,10.5-4.458,15.711,15.711,0,0,0,4.245-10.929c0-8.324-6.6-15.418-14.427-15.492h-.11a14.89,14.89,0,0,0-10.619,4.8A15.955,15.955,0,0,0,1499,900.718a15.229,15.229,0,0,0,4.423,10.544A14.66,14.66,0,0,0,1513.9,915.84Zm-7.964-23.751a11.5,11.5,0,0,1,8.154-3.746h.094c6.007.055,11.079,5.6,11.077,12.107a12.356,12.356,0,0,1-3.308,8.6,11.038,11.038,0,0,1-8.091,3.41h0a11.265,11.265,0,0,1-8.014-3.559,11.876,11.876,0,0,1-3.465-8.206,12.549,12.549,0,0,1,3.553-8.6Z" fill="#080808"/>
      <path id="パス_13575" data-name="パス 13575" d="M1526.153,920.3a100.2,100.2,0,0,0-11.743-.724,104.121,104.121,0,0,0-12.191.72,15.554,15.554,0,0,0-13.628,15.465V951.33a1.691,1.691,0,0,0,3.382,0V935.759a12.17,12.17,0,0,1,10.652-12.108c1.475-.178,2.96-.309,4.448-.419l5.408,14.782a1.691,1.691,0,0,0,3.176,0l5.415-14.8c1.563.113,3.124.253,4.672.441a12.155,12.155,0,0,1,10.627,12.1v15.573a1.691,1.691,0,0,0,3.382,0v-15.57A15.542,15.542,0,0,0,1526.153,920.3Zm-12.084,12.214-3.466-9.475c1.267-.048,2.533-.08,3.8-.08,1.044,0,2.092.026,3.14.062Z" fill="#080808"/>
      <path id="パス_13576" data-name="パス 13576" d="M1580.223,935.871a11.1,11.1,0,0,0-8.125,1.8c.534-2.054.964-4.141,1.3-6.254a5.556,5.556,0,0,0,4.353-.927c3.956-2.65,5.681-9.6,5.607-10.671a1.56,1.56,0,0,0-.826-1.255,1.447,1.447,0,0,0-.75-.137,11.158,11.158,0,0,0-7.535,3.649c.014-.559.042-1.114.042-1.676,0-1.58-.072-3.149-.178-4.709,3.113-.131,5.454-2.614,6.555-7.082.286-1.163,1.6-6.992-.547-7.55a1.425,1.425,0,0,0-.813.028,11.2,11.2,0,0,0-6.463,5.259q-.656-3.147-1.6-6.2c2.876-.834,4.551-3.646,4.665-8.01a23,23,0,0,0-.38-4.619c-.34-1.839-.655-3.049-1.893-3.114a1.441,1.441,0,0,0-.836.217,11.178,11.178,0,0,0-5.031,6.66q-1.408-2.963-3.109-5.784c2.462-1.39,3.456-4.286,2.738-8.229-.015-.083-1.782-8.247-4.265-7.913a1.433,1.433,0,0,0-.845.43,11.088,11.088,0,0,0-3.208,7.8,69.1,69.1,0,0,0-5.7-6.189,1.431,1.431,0,0,0-1.98,2.067,66.469,66.469,0,0,1,5.41,5.87,9.189,9.189,0,0,0-8.052,2.232h0a1.431,1.431,0,0,0,.419,2.448c.1.068.231.165.393.281,1.538,1.1,5.2,3.731,8.9,3.731a6.664,6.664,0,0,0,3.71-1.087q1.638,2.718,3,5.575a9.26,9.26,0,0,0-8.351.317h0a1.431,1.431,0,0,0-.171,2.478c.074.083.171.2.287.33,3.307,3.808,6.433,5.72,9.342,5.72a6.562,6.562,0,0,0,2.206-.4q.915,2.943,1.542,5.982a9.317,9.317,0,0,0-8.181-1.59,1.433,1.433,0,0,0-.987,2,1.394,1.394,0,0,0,.246.366c.05.094.114.217.191.364,2.726,5.2,5.83,7.819,9.252,7.819.229,0,.459-.016.691-.039.1,1.5.172,3.013.172,4.536,0,.513-.027,1.021-.038,1.531a9.32,9.32,0,0,0-7.542-3.378,1.472,1.472,0,0,0-.677.149,1.427,1.427,0,0,0-.648,1.911c.012.026.026.051.04.076.027.1.06.235.1.394,1.564,6.068,4.224,9.365,7.917,9.846q-.49,3.055-1.259,6.032a9.276,9.276,0,0,0-6.572-5.1,1.436,1.436,0,0,0-1.815,1.386,1.461,1.461,0,0,0,.058.4c0,.107.006.25.009.418.117,6.307,1.942,10.151,5.425,11.469q-1.213,2.9-2.712,5.673a9.192,9.192,0,0,0-5.161-6.522,1.433,1.433,0,0,0-2.1.943,1.492,1.492,0,0,0-.03.388c-.023.115-.059.264-.1.444-.551,2.433-2.1,9.355,2.459,12.5a65.894,65.894,0,0,1-7.369,8.384,1.431,1.431,0,0,0,1.98,2.067h0a68.832,68.832,0,0,0,7.668-8.718,5.508,5.508,0,0,0,3.459,1.189,6.825,6.825,0,0,0,1.039-.083c4.673-.721,9.517-6.26,9.872-7.311a1.527,1.527,0,0,0-.323-1.5,1.449,1.449,0,0,0-.5-.335,11.025,11.025,0,0,0-8.369-.082q1.557-2.887,2.827-5.911a5.569,5.569,0,0,0,2.268.506,6.177,6.177,0,0,0,2.242-.44c4.479-1.743,7.733-8.169,7.869-9.181a1.544,1.544,0,0,0-.575-1.4A1.433,1.433,0,0,0,1580.223,935.871Zm-1.821-31.256c-.154,2.191-.762,5.746-2.526,7.407a2.82,2.82,0,0,1-1.824.815c.215-3.907,1.674-6.663,4.35-8.217Zm-5.636-16.363c.375,2.228.6,5.941-.707,7.938a2.784,2.784,0,0,1-1.577,1.2c-.724-3.914.043-6.977,2.284-9.137Zm-9.611-14.94c.95,2.133,2.166,5.87,1.357,8.171a2.679,2.679,0,0,1-1.225,1.51c-1.728-3.773-1.77-7.015-.132-9.68Zm-10.891,9.358a6,6,0,0,1,3.654-.6,9.053,9.053,0,0,1,4.614,2.515c-2.433,1.417-5.665-.174-8.268-1.914Zm7.719,12.049a5.989,5.989,0,0,1,3.734.265,8.576,8.576,0,0,1,3.709,3.318c-2.683.8-5.375-1.372-7.442-3.582Zm4.5,13.2a5.986,5.986,0,0,1,3.578,1.114,8.437,8.437,0,0,1,2.79,3.985c-2.759.154-4.877-2.52-6.363-5.1Zm1.307,13.736a6.012,6.012,0,0,1,3.233,1.909,8.4,8.4,0,0,1,1.8,4.5c-2.744-.488-4.172-3.564-5.028-6.41Zm5.862,33.11c-1.6,1.659-4.524,4.121-6.945,4.249a2.8,2.8,0,0,1-1.865-.544c2.786-2.993,5.737-4.238,8.815-3.706Zm8.43-33.116c-.654,2.093-2.062,5.4-4.151,6.607a2.809,2.809,0,0,1-1.961.371c1.1-3.746,3.152-6.085,6.117-6.979Zm-16.165,13.671a6,6,0,0,1,2.7,2.6,8.5,8.5,0,0,1,.706,4.872C1564.758,941.68,1564.085,938.32,1563.917,935.32Zm-5.056,12.986a5.905,5.905,0,0,1,1.986,3.138,8.8,8.8,0,0,1-.532,5.1c-2.223-1.7-2.031-5.224-1.457-8.239Zm13.369-4.146a2.793,2.793,0,0,1-1.982-.092c1.951-3.438,4.5-5.265,7.589-5.455-1.12,1.907-3.274,4.848-5.609,5.546Z" fill="#080808"/>
      <path id="パス_13577" data-name="パス 13577" d="M1476.961,881.565h0a9.194,9.194,0,0,0-8.052-2.232,66.6,66.6,0,0,1,5.409-5.87,1.431,1.431,0,0,0-1.98-2.067,69.268,69.268,0,0,0-5.7,6.191,11.094,11.094,0,0,0-3.206-7.8,1.433,1.433,0,0,0-.846-.43c-2.446-.287-4.247,7.829-4.262,7.91-.719,3.944.274,6.839,2.737,8.231q-1.7,2.822-3.111,5.786a11.171,11.171,0,0,0-5.03-6.663,1.438,1.438,0,0,0-.84-.217c-1.235.068-1.551,1.281-1.891,3.124a23.027,23.027,0,0,0-.378,4.636c.119,4.349,1.794,7.153,4.665,7.985q-.946,3.053-1.6,6.2a11.2,11.2,0,0,0-6.462-5.258,1.466,1.466,0,0,0-.812-.029c-2.1.542-.953,5.907-.552,7.539,1.1,4.479,3.443,6.966,6.559,7.1-.1,1.56-.179,3.128-.179,4.709,0,.564.029,1.12.042,1.681a11.152,11.152,0,0,0-7.535-3.654,1.4,1.4,0,0,0-.752.138,1.561,1.561,0,0,0-.824,1.256c-.074,1.076,1.655,8.024,5.61,10.67a5.559,5.559,0,0,0,4.349.926q.512,3.169,1.306,6.256a11.1,11.1,0,0,0-8.126-1.8,1.428,1.428,0,0,0-.643.264,1.54,1.54,0,0,0-.577,1.4c.135,1.012,3.383,7.435,7.866,9.183a6.223,6.223,0,0,0,2.247.442,5.6,5.6,0,0,0,2.268-.506q1.265,3.021,2.826,5.91a11.037,11.037,0,0,0-8.368.081,1.444,1.444,0,0,0-.5.337,1.527,1.527,0,0,0-.322,1.5c.355,1.052,5.2,6.592,9.878,7.311a6.759,6.759,0,0,0,1.034.082,5.5,5.5,0,0,0,3.457-1.188,68.841,68.841,0,0,0,7.668,8.719,1.431,1.431,0,1,0,1.98-2.067,65.855,65.855,0,0,1-7.369-8.385c4.555-3.147,3.008-10.066,2.459-12.5-.041-.181-.076-.331-.1-.446a1.432,1.432,0,0,0-1.345-1.515h-.008a1.5,1.5,0,0,0-.781.183,9.2,9.2,0,0,0-5.163,6.52q-1.494-2.769-2.71-5.671c3.476-1.318,5.3-5.157,5.423-11.456,0-.173,0-.316.008-.425a1.429,1.429,0,0,0-.951-1.783l-.059-.017a1.425,1.425,0,0,0-.742.005,9.28,9.28,0,0,0-6.573,5.1c-.516-1.982-.931-4-1.26-6.033,3.689-.482,6.349-3.777,7.915-9.84.041-.16.074-.295.1-.4a1.431,1.431,0,0,0-.538-1.952c-.024-.014-.049-.027-.074-.04a1.655,1.655,0,0,0-.671-.146,9.319,9.319,0,0,0-7.544,3.378c-.012-.51-.038-1.02-.038-1.533,0-1.522.07-3.031.172-4.535a6.625,6.625,0,0,0,.691.039c3.423,0,6.527-2.619,9.253-7.82.077-.148.141-.271.192-.363a1.463,1.463,0,0,0,.246-.367,1.433,1.433,0,0,0-.428-1.741,1.463,1.463,0,0,0-.561-.261,9.3,9.3,0,0,0-8.181,1.59q.632-3.035,1.541-5.983a6.575,6.575,0,0,0,2.208.4c2.91,0,6.038-1.913,9.344-5.723.116-.133.211-.245.286-.328a1.415,1.415,0,0,0,.349-.332,1.431,1.431,0,0,0-.286-2,1.5,1.5,0,0,0-.235-.143h0a9.27,9.27,0,0,0-8.351-.315,62.772,62.772,0,0,1,3-5.576,6.659,6.659,0,0,0,3.711,1.088c3.7,0,7.365-2.628,8.9-3.732.161-.116.292-.213.392-.28a1.433,1.433,0,0,0,.848-1.84,1.456,1.456,0,0,0-.423-.6Zm-14.386-8.251c1.636,2.665,1.594,5.91-.132,9.68a2.693,2.693,0,0,1-1.223-1.509c-.81-2.3.406-6.036,1.355-8.171Zm-8.9,22.877c-1.308-2-1.083-5.709-.707-7.939,2.24,2.159,3.006,5.223,2.282,9.143a2.78,2.78,0,0,1-1.579-1.2Zm-6.343,8.423c2.677,1.559,4.137,4.315,4.35,8.223a2.825,2.825,0,0,1-1.825-.815c-1.768-1.662-2.375-5.216-2.529-7.407Zm6.175,39.546c-2.254-.674-4.459-3.619-5.608-5.548,3.093.19,5.638,2.018,7.59,5.457a2.807,2.807,0,0,1-1.985.092Zm7.518,14.853c-2.42-.128-5.349-2.589-6.947-4.248,3.075-.527,6.029.714,8.809,3.7a2.8,2.8,0,0,1-1.865.549Zm-4.316-35.453a6,6,0,0,1,3.23-1.906c-.857,2.844-2.284,5.919-5.029,6.411a8.416,8.416,0,0,1,1.794-4.5Zm.959-14.529a6,6,0,0,1,3.579-1.114c-1.486,2.58-3.581,5.248-6.369,5.1a8.43,8.43,0,0,1,2.786-3.985Zm8.085-14.311c-2.068,2.21-4.759,4.391-7.445,3.582a8.572,8.572,0,0,1,3.71-3.317,5.98,5.98,0,0,1,3.731-.265ZM1449.8,928.255c-2.089-1.2-3.5-4.515-4.152-6.606,2.962.894,5.011,3.232,6.111,6.978a2.832,2.832,0,0,1-1.963-.371Zm15.089,23.194a5.917,5.917,0,0,1,1.987-3.144c.574,3.017.766,6.543-1.456,8.24a8.788,8.788,0,0,1-.535-5.095Zm-5.766-13.526a5.99,5.99,0,0,1,2.7-2.6c-.173,2.995-.846,6.358-3.4,7.475a8.495,8.495,0,0,1,.7-4.878Zm6.079-53.336a9.053,9.053,0,0,1,4.611-2.513,5.961,5.961,0,0,1,3.659.6c-2.608,1.738-5.841,3.334-8.274,1.913Z" fill="#080808"/>
    </g>
  </g>
</svg>
