<svg xmlns="http://www.w3.org/2000/svg" xmlns:xlink="http://www.w3.org/1999/xlink" width="95" height="95" viewBox="0 0 95 95">
  <defs>
    <clipPath id="clip-path">
      <rect id="長方形_213" data-name="長方形 213" width="95" height="95" transform="translate(301 1986)" fill="#fff" stroke="#707070" stroke-width="1"/>
    </clipPath>
  </defs>
  <g id="マスクグループ_17" data-name="マスクグループ 17" transform="translate(-301 -1986)" clip-path="url(#clip-path)">
    <g id="グループ_330" data-name="グループ 330" transform="translate(-953.595 1316.82)">
      <path id="パス_13761" data-name="パス 13761" d="M1282.243,725.689c-.278,1.964-1.8,13.491,6.571,22.133a23.644,23.644,0,0,0,8.3,5.461c7.916,3.081,19.059,2.471,27.024-4.93,9.564-8.889,8-21.495,7.835-22.663C1315.4,725.478,1298.82,725.9,1282.243,725.689Z" transform="translate(-2.941 -11.047)" fill="#006b9b" opacity="0.3"/>
      <g id="グループ_329" data-name="グループ 329" transform="translate(1271.007 684.499)" opacity="0.8">
        <path id="パス_13762" data-name="パス 13762" d="M1326.945,716.194a8.988,8.988,0,0,0-6.767,3.074c-1.861,2.13-2.065,4.712-2.244,6.99-.034.429-.07.873-.114,1.3a20.139,20.139,0,0,1-1.866,6.479,20.709,20.709,0,0,1-18.714,11.813h-2.682a20.72,20.72,0,0,1-20.721-20.72v-3.843a2.264,2.264,0,0,1,2.261-2.261h36.852a1.415,1.415,0,0,0,0-2.83H1276.1a5.1,5.1,0,0,0-5.091,5.091v3.843a23.552,23.552,0,0,0,23.551,23.55h2.682a23.54,23.54,0,0,0,21.269-13.426,23,23,0,0,0,2.125-7.4c.049-.461.085-.924.121-1.371.166-2.106.309-3.926,1.554-5.35a6.24,6.24,0,0,1,4.635-2.106c3.185,0,5.408,2.531,5.408,6.155,0,3.545-2.688,5.927-6.688,5.927a1.415,1.415,0,0,0,0,2.83,9.847,9.847,0,0,0,6.874-2.484,8.461,8.461,0,0,0,2.644-6.273C1335.183,719.972,1331.718,716.194,1326.945,716.194Z" transform="translate(-1271.007 -693.012)" fill="#080808"/>
        <path id="パス_13763" data-name="パス 13763" d="M1306.671,766.352c-7.631,1.852-16.32.826-22.135-2.615a1.415,1.415,0,0,0-1.441,2.435,29.549,29.549,0,0,0,11.631,3.683,36.969,36.969,0,0,0,4.172.236,35.941,35.941,0,0,0,8.44-.989,1.415,1.415,0,0,0-.667-2.75Z" transform="translate(-1274.067 -705.73)" fill="#080808"/>
        <path id="パス_13764" data-name="パス 13764" d="M1324.512,763.087a20.918,20.918,0,0,1-2.575,1.409,1.415,1.415,0,0,0,1.187,2.569,23.869,23.869,0,0,0,2.923-1.6,1.415,1.415,0,0,0-1.535-2.377Z" transform="translate(-1284.466 -705.547)" fill="#080808"/>
        <path id="パス_13765" data-name="パス 13765" d="M1301.782,701.794q.325.319.664.658a1.179,1.179,0,0,0,1.67-1.664c-.231-.233-.458-.456-.68-.675a10.743,10.743,0,0,1-2.335-2.8,3.336,3.336,0,0,1,.306-3.031,5.5,5.5,0,0,1,1.085-1.342,7.7,7.7,0,0,0,1.486-1.885,5.386,5.386,0,0,0-1.006-6.185,1.179,1.179,0,1,0-1.714,1.619,3.057,3.057,0,0,1,.619,3.5,5.74,5.74,0,0,1-1.065,1.3,7.468,7.468,0,0,0-1.53,1.973C1297.295,697.377,1299.475,699.523,1301.782,701.794Z" transform="translate(-1278.393 -684.499)" fill="#080808"/>
        <path id="パス_13766" data-name="パス 13766" d="M1315.429,701.794c.217.213.439.432.664.658a1.179,1.179,0,0,0,1.671-1.664c-.231-.233-.459-.456-.681-.675a10.729,10.729,0,0,1-2.335-2.8,3.333,3.333,0,0,1,.3-3.031,5.509,5.509,0,0,1,1.085-1.342,7.685,7.685,0,0,0,1.486-1.885,5.385,5.385,0,0,0-1.006-6.185,1.179,1.179,0,0,0-1.714,1.619,3.054,3.054,0,0,1,.619,3.5,5.7,5.7,0,0,1-1.065,1.3,7.456,7.456,0,0,0-1.53,1.973C1310.942,697.377,1313.122,699.523,1315.429,701.794Z" transform="translate(-1282.059 -684.499)" fill="#080808"/>
        <path id="パス_13767" data-name="パス 13767" d="M1288.778,702.408a1.179,1.179,0,1,0,1.753-1.577c-.326-.362-.652-.7-.969-1.034-2-2.084-2.9-3.189-1.782-5.516a5.519,5.519,0,0,1,1.086-1.342,7.7,7.7,0,0,0,1.486-1.885,5.386,5.386,0,0,0-1.006-6.185,1.179,1.179,0,0,0-1.715,1.619,3.056,3.056,0,0,1,.62,3.5,5.743,5.743,0,0,1-1.065,1.3,7.465,7.465,0,0,0-1.53,1.973c-1.883,3.9.288,6.172,2.2,8.172C1288.163,701.745,1288.476,702.073,1288.778,702.408Z" transform="translate(-1274.747 -684.499)" fill="#080808"/>
      </g>
    </g>
  </g>
</svg>
