<svg xmlns="http://www.w3.org/2000/svg" xmlns:xlink="http://www.w3.org/1999/xlink" width="95" height="95" viewBox="0 0 95 95">
  <defs>
    <clipPath id="clip-path">
      <rect id="長方形_211" data-name="長方形 211" width="95" height="95" transform="translate(301 1777)" fill="#fff" stroke="#707070" stroke-width="1"/>
    </clipPath>
  </defs>
  <g id="マスクグループ_15" data-name="マスクグループ 15" transform="translate(-301 -1777)" clip-path="url(#clip-path)">
    <g id="グループ_344" data-name="グループ 344" transform="translate(-756.3 1605.524)">
      <path id="パス_13781" data-name="パス 13781" d="M1125.942,268.243c-11.262-4.554-17.272-12.177-15.913-17.392a9.18,9.18,0,0,1,8.28-6.395c4.3-.052,7.056,3.515,7.414,3.993,3.438-3.389,7.826-4.536,11.017-3.008a8.166,8.166,0,0,1,4.02,5.283C1141.9,256.193,1135.95,263.254,1125.942,268.243Z" transform="translate(-15.353 -27.795)" fill="#006b9b" opacity="0.3"/>
      <g id="グループ_343" data-name="グループ 343" transform="translate(1073.061 177.873)" opacity="0.8">
        <g id="グループ_340" data-name="グループ 340">
          <path id="パス_13782" data-name="パス 13782" d="M1116.4,237.6a8.354,8.354,0,0,0-7.423-4.179,8.247,8.247,0,0,0-8.09,8.379c0,9.4,12.261,19.122,15.547,19.122,1.9,0,4.666-2.117,6.145-3.379.224-.191,5.515-4.714,6.935-7.021a1.066,1.066,0,1,0-1.815-1.117c-1.034,1.679-5.045,5.274-6.5,6.518-2.311,1.971-4.089,2.87-4.762,2.87-1.848,0-13.417-8.37-13.417-16.992a6.116,6.116,0,0,1,5.96-6.248,6.439,6.439,0,0,1,6.368,4.907,1.066,1.066,0,0,0,1.018.749h.072a1.065,1.065,0,0,0,1.017-.749,6.483,6.483,0,0,1,6.441-4.907,6.027,6.027,0,0,1,5.923,6.248,9.409,9.409,0,0,1-.337,2.4,1.066,1.066,0,0,0,2.06.546,11.569,11.569,0,0,0,.408-2.95,8.134,8.134,0,0,0-8.054-8.379A8.434,8.434,0,0,0,1116.4,237.6Z" transform="translate(-1084.677 -201.063)"/>
          <path id="パス_13783" data-name="パス 13783" d="M1135.557,193.784a42.74,42.74,0,0,1-27.56-13.05l-2.427-2.533-.009-.007a1.087,1.087,0,0,0-.1-.089c-.019-.015-.036-.033-.056-.046a1.067,1.067,0,0,0-.151-.083c-.011-.005-.021-.013-.032-.017a1.067,1.067,0,0,0-.835,0c-.009,0-.016.01-.025.013a1.1,1.1,0,0,0-.158.087c-.019.013-.035.03-.054.044a1.158,1.158,0,0,0-.106.091l-.008.007-2.428,2.533a42.736,42.736,0,0,1-27.56,13.05,1.065,1.065,0,0,0-.982,1.062v28.643c0,16.487,10.914,29.636,29.963,36.079l1.453.463a1.073,1.073,0,0,0,.323.049,1.059,1.059,0,0,0,.323-.05l1.471-.468c19.03-6.437,29.945-19.585,29.945-36.073V194.846A1.065,1.065,0,0,0,1135.557,193.784Zm-1.148,29.7c0,15.516-10.387,27.928-28.479,34.048l-1.13.359-1.111-.354c-18.11-6.126-28.5-18.538-28.5-34.054V195.82a44.857,44.857,0,0,0,27.95-13.612l.593-.619v18.791a1.066,1.066,0,0,0,2.131,0V181.59l.592.619a44.86,44.86,0,0,0,27.95,13.612Z" transform="translate(-1073.061 -177.873)"/>
        </g>
        <g id="グループ_341" data-name="グループ 341">
          <path id="パス_13784" data-name="パス 13784" d="M1116.4,237.6a8.354,8.354,0,0,0-7.423-4.179,8.247,8.247,0,0,0-8.09,8.379c0,9.4,12.261,19.122,15.547,19.122,1.9,0,4.666-2.117,6.145-3.379.224-.191,5.515-4.714,6.935-7.021a1.066,1.066,0,1,0-1.815-1.117c-1.034,1.679-5.045,5.274-6.5,6.518-2.311,1.971-4.089,2.87-4.762,2.87-1.848,0-13.417-8.37-13.417-16.992a6.116,6.116,0,0,1,5.96-6.248,6.439,6.439,0,0,1,6.368,4.907,1.066,1.066,0,0,0,1.018.749h.072a1.065,1.065,0,0,0,1.017-.749,6.483,6.483,0,0,1,6.441-4.907,6.027,6.027,0,0,1,5.923,6.248,9.409,9.409,0,0,1-.337,2.4,1.066,1.066,0,0,0,2.06.546,11.569,11.569,0,0,0,.408-2.95,8.134,8.134,0,0,0-8.054-8.379A8.434,8.434,0,0,0,1116.4,237.6Z" transform="translate(-1084.677 -201.063)" fill="#080808"/>
          <path id="パス_13785" data-name="パス 13785" d="M1135.557,193.784a42.74,42.74,0,0,1-27.56-13.05l-2.427-2.533-.009-.007a1.087,1.087,0,0,0-.1-.089c-.019-.015-.036-.033-.056-.046a1.067,1.067,0,0,0-.151-.083c-.011-.005-.021-.013-.032-.017a1.067,1.067,0,0,0-.835,0c-.009,0-.016.01-.025.013a1.1,1.1,0,0,0-.158.087c-.019.013-.035.03-.054.044a1.158,1.158,0,0,0-.106.091l-.008.007-2.428,2.533a42.736,42.736,0,0,1-27.56,13.05,1.065,1.065,0,0,0-.982,1.062v28.643c0,16.487,10.914,29.636,29.963,36.079l1.453.463a1.073,1.073,0,0,0,.323.049,1.059,1.059,0,0,0,.323-.05l1.471-.468c19.03-6.437,29.945-19.585,29.945-36.073V194.846A1.065,1.065,0,0,0,1135.557,193.784Zm-1.148,29.7c0,15.516-10.387,27.928-28.479,34.048l-1.13.359-1.111-.354c-18.11-6.126-28.5-18.538-28.5-34.054V195.82a44.857,44.857,0,0,0,27.95-13.612l.593-.619v18.791a1.066,1.066,0,0,0,2.131,0V181.59l.592.619a44.86,44.86,0,0,0,27.95,13.612Z" transform="translate(-1073.061 -177.873)" fill="#080808"/>
        </g>
        <g id="グループ_342" data-name="グループ 342" opacity="0.8">
          <path id="パス_13786" data-name="パス 13786" d="M1116.4,237.6a8.354,8.354,0,0,0-7.423-4.179,8.247,8.247,0,0,0-8.09,8.379c0,9.4,12.261,19.122,15.547,19.122,1.9,0,4.666-2.117,6.145-3.379.224-.191,5.515-4.714,6.935-7.021a1.066,1.066,0,1,0-1.815-1.117c-1.034,1.679-5.045,5.274-6.5,6.518-2.311,1.971-4.089,2.87-4.762,2.87-1.848,0-13.417-8.37-13.417-16.992a6.116,6.116,0,0,1,5.96-6.248,6.439,6.439,0,0,1,6.368,4.907,1.066,1.066,0,0,0,1.018.749h.072a1.065,1.065,0,0,0,1.017-.749,6.483,6.483,0,0,1,6.441-4.907,6.027,6.027,0,0,1,5.923,6.248,9.409,9.409,0,0,1-.337,2.4,1.066,1.066,0,0,0,2.06.546,11.569,11.569,0,0,0,.408-2.95,8.134,8.134,0,0,0-8.054-8.379A8.434,8.434,0,0,0,1116.4,237.6Z" transform="translate(-1084.677 -201.063)" fill="none" stroke="#080808" stroke-width="0.95"/>
          <path id="パス_13787" data-name="パス 13787" d="M1135.557,193.784a42.74,42.74,0,0,1-27.56-13.05l-2.427-2.533-.009-.007a1.087,1.087,0,0,0-.1-.089c-.019-.015-.036-.033-.056-.046a1.067,1.067,0,0,0-.151-.083c-.011-.005-.021-.013-.032-.017a1.067,1.067,0,0,0-.835,0c-.009,0-.016.01-.025.013a1.1,1.1,0,0,0-.158.087c-.019.013-.035.03-.054.044a1.158,1.158,0,0,0-.106.091l-.008.007-2.428,2.533a42.736,42.736,0,0,1-27.56,13.05,1.065,1.065,0,0,0-.982,1.062v28.643c0,16.487,10.914,29.636,29.963,36.079l1.453.463a1.073,1.073,0,0,0,.323.049,1.059,1.059,0,0,0,.323-.05l1.471-.468c19.03-6.437,29.945-19.585,29.945-36.073V194.846A1.065,1.065,0,0,0,1135.557,193.784Zm-1.148,29.7c0,15.516-10.387,27.928-28.479,34.048l-1.13.359-1.111-.354c-18.11-6.126-28.5-18.538-28.5-34.054V195.82a44.857,44.857,0,0,0,27.95-13.612l.593-.619v18.791a1.066,1.066,0,0,0,2.131,0V181.59l.592.619a44.86,44.86,0,0,0,27.95,13.612Z" transform="translate(-1073.061 -177.873)" fill="none" stroke="#080808" stroke-width="0.95"/>
        </g>
      </g>
    </g>
  </g>
</svg>
