<svg xmlns="http://www.w3.org/2000/svg" width="143.327" height="44.303" viewBox="0 0 143.327 44.303">
  <g id="グループ_594" data-name="グループ 594" transform="translate(-116 -30)">
    <text id="Recruit_Site" data-name="Recruit Site" transform="translate(141.854 71.303)" fill="#fff" font-size="15" font-family="Lato-BoldItalic, Lato" font-weight="700" font-style="italic" letter-spacing="0.05em"><tspan x="0" y="0">Recruit Site</tspan></text>
    <g id="グループ_468" data-name="グループ 468" transform="translate(53.38 -16.49)">
      <path id="パス_16" data-name="パス 16" d="M98.425,62.494a4.655,4.655,0,0,1-.39,2.108,2.328,2.328,0,0,1-1.06,1.175,3.257,3.257,0,0,1-1.655.387,3.293,3.293,0,0,1-1.579-.347,2.3,2.3,0,0,1-1.052-1.053,3.387,3.387,0,0,1-.357-.989,6.758,6.758,0,0,1-.119-1.359V52.9H88.188V63.011a8.145,8.145,0,0,0,.211,1.93,5.572,5.572,0,0,0,.657,1.592,5.733,5.733,0,0,0,2.462,2.148,7.96,7.96,0,0,0,3.8.8,9.221,9.221,0,0,0,2.165-.234,7.154,7.154,0,0,0,1.8-.659,5.852,5.852,0,0,0,1.462-1.031,5.437,5.437,0,0,0,1.01-1.342,6.725,6.725,0,0,0,.7-3.2V52.9H98.425Z" transform="translate(-2.251 -0.564)" fill="#fff"/>
      <path id="パス_17" data-name="パス 17" d="M108.934,59.579v9.132h3.946V59.875c0-5.506,7.527-3.136,7.527-3.136V53.071c-5.081-.943-11.473-.3-11.473,6.509" transform="translate(-4.078 -0.549)" fill="#fff"/>
      <path id="パス_18" data-name="パス 18" d="M125.347,53.071v3.67s7.6-1.868,7.6,2.262c-6.978-.129-9.712,1.766-9.712,5.608,0,2.1,1.337,4.427,5.21,4.427h8.38V59.69c0-6.809-6.392-7.56-11.474-6.619M129.122,66c-1.338,0-2.071-.658-2.071-1.784,0-2.193,2.9-2.305,5.824-2.249v4.022Z" transform="translate(-5.337 -0.551)" fill="#fff"/>
      <path id="パス_19" data-name="パス 19" d="M153.672,61.92a4,4,0,0,0-1.133-1.288,5.475,5.475,0,0,0-1.534-.773c-.567-.185-1.133-.341-1.7-.471-.361-.088-.736-.177-1.118-.267a7.867,7.867,0,0,1-1.1-.353,2.14,2.14,0,0,1-.83-.553,1.449,1.449,0,0,1-.317-.976c.085-1.523,2.037-1.571,3.709-1.312,1.457.225,3.654.792,3.654.792V53.575a16.33,16.33,0,0,0-5.244-.848,8.556,8.556,0,0,0-2.327.309,5.581,5.581,0,0,0-1.916.945,4.1,4.1,0,0,0-1.285,1.507,4.943,4.943,0,0,0-.436,2.286,4.168,4.168,0,0,0,.4,1.818,3.585,3.585,0,0,0,1.008,1.228,5.164,5.164,0,0,0,1.441.79,17.1,17.1,0,0,0,1.7.531c.463.108,1.009.217,1.432.325a7.074,7.074,0,0,1,1.13.383,2.379,2.379,0,0,1,.8.546,1.686,1.686,0,0,1,.317,1,1.24,1.24,0,0,1-.251.824,2.747,2.747,0,0,1-1.713.854,12.88,12.88,0,0,1-6.07-1.3v3.5a10.539,10.539,0,0,0,2.1.663,15.047,15.047,0,0,0,2.8.33,12.047,12.047,0,0,0,2.866-.219,6.141,6.141,0,0,0,2.219-.9,4.248,4.248,0,0,0,1.418-1.605,4.743,4.743,0,0,0,.47-2.31,5.586,5.586,0,0,0-.484-2.309" transform="translate(-6.998 -0.549)" fill="#fff"/>
      <path id="パス_20" data-name="パス 20" d="M74.617,55.959l8.63-9.409H77.766l-6.333,6.825a5.13,5.13,0,0,0-.018,7.551c1.437,1.528,4.745,4.837,7.152,7.35h5.667c-1.639-1.71-7.437-7.656-9.578-9.9a1.65,1.65,0,0,1-.038-2.42" transform="translate(-0.629 -0.005)" fill="#fff"/>
      <rect id="長方形_7" data-name="長方形 7" width="4.499" height="21.781" transform="translate(62.62 46.49)" fill="#fff"/>
      <path id="パス_21" data-name="パス 21" d="M169.3,64.166c3.628-1.823,5.563-.937,6.992.585v4.218H162.311V63.725a6.515,6.515,0,0,0,6.992.44" transform="translate(-8.778 -1.467)" fill="#fff"/>
      <path id="パス_22" data-name="パス 22" d="M169.3,58.93a6.586,6.586,0,0,1-6.993-.263v-4.54h13.983v5.4c-.085-.089-2.742-2.763-6.99-.6" transform="translate(-8.778 -0.673)" fill="#fff"/>
      <path id="パス_23" data-name="パス 23" d="M194.48,62.312a4.684,4.684,0,0,1-.388,2.108,2.349,2.349,0,0,1-1.063,1.175,3.731,3.731,0,0,1-3.232.038,2.289,2.289,0,0,1-1.054-1.052,3.475,3.475,0,0,1-.357-.99,6.878,6.878,0,0,1-.118-1.358V53.017h-4.026v9.812a8.152,8.152,0,0,0,.213,1.931,5.611,5.611,0,0,0,.655,1.593A5.759,5.759,0,0,0,187.57,68.5a7.969,7.969,0,0,0,3.806.8,9.171,9.171,0,0,0,2.164-.234,7.15,7.15,0,0,0,1.8-.658,5.876,5.876,0,0,0,1.462-1.031,5.5,5.5,0,0,0,1.01-1.342,6.742,6.742,0,0,0,.7-3.2V53.017H194.48Z" transform="translate(-10.709 -0.575)" fill="#fff"/>
      <path id="パス_24" data-name="パス 24" d="M211.113,53.017h-7.419v20.35h3.9V69.215a1.93,1.93,0,0,1,1.961-1.9h1.56a7.151,7.151,0,1,0,0-14.3m0,10.823h-1.619a2.842,2.842,0,0,0-1.842.656v-8.07h3.461a3.732,3.732,0,0,1,0,7.414" transform="translate(-12.422 -0.575)" fill="#fff"/>
    </g>
  </g>
</svg>
