<svg xmlns="http://www.w3.org/2000/svg" width="270.317" height="28.842" viewBox="0 0 270.317 28.842"><g transform="translate(-62.683 -25.579)"><text transform="translate(236 49)" fill="#fff" font-size="18" font-family="Lato-BoldItalic, Lato" font-weight="700" font-style="italic" letter-spacing="0.05em"><tspan x="0" y="0">Recruit Site</tspan></text><g transform="translate(0.063 -20.911)"><path d="M99.414,63.421a5.1,5.1,0,0,1-.428,2.311,2.553,2.553,0,0,1-1.162,1.288,3.571,3.571,0,0,1-1.815.424,3.611,3.611,0,0,1-1.732-.38,2.518,2.518,0,0,1-1.154-1.155,3.714,3.714,0,0,1-.391-1.085,7.41,7.41,0,0,1-.13-1.49V52.9H88.188v11.09a8.931,8.931,0,0,0,.231,2.116,6.11,6.11,0,0,0,.72,1.746,6.287,6.287,0,0,0,2.7,2.355,8.728,8.728,0,0,0,4.17.875,10.111,10.111,0,0,0,2.374-.257,7.845,7.845,0,0,0,1.972-.723,6.417,6.417,0,0,0,1.6-1.13,5.963,5.963,0,0,0,1.107-1.472,7.374,7.374,0,0,0,.764-3.51V52.9H99.414Z" fill="#fff"/><path d="M108.934,60.241V70.255h4.327v-9.69c0-6.038,8.254-3.439,8.254-3.439V53.1c-5.572-1.034-12.581-.33-12.581,7.137" fill="#fff"/><path d="M125.551,53.1v4.024s8.33-2.048,8.33,2.48c-7.652-.142-10.65,1.937-10.65,6.15,0,2.3,1.466,4.854,5.713,4.854h9.189V60.361c0-7.467-7.009-8.29-12.582-7.258m4.14,14.182c-1.467,0-2.271-.721-2.271-1.956,0-2.405,3.177-2.528,6.386-2.466v4.41Z" fill="#fff"/><path d="M154.79,62.808a4.384,4.384,0,0,0-1.242-1.412,6,6,0,0,0-1.682-.848c-.622-.2-1.242-.374-1.86-.517-.4-.1-.807-.194-1.226-.293a8.626,8.626,0,0,1-1.21-.387,2.346,2.346,0,0,1-.91-.606,1.589,1.589,0,0,1-.348-1.07c.093-1.67,2.234-1.723,4.067-1.439,1.6.247,4.007.868,4.007.868V53.657a17.907,17.907,0,0,0-5.75-.93,9.383,9.383,0,0,0-2.552.339,6.121,6.121,0,0,0-2.1,1.036,4.5,4.5,0,0,0-1.409,1.652,5.42,5.42,0,0,0-.478,2.507,4.571,4.571,0,0,0,.443,1.993,3.931,3.931,0,0,0,1.1,1.347,5.663,5.663,0,0,0,1.58.866,18.754,18.754,0,0,0,1.859.582c.508.118,1.106.238,1.57.356a7.758,7.758,0,0,1,1.239.42,2.609,2.609,0,0,1,.873.6,1.848,1.848,0,0,1,.348,1.094,1.36,1.36,0,0,1-.275.9,3.012,3.012,0,0,1-1.878.936,14.123,14.123,0,0,1-6.656-1.427v3.843a11.557,11.557,0,0,0,2.306.727,16.5,16.5,0,0,0,3.065.362,13.211,13.211,0,0,0,3.143-.24,6.734,6.734,0,0,0,2.433-.99,4.658,4.658,0,0,0,1.555-1.76,5.2,5.2,0,0,0,.515-2.533,6.125,6.125,0,0,0-.531-2.532" fill="#fff"/><path d="M75.086,56.868,84.549,46.55h-6.01l-6.945,7.484a5.626,5.626,0,0,0-.02,8.28c1.576,1.676,5.2,5.3,7.843,8.06h6.214c-1.8-1.875-8.155-8.4-10.5-10.852a1.81,1.81,0,0,1-.042-2.654" fill="#fff"/><rect width="4.933" height="23.884" transform="translate(62.62 46.49)" fill="#fff"/><path d="M169.978,64.264c3.978-2,6.1-1.027,7.667.641V69.53H162.311V63.781a7.144,7.144,0,0,0,7.667.483" fill="#fff"/><path d="M169.979,59.394a7.222,7.222,0,0,1-7.668-.288V54.128h15.333v5.926c-.093-.1-3.007-3.03-7.665-.66" fill="#fff"/><path d="M195.469,63.209a5.136,5.136,0,0,1-.426,2.312,2.576,2.576,0,0,1-1.166,1.289,4.091,4.091,0,0,1-3.544.042,2.51,2.51,0,0,1-1.156-1.154,3.809,3.809,0,0,1-.392-1.086,7.541,7.541,0,0,1-.129-1.489V53.017h-4.415V63.776a8.94,8.94,0,0,0,.234,2.117,6.153,6.153,0,0,0,.718,1.747,6.315,6.315,0,0,0,2.7,2.355,8.739,8.739,0,0,0,4.173.874,10.056,10.056,0,0,0,2.373-.257,7.839,7.839,0,0,0,1.972-.721,6.443,6.443,0,0,0,1.6-1.131,6.03,6.03,0,0,0,1.108-1.472,7.392,7.392,0,0,0,.763-3.512V53.017h-4.415Z" fill="#fff"/><path d="M211.829,53.017h-8.135V75.332h4.274V70.779a2.116,2.116,0,0,1,2.15-2.081h1.711a7.841,7.841,0,1,0,0-15.681m0,11.868h-1.775a3.116,3.116,0,0,0-2.02.719V56.755h3.795a4.093,4.093,0,0,1,0,8.13" fill="#fff"/></g></g></svg>