<?xml version="1.0" encoding="utf-8"?>
<!-- Generator: Adobe Illustrator 26.0.1, SVG Export Plug-In . SVG Version: 6.00 Build 0)  -->
<svg version="1.1" id="レイヤー_1" xmlns="http://www.w3.org/2000/svg" xmlns:xlink="http://www.w3.org/1999/xlink" x="0px"
	 y="0px" viewBox="0 0 556.59 102.14" style="enable-background:new 0 0 556.59 102.14;" xml:space="preserve">
<style type="text/css">
	.st0{fill:#FFFFFF;}
</style>
<g>
	<path class="st0" d="M130.3,59.96c0,3.5-0.5,6.22-1.52,8.18c-1.01,2.04-2.12,3.57-4.12,4.56c-2,1-3.62,1.5-6.43,1.5
		c-2.69,0-4.2-0.45-6.13-1.34c-1.94-0.9-3.04-2.26-4.09-4.09c-0.62-1.09-1.08-2.36-1.38-3.84c-0.31-1.49-0.46-3.24-0.46-5.28V22.7
		H90.54v39.27c0,2.75,0.27,5.25,0.82,7.5c0.55,2.25,1.4,4.31,2.55,6.18c2.15,3.5,5.33,6.28,9.56,8.34c4.22,2.07,8.35,3.1,14.77,3.1
		c3.38,0,5.65-0.31,8.41-0.91c2.74-0.6,4.81-1.46,6.98-2.56c2.18-1.1,4.07-2.44,5.68-4c1.6-1.57,2.91-3.3,3.92-5.21
		c1.8-3.38,2.71-7.52,2.71-12.43V22.7H130.3V59.96z"/>
	<path class="st0" d="M164.02,48.7v35.46h15.32V49.85c0-21.39,29.23-12.18,29.23-12.18V23.42C188.84,19.76,164.02,22.26,164.02,48.7
		z"/>
	<path class="st0" d="M222.86,23.42v14.25c0,0,29.5-7.25,29.5,8.78c-27.1-0.5-37.71,6.86-37.71,21.78c0,8.16,5.19,17.19,20.23,17.19
		h17.22h15.32v-36.3C267.42,22.68,242.6,19.77,222.86,23.42z M237.52,73.65c-5.2,0-8.04-2.55-8.04-6.93
		c0-8.52,11.25-8.95,22.62-8.74V73.6L237.52,73.65z"/>
	<path class="st0" d="M326.41,57.79c-1.16-2.05-2.63-3.71-4.4-5c-1.78-1.29-3.76-2.29-5.96-3c-2.21-0.72-4.4-1.33-6.59-1.83
		c-1.4-0.34-2.86-0.68-4.34-1.04c-1.48-0.36-2.91-0.81-4.28-1.37c-1.37-0.54-2.44-1.26-3.22-2.15c-0.79-0.88-1.31-2.41-1.23-3.79
		c0.33-5.92,7.91-6.1,14.4-5.1c5.66,0.88,14.19,3.07,14.19,3.07V25.38c-2.77-0.98-6.01-1.77-9.42-2.38
		c-3.42-0.61-7.07-0.92-10.94-0.92c-3.2,0-6.2,0.41-9.04,1.2c-2.84,0.8-5.31,2.02-7.44,3.67c-2.12,1.64-3.78,3.34-4.99,5.85
		c-1.21,2.51-1.78,5.47-1.69,8.88c0.06,2.78,0.59,5.13,1.57,7.06c0.99,1.92,2.28,3.51,3.91,4.77c1.62,1.28,3.49,2.3,5.6,3.07
		c2.11,0.78,4.31,1.48,6.58,2.06c1.8,0.42,3.92,0.84,5.56,1.26c1.65,0.42,3.11,0.92,4.39,1.48c1.28,0.57,2.31,1.27,3.09,2.12
		c0.78,0.84,1.21,2.57,1.23,3.88c0.03,1.26-0.29,2.34-0.98,3.2c-0.67,0.89-2.93,2.76-6.65,3.31c-4.29,0.62-13.74-0.63-23.57-5.05
		v13.61c2.11,0.99,4.94,1.86,8.17,2.57c3.22,0.72,6.83,1.15,10.86,1.28c4.05,0.14,7.77-0.15,11.13-0.85
		c3.37-0.71,6.24-1.88,8.61-3.5c2.39-1.63,4.22-3.7,5.51-6.23c1.3-2.52,1.9-5.51,1.82-8.97C328.21,63.59,327.58,59.84,326.41,57.79z
		"/>
	<path class="st0" d="M44.15,36.75L77.66,0.21H56.37l-24.59,26.5c-6.35,6.58-10.66,18.06-0.07,29.32
		c5.58,5.93,18.43,18.78,27.78,28.54h22.01c-6.36-6.64-28.88-29.73-37.2-38.43C42.37,44.14,40.75,40.84,44.15,36.75z"/>
	<rect class="st0" width="17.47" height="84.58"/>
	<g>
		<path class="st0" d="M380.2,62.95c14.09-7.08,21.6-3.64,27.15,2.27v16.38h-54.3V61.24C353.38,61.58,364.83,70.67,380.2,62.95z"/>
		<path class="st0" d="M380.2,45.7c-12.33,6.29-21.88,2.53-27.15-1.02V27.05h54.3v20.99C407.02,47.69,396.69,37.3,380.2,45.7z"/>
	</g>
	<g>
		<g>
			<path class="st0" d="M470.47,59.21c0,3.5-0.5,6.23-1.51,8.19c-1.02,2.04-2.12,3.56-4.13,4.57c-2,1-3.61,1.5-6.42,1.5
				c-2.69,0-4.2-0.45-6.13-1.35c-1.94-0.89-3.04-2.26-4.09-4.09c-0.61-1.09-1.08-2.36-1.39-3.84c-0.3-1.48-0.46-3.23-0.46-5.27
				V23.12h-15.63v38.1c0,2.75,0.28,5.25,0.83,7.5c0.55,2.25,1.4,4.31,2.54,6.18c2.15,3.5,5.34,6.28,9.56,8.34
				c4.22,2.07,8.35,3.1,14.78,3.1c3.38,0,5.65-0.31,8.4-0.91c2.74-0.6,4.81-1.46,6.98-2.56c2.18-1.1,4.07-2.44,5.68-4
				c1.6-1.57,2.91-3.31,3.93-5.21c1.8-3.38,2.7-7.52,2.7-12.44v-38.1h-15.64V59.21z"/>
			<path class="st0" d="M528.41,23.12H499.6v79.02h15.14V86.02c0-4.07,3.41-7.37,7.62-7.37h6.06c15.22,0,28.18-12.76,28.18-27.76
				C556.59,35.88,543.63,23.12,528.41,23.12z M528.41,65.14h-6.29c-3.4,0.04-5.05,1.08-7.15,2.55V36.35h13.44
				c6.73,0,12.81,6.79,12.81,14.4C541.22,58.36,535.13,65.14,528.41,65.14z"/>
		</g>
	</g>
</g>
</svg>
