<svg xmlns="http://www.w3.org/2000/svg" width="42.018" height="61.124" viewBox="0 0 42.018 61.124">
  <g id="グループ_258" data-name="グループ 258" transform="translate(-714.857 -861.26)">
    <path id="パス_13581" data-name="パス 13581" d="M742.8,903.277a2.7,2.7,0,0,0,.964-.175h0c1.732-.657,2.212-2.831,2.676-4.934.3-1.373.616-2.793,1.222-3.364.653-.614,2.135-.855,3.57-1.088,2.076-.337,4.223-.685,4.95-2.3s-.435-3.454-1.559-5.232c-.777-1.228-1.58-2.5-1.552-3.394.025-.832.881-2.008,1.709-3.145,1.267-1.741,2.576-3.541,1.92-5.275s-2.831-2.212-4.934-2.676c-1.373-.3-2.793-.616-3.364-1.222-.615-.652-.856-2.136-1.088-3.57-.337-2.076-.685-4.222-2.3-4.95s-3.453.435-5.231,1.559c-1.228.776-2.5,1.567-3.394,1.552-.832-.026-2.008-.881-3.145-1.708-1.741-1.267-3.543-2.576-5.274-1.92s-2.212,2.831-2.676,4.934c-.3,1.373-.616,2.793-1.222,3.364-.653.614-2.136.855-3.57,1.088-2.076.337-4.222.685-4.95,2.3s.434,3.454,1.558,5.231c.777,1.228,1.58,2.5,1.552,3.394-.026.832-.881,2.008-1.708,3.145-1.267,1.741-2.577,3.542-1.92,5.274s2.831,2.212,4.934,2.676c1.373.3,2.793.616,3.364,1.222.615.652.855,2.136,1.088,3.57.336,2.076.685,4.223,2.3,4.95s3.454-.434,5.232-1.559c1.228-.776,2.5-1.579,3.394-1.552.832.026,2.008.881,3.145,1.709C739.91,902.215,741.37,903.277,742.8,903.277Zm-7.5-5.362c-1.347,0-2.789.912-4.184,1.794-1.363.862-2.907,1.836-3.759,1.455s-1.144-2.188-1.4-3.779c-.27-1.666-.55-3.389-1.491-4.389-.9-.956-2.485-1.305-4.162-1.675-1.619-.357-3.455-.762-3.813-1.707s.747-2.464,1.723-3.805c1.011-1.39,1.966-2.7,2.006-4.014.042-1.373-.891-2.848-1.793-4.274-.862-1.363-1.838-2.907-1.455-3.759s2.188-1.145,3.779-1.4c1.666-.271,3.389-.55,4.389-1.492.956-.9,1.305-2.485,1.675-4.162.357-1.619.762-3.455,1.707-3.813s2.465.748,3.805,1.723c1.389,1.011,2.7,1.966,4.014,2.006,1.365.046,2.848-.891,4.274-1.793,1.363-.862,2.907-1.835,3.759-1.455s1.144,2.188,1.4,3.779c.271,1.666.55,3.389,1.492,4.389.9.956,2.485,1.305,4.162,1.675,1.62.357,3.455.762,3.813,1.707s-.747,2.465-1.723,3.806c-1.01,1.389-1.965,2.7-2.006,4.014-.042,1.373.891,2.848,1.793,4.274.862,1.363,1.839,2.907,1.456,3.759s-2.188,1.145-3.779,1.4c-1.666.271-3.389.55-4.389,1.492-.956.9-1.305,2.485-1.675,4.162-.357,1.619-.762,3.455-1.707,3.813s-2.465-.748-3.806-1.723c-1.389-1.011-2.7-1.966-4.014-2.006Z" fill="rgba(255,255,255,0.9)"/>
    <path id="パス_13582" data-name="パス 13582" d="M759.808,893.221a12.988,12.988,0,1,0-12.988,12.988A13,13,0,0,0,759.808,893.221Zm-12.988,11.43a11.43,11.43,0,1,1,11.43-11.43A11.443,11.443,0,0,1,746.82,904.651Z" transform="translate(-10.954 -10.953)" fill="rgba(255,255,255,0.9)"/>
    <path id="パス_13583" data-name="パス 13583" d="M780.156,958.467a.779.779,0,0,0-1.349.779l6.711,11.625-5.365.257a.779.779,0,0,0-.618.357L776.63,976l-6.711-11.624a.779.779,0,0,0-1.349.779l7.35,12.73a.779.779,0,0,0,.656.389h.019a.78.78,0,0,0,.655-.357l3.38-5.254,6.24-.3a.779.779,0,0,0,.637-1.168Z" transform="translate(-30.948 -55.892)" fill="rgba(255,255,255,0.9)"/>
    <path id="パス_13584" data-name="パス 13584" d="M781.092,965.4a.779.779,0,0,0-.285,1.064l4.455,7.716a.779.779,0,0,0,1.349-.779l-4.455-7.716A.779.779,0,0,0,781.092,965.4Z" transform="translate(-38.012 -60.056)" fill="rgba(255,255,255,0.9)"/>
    <path id="パス_13585" data-name="パス 13585" d="M734.114,964.091a.778.778,0,0,0-1.064.285L726.338,976l-2.905-4.517a.78.78,0,0,0-.618-.357l-5.364-.257,6.711-11.625a.779.779,0,1,0-1.349-.779l-7.35,12.73a.779.779,0,0,0,.637,1.168l6.24.3,3.379,5.254a.78.78,0,0,0,.655.357h.019a.778.778,0,0,0,.656-.389l7.35-12.73A.778.778,0,0,0,734.114,964.091Z" transform="translate(-0.289 -55.891)" fill="rgba(255,255,255,0.9)"/>
    <path id="パス_13586" data-name="パス 13586" d="M734.576,974.459a.779.779,0,0,0,1.064-.285l4.455-7.716a.779.779,0,1,0-1.349-.779l-4.455,7.716A.778.778,0,0,0,734.576,974.459Z" transform="translate(-11.159 -60.055)" fill="rgba(255,255,255,0.9)"/>
  </g>
</svg>
