<svg xmlns="http://www.w3.org/2000/svg" width="78" height="58" viewBox="0 0 78 58">
  <g id="グループ_253" data-name="グループ 253" transform="translate(-384.205 -543.722)">
    <path id="パス_13556" data-name="パス 13556" d="M430.21,597.918c-.565-.871-1.147-1.767-1.666-2.6a20.6,20.6,0,0,0,1.643-3.5.857.857,0,0,0-.545-1.1.891.891,0,0,0-1.127.532,19.088,19.088,0,0,1-1.759,3.63.845.845,0,0,0,0,.89c.593.965,1.288,2.035,1.96,3.07l.281.433a25.415,25.415,0,0,1-4.79,4.559l-.57-.37c-1.017-.663-1.894-1.235-2.969-1.9a.905.905,0,0,0-.914-.02,20.081,20.081,0,0,1-5.039,1.976.875.875,0,0,0-.646.632c-.242.957-.511,2.13-.772,3.264-.06.259-.118.513-.174.758a26.144,26.144,0,0,1-6.856-.081l-.125-.611c-.241-1.187-.49-2.414-.72-3.434a.874.874,0,0,0-.627-.646,20.233,20.233,0,0,1-4.988-2.1.906.906,0,0,0-.912,0c-.93.54-1.953,1.172-2.944,1.782l-.654.4a25.414,25.414,0,0,1-4.674-4.671l.355-.519c.685-1,1.394-2.035,1.973-2.935a.845.845,0,0,0,.018-.887,19.127,19.127,0,0,1-2.028-4.913.874.874,0,0,0-.647-.628c-1.027-.246-2.216-.5-3.365-.754l-.76-.165a24.127,24.127,0,0,1,.084-6.684l.723-.14c1.171-.226,2.382-.459,3.425-.682a.874.874,0,0,0,.664-.613,19.1,19.1,0,0,1,2.151-4.865.845.845,0,0,0,0-.89c-.626-1.018-1.413-2.229-2.107-3.3l-.134-.206a25.522,25.522,0,0,1,4.792-4.559l.692.451c.97.632,1.808,1.178,2.849,1.82a.9.9,0,0,0,.914.019,20,20,0,0,1,5.037-1.977.875.875,0,0,0,.645-.63c.236-.929.48-2,.717-3.03.077-.337.153-.67.228-.993a25.926,25.926,0,0,1,6.856.08c.049.236.1.477.147.72.231,1.135.469,2.309.7,3.326a.874.874,0,0,0,.628.644,20.127,20.127,0,0,1,4.986,2.1.9.9,0,0,0,.911,0c.988-.573,2.087-1.251,3.149-1.907l.444-.273c.475.369.973.764,1.392,1.138a.9.9,0,0,0,1.251-.053.847.847,0,0,0-.055-1.219c-.569-.508-1.241-1.028-1.833-1.487l-.145-.112a.9.9,0,0,0-1.022-.054l-.979.6c-.892.551-1.81,1.118-2.658,1.619a21.951,21.951,0,0,0-4.451-1.872c-.193-.876-.39-1.846-.581-2.789-.092-.453-.182-.9-.268-1.314a.875.875,0,0,0-.719-.68,27.854,27.854,0,0,0-8.606-.1.876.876,0,0,0-.736.66c-.118.5-.241,1.039-.367,1.586-.193.842-.391,1.707-.583,2.494a21.792,21.792,0,0,0-4.5,1.765c-.828-.518-1.551-.989-2.369-1.522-.378-.246-.775-.5-1.21-.786a.906.906,0,0,0-1,.016,27.278,27.278,0,0,0-6.041,5.746.845.845,0,0,0-.041.979l.465.717c.591.91,1.25,1.923,1.813,2.824a20.8,20.8,0,0,0-1.919,4.341c-.9.186-1.9.379-2.877.567l-1.331.258a.873.873,0,0,0-.7.7,25.909,25.909,0,0,0-.105,8.391.872.872,0,0,0,.68.718c.433.1.895.2,1.366.3.953.207,1.933.42,2.818.626a20.808,20.808,0,0,0,1.81,4.385c-.509.775-1.1,1.632-1.666,2.465l-.7,1.023a.845.845,0,0,0,.017.977,27.173,27.173,0,0,0,5.891,5.889.906.906,0,0,0,1,.042c.38-.233.778-.478,1.182-.727.822-.507,1.667-1.029,2.455-1.5a22.039,22.039,0,0,0,4.451,1.871c.2.893.4,1.91.6,2.9l.245,1.2a.876.876,0,0,0,.72.681,28.19,28.19,0,0,0,4.624.385,28.568,28.568,0,0,0,3.982-.282.878.878,0,0,0,.737-.662c.1-.417.2-.875.311-1.349.215-.934.435-1.9.64-2.733a21.891,21.891,0,0,0,4.5-1.765c.864.541,1.626,1.038,2.489,1.6l1.086.707a.9.9,0,0,0,1-.016,27.158,27.158,0,0,0,6.04-5.748.843.843,0,0,0,.041-.977Z" transform="translate(0 -8.365)" fill="rgba(255,255,255,0.9)"/>
    <path id="パス_13557" data-name="パス 13557" d="M430.435,595.822a.885.885,0,1,0,.655-1.645,9.615,9.615,0,0,0-10.4,15.687,9.611,9.611,0,0,0,13.576,0,.885.885,0,1,0-1.252-1.252,7.837,7.837,0,0,1-11.065.007,7.844,7.844,0,0,1,8.481-12.8Z" transform="translate(-17.895 -26.61)" fill="rgba(255,255,255,0.9)"/>
    <path id="パス_13558" data-name="パス 13558" d="M508.61,560.829a.885.885,0,0,0-.7-.721l-1.054-.211c-.736-.147-1.506-.3-2.208-.448a17.49,17.49,0,0,0-1.465-3.409c.439-.716.945-1.512,1.4-2.229l.37-.584a.885.885,0,0,0-.04-1,22.233,22.233,0,0,0-4.866-4.759.885.885,0,0,0-1-.018l-.962.641c-.627.418-1.185.79-1.813,1.193a17.342,17.342,0,0,0-3.44-1.39c-.146-.62-.295-1.291-.44-1.945-.1-.45-.2-.891-.292-1.3a.884.884,0,0,0-.734-.679,21.9,21.9,0,0,0-6.941.076.885.885,0,0,0-.72.7l-.213,1.062c-.148.742-.3,1.5-.448,2.2a17.489,17.489,0,0,0-3.407,1.465c-.65-.4-1.347-.839-2.026-1.271l-.791-.5a.884.884,0,0,0-1.022.055l-.109.086c-.479.379-1.022.809-1.485,1.231a.885.885,0,0,0,1.194,1.308c.3-.277.66-.569,1.008-.847l.256.163c.848.538,1.724,1.095,2.514,1.566a.885.885,0,0,0,.911,0,15.728,15.728,0,0,1,3.946-1.7.886.886,0,0,0,.628-.66c.188-.841.381-1.811.568-2.75l.09-.452a20.048,20.048,0,0,1,5.19-.056l.154.692c.189.851.384,1.731.572,2.492a.885.885,0,0,0,.644.647,15.571,15.571,0,0,1,3.982,1.609.886.886,0,0,0,.914-.019c.838-.528,1.512-.978,2.291-1.5l.443-.295a20.466,20.466,0,0,1,3.619,3.54l-.036.058c-.558.879-1.191,1.875-1.695,2.713a.885.885,0,0,0,0,.913,15.7,15.7,0,0,1,1.7,3.951.885.885,0,0,0,.663.63c.836.184,1.823.38,2.754.566l.443.089a20.12,20.12,0,0,1,.058,5.19l-.479.107c-.916.2-1.881.417-2.7.618a.887.887,0,0,0-.648.644,15.724,15.724,0,0,1-1.609,3.985.886.886,0,0,0,.017.91c.466.744,1.034,1.6,1.584,2.423l.208.314a20.419,20.419,0,0,1-3.539,3.619l-.423-.269c-.79-.5-1.608-1.02-2.351-1.464a.887.887,0,0,0-.912,0,15.792,15.792,0,0,1-3.949,1.7.884.884,0,0,0-.627.661c-.185.833-.39,1.862-.579,2.814l-.077.386a20.237,20.237,0,0,1-5.19.057l-.109-.491c-.2-.917-.425-1.906-.617-2.693a.885.885,0,0,0-.644-.649,15.625,15.625,0,0,1-3.984-1.609.885.885,0,0,0-.914.02c-.861.543-1.563,1.012-2.377,1.555l-.355.236a20.355,20.355,0,0,1-3.618-3.541l.159-.252c.539-.848,1.1-1.727,1.572-2.519a.885.885,0,0,0,0-.913,15.655,15.655,0,0,1-1.388-2.948.885.885,0,1,0-1.673.579,17.31,17.31,0,0,0,1.273,2.816c-.4.653-.846,1.354-1.279,2.036l-.492.777a.886.886,0,0,0,.04,1,22.152,22.152,0,0,0,4.865,4.762.886.886,0,0,0,1,.017l.874-.581c.659-.44,1.245-.83,1.9-1.25a17.428,17.428,0,0,0,3.44,1.389c.158.672.327,1.433.487,2.149l.246,1.1a.885.885,0,0,0,.736.68,22.425,22.425,0,0,0,3.237.238,22.178,22.178,0,0,0,3.7-.315.884.884,0,0,0,.721-.7l.2-1c.15-.753.309-1.555.461-2.267a17.544,17.544,0,0,0,3.407-1.465c.6.368,1.242.774,1.865,1.17.326.206.646.409.952.6a.885.885,0,0,0,1-.041,22.215,22.215,0,0,0,4.757-4.866.885.885,0,0,0,.018-1l-.553-.833c-.436-.655-.884-1.328-1.278-1.943a17.513,17.513,0,0,0,1.389-3.441c.687-.161,1.438-.328,2.159-.488l1.086-.242a.885.885,0,0,0,.681-.736A21.975,21.975,0,0,0,508.61,560.829Z" transform="translate(-46.72)" fill="rgba(255,255,255,0.9)"/>
    <path id="パス_13559" data-name="パス 13559" d="M500.17,584.588a6.05,6.05,0,0,1-4.3-1.788.885.885,0,0,0-1.253,1.251,7.808,7.808,0,0,0,5.553,2.308h.01a7.822,7.822,0,0,0,6.513-12.175,7.729,7.729,0,0,0-9.455-2.97.885.885,0,1,0,.653,1.646,6.1,6.1,0,0,1,6.587,9.951A6.129,6.129,0,0,1,500.17,584.588Z" transform="translate(-58.472 -14.361)" fill="rgba(255,255,255,0.9)"/>
  </g>
</svg>
