<svg xmlns="http://www.w3.org/2000/svg" width="58" height="57.466" viewBox="0 0 58 57.466">
  <g id="グループ_257" data-name="グループ 257" transform="translate(-678.513 -797.298)">
    <path id="パス_13577" data-name="パス 13577" d="M700.217,904.411h0l-6.852,0a.428.428,0,0,1-.127-.331.626.626,0,0,1,.29-.4,3.374,3.374,0,0,0,1.208-2.781,4.129,4.129,0,0,0-7.326-2.631,4.205,4.205,0,0,0-.93,3.2,3.244,3.244,0,0,0,1.172,2.215.626.626,0,0,1,.29.4.39.39,0,0,1-.143.329l-6.484,0h0a1.984,1.984,0,0,0-1.984,1.984v15.791a4.72,4.72,0,0,0,4.715,4.715h16.18a1.6,1.6,0,0,0,1.6-1.6v-6.839a1.577,1.577,0,0,0-.559-1.213,1.97,1.97,0,0,0-1.519-.469,2.139,2.139,0,0,0-1.458.914,1.932,1.932,0,0,1-1.525.571,2.588,2.588,0,0,1-2.583-2.764,2.533,2.533,0,0,1,.941-1.8,2.636,2.636,0,0,1,2.007-.589,1.8,1.8,0,0,1,1.149.534,2.152,2.152,0,0,0,1.469.928,1.967,1.967,0,0,0,1.519-.469,1.575,1.575,0,0,0,.559-1.213v-6.881a1.6,1.6,0,0,0-1.6-1.6Zm.043,8.5a.422.422,0,0,1-.323.117.632.632,0,0,1-.4-.29,3.249,3.249,0,0,0-2.215-1.172,4.206,4.206,0,0,0-3.2.93,4.133,4.133,0,0,0,2.63,7.326,3.374,3.374,0,0,0,2.782-1.209.63.63,0,0,1,.4-.289.388.388,0,0,1,.326.137v6.839a.039.039,0,0,1-.038.039h-16.18a3.161,3.161,0,0,1-3.157-3.157V906.4a.427.427,0,0,1,.427-.426h0l6.484,0a1.576,1.576,0,0,0,1.189-.53,1.974,1.974,0,0,0,.5-1.536,2.146,2.146,0,0,0-.931-1.488,1.819,1.819,0,0,1-.534-1.149,2.641,2.641,0,0,1,.589-2.008,2.534,2.534,0,0,1,1.8-.942,2.589,2.589,0,0,1,2.764,2.583,1.943,1.943,0,0,1-.557,1.515,2.148,2.148,0,0,0-.931,1.488,1.973,1.973,0,0,0,.5,1.536,1.575,1.575,0,0,0,1.188.53l6.837,0a.051.051,0,0,1,.045.046Z" transform="translate(-0.592 -72.137)" fill="rgba(255,255,255,0.9)"/>
    <path id="パス_13578" data-name="パス 13578" d="M813.166,804.966l-14.344-7.487a1.6,1.6,0,0,0-2.153.677l-3.165,6.063a1.576,1.576,0,0,0-.066,1.333,1.966,1.966,0,0,0,1.129,1.119,2.141,2.141,0,0,0,1.717-.136,1.929,1.929,0,0,1,1.616.2,2.589,2.589,0,0,1,1.011,3.645,2.536,2.536,0,0,1-1.669,1.162,2.641,2.641,0,0,1-2.051-.407,1.8,1.8,0,0,1-.771-1.006,2.152,2.152,0,0,0-.873-1.5,1.966,1.966,0,0,0-1.564-.287,1.577,1.577,0,0,0-1.056.816l-3.011,5.769a1.976,1.976,0,0,0,.838,2.667l5.746,2.994a.429.429,0,0,1-.04.352.628.628,0,0,1-.443.222,3.375,3.375,0,0,0-2.358,1.906,4.163,4.163,0,0,0-.237,3.29,4.113,4.113,0,0,0,2.244,2.424,4.039,4.039,0,0,0,1.638.347,4.226,4.226,0,0,0,3.91-2.672,3.264,3.264,0,0,0,.013-2.577.627.627,0,0,1-.071-.49.39.39,0,0,1,.279-.225l5.524,2.887a2.234,2.234,0,0,0,3.016-.946l7.191-13.777A4.72,4.72,0,0,0,813.166,804.966Zm-6.574,19.417a.677.677,0,0,1-.914.287l-5.525-2.887a1.575,1.575,0,0,0-1.3-.08,1.972,1.972,0,0,0-1.156,1.129,2.134,2.134,0,0,0,.129,1.735,1.8,1.8,0,0,1-.067,1.325,2.645,2.645,0,0,1-1.454,1.474,2.539,2.539,0,0,1-2.013-.01,2.589,2.589,0,0,1-1.255-3.569,1.947,1.947,0,0,1,1.195-1.085,2.147,2.147,0,0,0,1.514-.889,1.973,1.973,0,0,0,.266-1.594,1.574,1.574,0,0,0-.808-1.02l-5.731-2.988a.418.418,0,0,1-.177-.565l3.023-5.786a.616.616,0,0,1,.13-.015.359.359,0,0,1,.21.061.63.63,0,0,1,.219.44,3.244,3.244,0,0,0,1.421,2.065,4.2,4.2,0,0,0,3.264.655,4.133,4.133,0,0,0,1.058-7.711,3.374,3.374,0,0,0-3.024-.216.631.631,0,0,1-.486.073.385.385,0,0,1-.225-.272l3.165-6.063a.039.039,0,0,1,.052-.017l14.343,7.487a3.161,3.161,0,0,1,1.338,4.26Z" transform="translate(-79.186)" fill="rgba(255,255,255,0.9)"/>
    <path id="パス_13579" data-name="パス 13579" d="M704.512,856.3a4.161,4.161,0,0,0,3.026-1.312,4.116,4.116,0,0,0-.4-6.014,4.207,4.207,0,0,0-3.2-.93,3.246,3.246,0,0,0-2.215,1.172.628.628,0,0,1-.4.29.4.4,0,0,1-.329-.143l0-6.107a2.361,2.361,0,0,0-2.36-2.362H683.228a4.72,4.72,0,0,0-4.715,4.715v17a.779.779,0,0,0,1.558,0v-17a3.161,3.161,0,0,1,3.157-3.157h15.415a.8.8,0,0,1,.8.8l0,6.108a1.575,1.575,0,0,0,.53,1.188,1.974,1.974,0,0,0,1.535.5,2.148,2.148,0,0,0,1.489-.931,1.818,1.818,0,0,1,1.149-.534,2.633,2.633,0,0,1,2.008.588,2.535,2.535,0,0,1,.942,1.8,2.588,2.588,0,0,1-2.583,2.764,1.947,1.947,0,0,1-1.515-.557,2.149,2.149,0,0,0-1.489-.931,1.971,1.971,0,0,0-1.536.5,1.576,1.576,0,0,0-.53,1.189l0,7.661a.779.779,0,0,0,.779.779h0A.778.778,0,0,0,701,862.6l0-7.677a.42.42,0,0,1,.331-.127.629.629,0,0,1,.4.29A3.374,3.374,0,0,0,704.512,856.3Z" transform="translate(0 -31.618)" fill="rgba(255,255,255,0.9)"/>
    <path id="パス_13580" data-name="パス 13580" d="M784.566,924.62h-6.839a1.577,1.577,0,0,0-1.213.559,1.966,1.966,0,0,0-.469,1.519,2.154,2.154,0,0,0,.928,1.469,1.935,1.935,0,0,1,.557,1.514,2.589,2.589,0,0,1-2.764,2.583,2.532,2.532,0,0,1-1.8-.941,2.64,2.64,0,0,1-.589-2.007,1.8,1.8,0,0,1,.534-1.149,2.151,2.151,0,0,0,.928-1.469,1.965,1.965,0,0,0-.469-1.519,1.578,1.578,0,0,0-1.213-.559H764.45a.779.779,0,0,0,0,1.558l7.726,0a.419.419,0,0,1,.117.323.628.628,0,0,1-.289.4,3.245,3.245,0,0,0-1.172,2.215,4.205,4.205,0,0,0,.93,3.2,4.134,4.134,0,0,0,7.326-2.631,3.372,3.372,0,0,0-1.209-2.781.632.632,0,0,1-.289-.4.386.386,0,0,1,.137-.325h6.839a.038.038,0,0,1,.039.038V942.4a3.161,3.161,0,0,1-3.158,3.157h-17a.779.779,0,0,0,0,1.557h17a4.72,4.72,0,0,0,4.715-4.715v-16.18A1.6,1.6,0,0,0,784.566,924.62Z" transform="translate(-61.765 -92.346)" fill="rgba(255,255,255,0.9)"/>
  </g>
</svg>
