<svg xmlns="http://www.w3.org/2000/svg" width="70.217" height="49.403" viewBox="0 0 70.217 49.403">
  <g id="グループ_252" data-name="グループ 252" transform="translate(628.512 -958.484)">
    <path id="パス_13549" data-name="パス 13549" d="M-540.621,984.465a3.407,3.407,0,0,0-3.745-2.856l-5.612.581-3.136-5.218a.868.868,0,0,0-.1-.129,7.18,7.18,0,0,0,.286-1.416,6.117,6.117,0,0,0-1.329-4.534c-1.459-1.77-6.773-7.34-8.99-9.653a4.286,4.286,0,0,0-2.3-1.249l-7.743-1.478c-.023,0-.045-.008-.067-.01a3.243,3.243,0,0,0-2.4.716A3.41,3.41,0,0,0-577,961.536a3.376,3.376,0,0,0,2.905,3.729l6.011,1.252a2.664,2.664,0,0,1,1.439.823l2.77,3.054-31.5,26.326a3.276,3.276,0,0,0-.747,4.518,3.254,3.254,0,0,0,4.461.856c.015-.009.029-.019.043-.03l17.6-13.172,5.444,7.558-7.664,5.51c-1.708,1.242-2.166,2.97-1.194,4.511a3,3,0,0,0,2.047,1.364,3.493,3.493,0,0,0,.6.051,4.531,4.531,0,0,0,2.713-.987l10.786-6.842a.759.759,0,0,0,.1-.076,3.485,3.485,0,0,0,.484-4.076l-3.768-8.139,5.5-4.574.012-.01,1.256-1.044,2.859,5.005a3.742,3.742,0,0,0,3.247,1.884,3.763,3.763,0,0,0,.385-.02l7.643-.791a3.3,3.3,0,0,0,2.271-1.25A3.3,3.3,0,0,0-540.621,984.465Zm-22.28-.133-.012.01-3.09,2.571a.817.817,0,0,0-.219.971l4.032,8.708a2.024,2.024,0,0,1-.041,2.127l-10.755,6.822c-.022.014-.043.029-.064.045a2.739,2.739,0,0,1-2.059.641,1.35,1.35,0,0,1-.948-.627c-.5-.8-.244-1.579.769-2.315l8.324-5.985a.815.815,0,0,0,.329-.531.812.812,0,0,0-.144-.608l-5.494-7.627a.8.8,0,0,0-.042-.073l-1.992-2.8a.816.816,0,0,0-1.139-.192.816.816,0,0,0-.193,1.138l.676.952-17.617,13.187a1.628,1.628,0,0,1-2.212-.441,1.639,1.639,0,0,1,.387-2.27l.05-.038,32.179-26.89a.814.814,0,0,0,.291-.57.814.814,0,0,0-.21-.6l-3.342-3.683a4.287,4.287,0,0,0-2.315-1.324l-6.049-1.26c-.027-.005-.054-.01-.081-.012a1.739,1.739,0,0,1-1.5-1.943,1.788,1.788,0,0,1,.649-1.217,1.626,1.626,0,0,1,1.166-.363l7.706,1.471a2.665,2.665,0,0,1,1.431.776c1.72,1.794,7.445,7.786,8.909,9.561a4.464,4.464,0,0,1,.963,3.335,5.861,5.861,0,0,1-2.1,3.877Zm20.313,1.625a1.681,1.681,0,0,1-1.156.636l-7.643.792a2.1,2.1,0,0,1-2.046-1.05l-3-5.254.823-.672a7.45,7.45,0,0,0,1.578-1.8l2.924,4.865a.813.813,0,0,0,.784.391l6.128-.634a1.761,1.761,0,0,1,1.958,1.448A1.684,1.684,0,0,1-542.587,985.956Z" transform="translate(-17.705 0)" fill="rgba(255,255,255,0.9)"/>
    <path id="パス_13550" data-name="パス 13550" d="M-495.418,976.257a5.729,5.729,0,0,0,2.183.431,6.242,6.242,0,0,0,5.713-3.926,6.327,6.327,0,0,0,.059-4.723,5.818,5.818,0,0,0-3.226-3.311,6.116,6.116,0,0,0-7.9,3.5A6.116,6.116,0,0,0-495.418,976.257Zm-1.656-7.413a4.6,4.6,0,0,1,4.2-2.913,4.11,4.11,0,0,1,1.566.308,4.2,4.2,0,0,1,2.325,2.394,4.7,4.7,0,0,1-.049,3.509,4.482,4.482,0,0,1-5.765,2.6A4.482,4.482,0,0,1-497.074,968.844Z" transform="translate(-72.074 -3.237)" fill="rgba(255,255,255,0.9)"/>
    <path id="パス_13551" data-name="パス 13551" d="M-605.793,1018.423a.817.817,0,0,0-.817-.816H-627.7a.816.816,0,0,0-.817.816.816.816,0,0,0,.817.816h21.085A.817.817,0,0,0-605.793,1018.423Z" transform="translate(0 -32.92)" fill="rgba(255,255,255,0.9)"/>
    <path id="パス_13552" data-name="パス 13552" d="M-619.745,1003.884h.44a.817.817,0,0,0,.817-.816.817.817,0,0,0-.817-.817h-.44a.817.817,0,0,0-.817.817A.817.817,0,0,0-619.745,1003.884Z" transform="translate(-4.427 -24.37)" fill="rgba(255,255,255,0.9)"/>
    <path id="パス_13553" data-name="パス 13553" d="M-598.677,988.556h.439a.817.817,0,0,0,.817-.816.817.817,0,0,0-.817-.817h-.439a.817.817,0,0,0-.817.817A.817.817,0,0,0-598.677,988.556Z" transform="translate(-16.157 -15.835)" fill="rgba(255,255,255,0.9)"/>
    <path id="パス_13554" data-name="パス 13554" d="M-608.25,1003.884h17.189a.817.817,0,0,0,.817-.816.817.817,0,0,0-.817-.817H-608.25a.817.817,0,0,0-.817.817A.817.817,0,0,0-608.25,1003.884Z" transform="translate(-10.827 -24.37)" fill="rgba(255,255,255,0.9)"/>
    <path id="パス_13555" data-name="パス 13555" d="M-587.849,988.425h10.883a.817.817,0,0,0,.817-.817.817.817,0,0,0-.817-.816h-10.883a.817.817,0,0,0-.816.816A.817.817,0,0,0-587.849,988.425Z" transform="translate(-22.187 -15.762)" fill="rgba(255,255,255,0.9)"/>
  </g>
</svg>
