<svg xmlns="http://www.w3.org/2000/svg" width="41" height="62.4" viewBox="0 0 41 62.4">
  <g id="グループ_255" data-name="グループ 255" transform="translate(-592.227 -412.155)">
    <path id="パス_13564" data-name="パス 13564" d="M643.252,420.025l1.807,0a.61.61,0,0,0,0-1.22h0l-1.17,0,2.734-5.047,2.994,4.873-2.467.065a.61.61,0,0,0-.594.61v15.511a.61.61,0,1,0,1.22,0V419.9l2.538-.066a.837.837,0,0,0,.69-1.275l-3.688-6a.828.828,0,0,0-.736-.4.84.84,0,0,0-.714.438l-3.355,6.195a.839.839,0,0,0,.023.837A.823.823,0,0,0,643.252,420.025Zm-.007-1.22h0Z" transform="translate(-33.572)" fill="rgba(255,255,255,0.9)"/>
    <path id="パス_13565" data-name="パス 13565" d="M607.524,429.736l2.349,0a.61.61,0,0,0,0-1.22h0l-1.829,0,3.851-7.11,4.224,6.876-3.525.092a.61.61,0,0,0-.594.61V443.5a.61.61,0,0,0,1.22,0V429.578l3.477-.091a.905.905,0,0,0,.747-1.379l-4.795-7.8a.905.905,0,0,0-1.568.042l-4.362,8.054a.909.909,0,0,0,.025.9A.9.9,0,0,0,607.524,429.736Zm-.009-1.22h0Z" transform="translate(-9.622 -5.163)" fill="rgba(255,255,255,0.9)"/>
    <path id="パス_13566" data-name="パス 13566" d="M668.25,439.518a.909.909,0,0,0,.772.474l3.476.091V454a.61.61,0,0,0,1.22,0V439.489a.61.61,0,0,0-.594-.61l-3.525-.092,4.224-6.876,3.851,7.11-1.828,0h0a.61.61,0,0,0,0,1.22l2.334,0a.93.93,0,0,0,.8-.431.909.909,0,0,0,.025-.905l-4.362-8.054a.905.905,0,0,0-1.568-.042l-4.795,7.8A.909.909,0,0,0,668.25,439.518Z" transform="translate(-50.788 -12.191)" fill="rgba(255,255,255,0.9)"/>
    <path id="パス_13567" data-name="パス 13567" d="M641.321,516.864a6.178,6.178,0,1,0-5.914-6.173A6.054,6.054,0,0,0,641.321,516.864Zm0-11.125a4.96,4.96,0,1,1-4.694,4.953A4.834,4.834,0,0,1,641.321,505.739Z" transform="translate(-28.888 -61.793)" fill="rgba(255,255,255,0.9)"/>
    <path id="パス_13568" data-name="パス 13568" d="M632.345,497.149l-.092-.095a3.112,3.112,0,0,0-4.751.348l-.022.032-9.8,15.539a17.442,17.442,0,0,0-4.891-.734,18.528,18.528,0,0,0-5.011.737l-9.8-15.543-.022-.032a3.112,3.112,0,0,0-4.751-.347l-.091.094a3.1,3.1,0,0,0-.335,3.935L604.106,519.1l.842,11.064a.61.61,0,1,0,1.216-.092l-.854-11.215a.613.613,0,0,0-.092-.278l-11.426-18.167a1.9,1.9,0,0,1,.194-2.409l.092-.094a1.893,1.893,0,0,1,2.878.2l10.036,15.915a.61.61,0,0,0,.687.26l.091-.027a17.468,17.468,0,0,1,5.019-.791,16.377,16.377,0,0,1,4.859.779l.128.039a.61.61,0,0,0,.688-.26L628.5,498.1a1.892,1.892,0,0,1,2.878-.2l.092.095a1.9,1.9,0,0,1,.176,2.434l-11.409,18.141a.613.613,0,0,0-.092.278l-.854,11.215a.61.61,0,0,0,.562.654l.047,0a.61.61,0,0,0,.607-.564l.842-11.064,11.311-17.987A3.114,3.114,0,0,0,632.345,497.149Z" transform="translate(0 -56.17)" fill="rgba(255,255,255,0.9)"/>
  </g>
</svg>
