<svg xmlns="http://www.w3.org/2000/svg" width="52.504" height="61.42" viewBox="0 0 52.504 61.42">
  <g id="グループ_256" data-name="グループ 256" transform="translate(-1269.351 -872.143)">
    <path id="パス_13569" data-name="パス 13569" d="M1343.682,992.438c.022-5.686.049-12.763-3.848-16.791-2.473-2.51-5.393-3.8-8.218-5.046-1.33-.587-2.706-1.193-4.031-1.925a.753.753,0,0,0-1.084.438l-3.617,11.751-1.085-5.257-.039.008.836-1.941.674.444a.753.753,0,0,0,.83-1.258l-3.882-2.56a.751.751,0,0,0-.8-.021l-3.9,2.286a.753.753,0,1,0,.763,1.3l.635-.373,1.041,2.237-1.081,5.235-3.692-12.036a.753.753,0,0,0-1.088-.437c-1.212.676-2.371,1.2-3.6,1.745-.856.383-1.741.78-2.665,1.242a.754.754,0,1,0,.673,1.348c.9-.448,1.766-.838,2.608-1.215.985-.441,1.927-.864,2.9-1.366l7.124,23.222a.753.753,0,0,0,.72.533h0a.753.753,0,0,0,.72-.532l7.092-23.041c1.118.573,2.241,1.068,3.335,1.551,2.819,1.244,5.482,2.419,7.748,4.719,3.466,3.583,3.44,10.32,3.419,15.733,0,1.091-.008,2.122.015,3.092a.753.753,0,0,0,.753.736h.017a.753.753,0,0,0,.736-.77C1343.674,994.539,1343.678,993.518,1343.682,992.438Zm-23.9-20.62,1.54,1.015-.8,1.851h-1.382l-.911-1.957Zm.084,18.865-2.062-6.72,1.605-7.772h.974l1.583,7.666Z" transform="translate(-23.821 -62.696)" fill="#fff"/>
    <path id="パス_13570" data-name="パス 13570" d="M1279.881,1028.172a.753.753,0,0,0-.747-.76h-.006a.754.754,0,0,0-.753.747c-.006.809,0,1.607,0,2.381,0,1.08.008,2.1-.014,3.051a.754.754,0,0,0,.735.771h.018a.753.753,0,0,0,.753-.736c.023-.97.019-2,.015-3.091C1279.878,1029.766,1279.875,1028.975,1279.881,1028.172Z" transform="translate(-5.816 -100.799)" fill="#fff"/>
    <path id="パス_13571" data-name="パス 13571" d="M1281.51,970.709c0-1.77-1.064-2.7-2.114-2.7s-2.12.912-2.12,2.657c0,.713.007,1.144.016,1.629,0,.232.008.476.012.77a2.072,2.072,0,0,0-2.027.636q-.04.044-.081.1a2.056,2.056,0,0,0-1.091-.3,2.238,2.238,0,0,0-2.235,2.172,2.355,2.355,0,0,0-2.421,2.614c0,.693-.022,1.259-.045,1.858-.026.674-.053,1.371-.053,2.322,0,3.841,2.3,6.347,5.867,6.386h.04c1.541,0,5.063-.935,5.8-3.771a32.739,32.739,0,0,0,.452-6.824ZM1279.98,981.4l-2.449-1.608a2.037,2.037,0,0,0-2.788.563,1.982,1.982,0,0,0,.561,2.765l2.056,1.389a.753.753,0,1,0,.844-1.248l-2.068-1.4a.483.483,0,0,1-.214-.31.466.466,0,0,1,.072-.357.522.522,0,0,1,.714-.142l3.153,2.07a11.1,11.1,0,0,1-.26,1.579c-.482,1.857-3.081,2.643-4.333,2.643h-.032c-2.7-.029-4.377-1.9-4.377-4.88,0-.921.026-1.6.052-2.264.024-.614.047-1.194.047-1.916,0-.792.455-1.122.7-1.122a.121.121,0,0,1,.1.042.644.644,0,0,1,.1.361v1.21a.753.753,0,1,0,1.507,0V977.7c0-.018.005-.036.005-.055v-1.794a.751.751,0,0,1,.734-.849.517.517,0,0,1,.362.129.59.59,0,0,1,.153.4v2.263a.753.753,0,0,0,1.507,0V975.66c0-.017.005-.034.005-.051a1.327,1.327,0,0,1,.264-.9.571.571,0,0,1,.427-.2c.238,0,.492.152.492.578v2.045a.753.753,0,0,0,1.507,0v-2.366c0-1.273-.013-1.926-.022-2.5-.008-.477-.016-.9-.016-1.6,0-.747.316-1.15.613-1.15s.608.408.608,1.189v7.568C1280,978.3,1280.047,979.769,1279.98,981.4Z" transform="translate(0 -62.449)" fill="#fff"/>
    <path id="パス_13572" data-name="パス 13572" d="M1401.169,890.849a.752.752,0,0,0,.973.435l4.836-1.848a.753.753,0,1,0-.537-1.408l-4.836,1.848A.754.754,0,0,0,1401.169,890.849Z" transform="translate(-85.608 -10.224)" fill="#fff"/>
    <path id="パス_13573" data-name="パス 13573" d="M1406.964,905.073l-4.836-1.74a.753.753,0,0,0-.51,1.417l4.836,1.74a.753.753,0,1,0,.51-1.417Z" transform="translate(-85.608 -20.212)" fill="#fff"/>
    <path id="パス_13574" data-name="パス 13574" d="M1395.164,878.274a.752.752,0,0,0,1-.366l2.184-4.694a.753.753,0,1,0-1.366-.635l-2.184,4.694A.754.754,0,0,0,1395.164,878.274Z" transform="translate(-81.481)" fill="#fff"/>
    <path id="パス_13575" data-name="パス 13575" d="M1309.91,898.172c1.7,6.064,6.439,9.781,10.061,9.781,4.122,0,8.543-4.345,10.066-9.8a3.69,3.69,0,0,0,2.606-1.519,5.917,5.917,0,0,0,.453-5.44,2.886,2.886,0,0,0-1.9-1.812c.19-1.186.376-2.459.5-3.555l.047-.406c.293-2.51.5-4.324-.908-7a13.072,13.072,0,0,1-.9-2.1.764.764,0,0,0-.171-.714.729.729,0,0,0-1.034-.048c-1.144,1.042-2.048.537-3.429-.372a7.354,7.354,0,0,0-1.482-.826,18.232,18.232,0,0,0-8.312-.4c-4.163.712-6.381,2.647-7.654,6.68a15.466,15.466,0,0,0-.034,6.513c.1.673.245,1.525.4,2.38a2.833,2.833,0,0,0-1.543,1.667,5.917,5.917,0,0,0,.454,5.44A3.683,3.683,0,0,0,1309.91,898.172Zm-1.833-6.467a1.3,1.3,0,0,1,.445-.61c.232,1.207.428,2.165.444,2.245a.742.742,0,0,0,.723.6.717.717,0,0,0,.152-.016.753.753,0,0,0,.572-.891c-.008-.04-.822-4.024-1.124-6.1-.205-1.412-.587-4.04-.022-5.83,1.092-3.458,2.913-5.044,6.492-5.656a16.7,16.7,0,0,1,7.575.337,6.382,6.382,0,0,1,1.172.671c1.055.694,2.557,1.684,4.212.915a15.205,15.205,0,0,0,.82,1.771c1.19,2.257,1.021,3.706.742,6.108l-.047.409c-.123,1.075-.311,2.346-.5,3.529a.747.747,0,0,0-.61.768.756.756,0,0,0,.379.624c-.169.989-.32,1.8-.4,2.2a.753.753,0,0,0,.573.891.74.74,0,0,0,.874-.584c.084-.413.233-1.213.4-2.186a1.392,1.392,0,0,1,.756.806,4.459,4.459,0,0,1-.243,4.028,2.244,2.244,0,0,1-1.949.937.743.743,0,0,0-.767.573c-1.362,5.684-5.615,9.2-8.774,9.2-3.227,0-7.542-3.782-8.823-9.412a.743.743,0,0,0-.83-.575.734.734,0,0,0-.407.207,2.238,2.238,0,0,1-1.59-.932A4.46,4.46,0,0,1,1308.078,891.705Z" transform="translate(-23.811 -0.984)" fill="#fff"/>
    <path id="パス_13576" data-name="パス 13576" d="M1317.607,903.128a.753.753,0,0,0,.736-.593c.259-1.194.781-3.275,1.163-4.784.136.086.27.169.4.249.283.175.549.341.692.446a.761.761,0,0,0,.886.008c.02-.015,2.1-1.433,7.065-1.433a8.685,8.685,0,0,1,4.089.8,5.565,5.565,0,0,1,2.673,3.308.753.753,0,1,0,1.39-.581,7.136,7.136,0,0,0-3.355-4.057,10.111,10.111,0,0,0-4.8-.977,16.239,16.239,0,0,0-7.475,1.438c-.115-.073-.241-.151-.374-.234-.4-.249-.857-.531-1.207-.794a.753.753,0,0,0-1.182.417c-.547,2.147-1.146,4.523-1.439,5.872a.753.753,0,0,0,.576.9A.737.737,0,0,0,1317.607,903.128Z" transform="translate(-30.94 -15.089)" fill="#fff"/>
  </g>
</svg>
