<svg xmlns="http://www.w3.org/2000/svg" width="55" height="59.254" viewBox="0 0 55 59.254">
  <g id="グループ_254" data-name="グループ 254" transform="translate(-112.404 -521.604)">
    <path id="パス_13560" data-name="パス 13560" d="M142.573,528.14a21.887,21.887,0,0,0-10.56,1.739,24.539,24.539,0,0,0-12.062,12.33,31.578,31.578,0,0,0-2.109,8.567c-.042.313-.1.639-.176.968a29.457,29.457,0,0,1-2.436,6.145c-.166.344-.331.684-.492,1.021,0,0-1.264,2.655-1.881,3.952a3.089,3.089,0,0,0-.129,2.978A3.057,3.057,0,0,0,115.437,567c.29,0,1.436,0,2.218,0l0,1.608c.022,3.176.242,6.2,2.658,8.279,2.333,2.009,5.159,2.051,8.154,2.1l.134,0c0,1.385,0,4.227,0,4.864a.774.774,0,0,0,.774.769h.006a.775.775,0,0,0,.769-.781c-.006-.846,0-5.614,0-5.614a.775.775,0,0,0-.763-.775l-.9-.013c-2.937-.043-5.256-.078-7.164-1.72-1.929-1.661-2.1-4.1-2.12-7.112l-.006-2.377a.774.774,0,0,0-.775-.773s-2.534,0-2.986,0a1.764,1.764,0,0,1-1.4-.435,1.8,1.8,0,0,1,.217-1.487c.617-1.3,1.88-3.952,1.88-3.952.159-.333.322-.671.488-1.011a30.6,30.6,0,0,0,2.554-6.481c.084-.372.151-.741.2-1.1a30.268,30.268,0,0,1,1.993-8.156,22.99,22.99,0,0,1,11.3-11.55,20.327,20.327,0,0,1,9.8-1.6.774.774,0,0,0,.1-1.545Z" transform="translate(0 -3.756)" fill="rgba(255,255,255,0.9)"/>
    <path id="パス_13561" data-name="パス 13561" d="M219.515,577.358a.775.775,0,0,0-.7.84,20.179,20.179,0,0,1,.069,2.431,21.377,21.377,0,0,1-7.952,16.123c-.049.042-.169.132-.33.253-1.978,1.5-2.46,2-2.455,2.579.037,4.385.026,8.733.013,12.811a.774.774,0,0,0,.772.777h0a.774.774,0,0,0,.774-.772c.014-4.024.024-8.311-.011-12.64a16.028,16.028,0,0,1,1.839-1.519c.2-.148.34-.258.4-.309a22.868,22.868,0,0,0,8.5-17.254,21.885,21.885,0,0,0-.075-2.617A.771.771,0,0,0,219.515,577.358Z" transform="translate(-55.501 -32.319)" fill="rgba(255,255,255,0.9)"/>
    <path id="パス_13562" data-name="パス 13562" d="M211.085,531.883l-.045-.382a.775.775,0,0,0-.6-.666l-.78-.176c-.272-.061-.548-.124-.817-.187a9.617,9.617,0,0,0-.642-1.619c.123-.187.252-.379.381-.573l.529-.793a.774.774,0,0,0-.024-.892l-.231-.311a11.9,11.9,0,0,0-1-1.172,11.754,11.754,0,0,0-1.149-1.028l-.3-.238a.774.774,0,0,0-.893-.045l-.808.511c-.193.122-.388.246-.579.365a9.716,9.716,0,0,0-1.6-.683c-.059-.28-.117-.569-.174-.855l-.152-.752a.775.775,0,0,0-.651-.614l-.381-.053a11.739,11.739,0,0,0-2.993-.037l-.383.044a.774.774,0,0,0-.668.6l-.171.756c-.063.282-.128.567-.194.843a9.723,9.723,0,0,0-1.619.643c-.2-.131-.4-.267-.6-.4l-.762-.509a.775.775,0,0,0-.894.024l-.308.23a11.36,11.36,0,0,0-2.2,2.147l-.238.3a.775.775,0,0,0-.046.892l.443.7c.145.227.293.458.434.685a9.651,9.651,0,0,0-.683,1.6c-.292.062-.592.122-.887.18l-.719.144a.773.773,0,0,0-.616.65l-.055.384a11.773,11.773,0,0,0-.036,2.995l.045.384a.775.775,0,0,0,.6.666l.812.182c.262.059.527.12.785.181a9.66,9.66,0,0,0,.644,1.619c-.142.215-.288.434-.433.65l-.478.715a.775.775,0,0,0,.024.894l.229.307a11.454,11.454,0,0,0,2.148,2.2l.3.238a.775.775,0,0,0,.893.045l.706-.447c.225-.144.455-.289.68-.429a9.773,9.773,0,0,0,1.6.683c.052.243.1.493.151.74l.174.866a.774.774,0,0,0,.65.614l.382.055a11.713,11.713,0,0,0,3,.037h0l.383-.045a.775.775,0,0,0,.666-.6l.167-.735c.064-.288.13-.58.2-.863a9.752,9.752,0,0,0,1.618-.643c.2.132.406.269.612.406l.754.5a.774.774,0,0,0,.894-.024l.309-.231a11.433,11.433,0,0,0,2.2-2.147l.238-.3a.774.774,0,0,0,.047-.893l-.514-.813c-.122-.192-.245-.385-.363-.575a9.612,9.612,0,0,0,.683-1.6c.27-.057.548-.113.823-.168l.781-.156a.774.774,0,0,0,.617-.651l.054-.382A11.657,11.657,0,0,0,211.085,531.883Zm-1.548,2.62-.243.049c-.391.078-.788.158-1.161.24l-.138.031a.774.774,0,0,0-.575.542l-.039.137a8.077,8.077,0,0,1-.785,1.843l-.071.122a.773.773,0,0,0,.008.792l.074.122c.172.282.358.576.54.864l.22.348a10.073,10.073,0,0,1-.79.87,10.248,10.248,0,0,1-.889.77l-.3-.2c-.3-.2-.607-.406-.9-.592l-.119-.076a.773.773,0,0,0-.791-.029l-.125.068a8.147,8.147,0,0,1-1.674.688c-.062.018-.124.035-.187.051l-.137.036a.774.774,0,0,0-.558.562l-.034.138c-.1.387-.189.8-.279,1.2l-.045.2a10.117,10.117,0,0,1-2.278-.028l-.066-.327c-.073-.363-.147-.732-.225-1.078l-.031-.138a.774.774,0,0,0-.542-.575l-.136-.038a8.15,8.15,0,0,1-1.843-.786l-.122-.071a.775.775,0,0,0-.793.008l-.121.073c-.317.193-.649.4-.971.609l-.241.152a9.785,9.785,0,0,1-1.639-1.68l.172-.258c.208-.311.421-.629.617-.934l.077-.119a.774.774,0,0,0,.028-.793l-.069-.124a8.124,8.124,0,0,1-.74-1.862l-.036-.137a.776.776,0,0,0-.564-.557l-.137-.034c-.359-.089-.742-.176-1.119-.262l-.276-.062a10.192,10.192,0,0,1,.028-2.278l.18-.036c.41-.082.831-.166,1.225-.254l.138-.031a.775.775,0,0,0,.577-.544l.039-.135a8.065,8.065,0,0,1,.784-1.842l.071-.122a.775.775,0,0,0-.007-.792l-.074-.121c-.195-.32-.407-.654-.613-.978l-.148-.234a9.776,9.776,0,0,1,1.68-1.64l.306.2c.3.2.6.4.891.587l.119.076a.773.773,0,0,0,.789.027l.125-.068a8.1,8.1,0,0,1,1.672-.687c.063-.018.125-.036.187-.052l.137-.035a.774.774,0,0,0,.558-.562l.034-.138c.095-.38.187-.784.276-1.181l.049-.217a10.114,10.114,0,0,1,2.277.028l.043.211c.079.4.161.81.247,1.192l.031.138a.775.775,0,0,0,.542.577l.137.039a8.106,8.106,0,0,1,1.842.784l.122.071a.773.773,0,0,0,.791-.006l.122-.074c.284-.172.58-.36.881-.551l.332-.21a9.761,9.761,0,0,1,1.639,1.679l-.229.343c-.19.284-.383.572-.562.85l-.077.119a.774.774,0,0,0-.027.791l.068.124a8.092,8.092,0,0,1,.738,1.861l.035.137a.775.775,0,0,0,.565.559l.136.034c.371.092.766.181,1.182.275l.214.048A10.124,10.124,0,0,1,209.537,534.5Z" transform="translate(-43.761)" fill="rgba(255,255,255,0.9)"/>
    <path id="パス_13563" data-name="パス 13563" d="M209.267,538.4a4.576,4.576,0,1,0,4.576,4.576A4.581,4.581,0,0,0,209.267,538.4Zm0,7.6a3.027,3.027,0,1,1,3.027-3.027A3.031,3.031,0,0,1,209.267,546.006Z" transform="translate(-53.499 -9.738)" fill="rgba(255,255,255,0.9)"/>
  </g>
</svg>
